<?xml version="1.0" encoding="UTF-8" standalone="no"?>
<!-- Created with Inkscape (http://www.inkscape.org/) -->

<svg
   width="3840"
   height="2160"
   viewBox="0 0 1016 571.5"
   version="1.1"
   id="svg7363"
   inkscape:version="1.1.1 (3bf5ae0d25, 2021-09-20)"
   sodipodi:docname="bg.svg"
   xmlns:inkscape="http://www.inkscape.org/namespaces/inkscape"
   xmlns:sodipodi="http://sodipodi.sourceforge.net/DTD/sodipodi-0.dtd"
   xmlns="http://www.w3.org/2000/svg"
   xmlns:svg="http://www.w3.org/2000/svg">
  <sodipodi:namedview
     id="namedview7365"
     pagecolor="#ffffff"
     bordercolor="#666666"
     borderopacity="1.0"
     inkscape:pageshadow="2"
     inkscape:pageopacity="0.0"
     inkscape:pagecheckerboard="0"
     inkscape:document-units="mm"
     showgrid="false"
     units="px"
     inkscape:snap-object-midpoints="true"
     inkscape:snap-midpoints="true"
     inkscape:snap-smooth-nodes="true"
     inkscape:snap-intersection-paths="true"
     inkscape:object-paths="true"
     inkscape:snap-page="true"
     inkscape:snap-others="true"
     inkscape:object-nodes="true"
     inkscape:zoom="0.1866066"
     inkscape:cx="1580.8659"
     inkscape:cy="1358.4729"
     inkscape:window-width="1680"
     inkscape:window-height="987"
     inkscape:window-x="-8"
     inkscape:window-y="-8"
     inkscape:window-maximized="1"
     inkscape:current-layer="layer7" />
  <defs
     id="defs7360" />
  <g
     inkscape:label="Livello 1"
     inkscape:groupmode="layer"
     id="layer1"
     style="display:inline"
     sodipodi:insensitive="true">
    <path
       style="fill:#fff2da;fill-opacity:1;stroke:#000000;stroke-width:0.264583px;stroke-linecap:butt;stroke-linejoin:miter;stroke-opacity:1"
       d="M 0,0 H 1016 V 571.49999 H 0 Z"
       id="path39325" />
  </g>
  <g
     inkscape:groupmode="layer"
     id="layer4"
     inkscape:label="Livello 2"
     style="display:inline;opacity:0.8"
     sodipodi:insensitive="true">
    <path
       id="path41826"
       style="fill:#cd4d46;fill-opacity:1;stroke:#cd4d46;stroke-width:8;stroke-linecap:round;stroke-linejoin:round;stroke-miterlimit:4;stroke-dasharray:none;stroke-opacity:1"
       d="M 1016,571.49999 H 932.19168 V 0 m -0.0782,0.1322915 h 83.80822 V 571.63228" />
    <path
       id="path42207"
       style="fill:#cd4d46;fill-opacity:1;stroke:#cd4d46;stroke-width:7.99996;stroke-linecap:round;stroke-linejoin:round;stroke-miterlimit:4;stroke-dasharray:none;stroke-opacity:1"
       d="M 216.67924,571.3677 H 195.94279 V -0.1322915 M 195.92344,0 h 20.73645 v 571.49999" />
    <path
       id="path42209"
       style="fill:#cd4d46;fill-opacity:1;stroke:#cd4d46;stroke-width:8;stroke-linecap:round;stroke-linejoin:round;stroke-miterlimit:4;stroke-dasharray:none;stroke-opacity:1"
       d="M 445.37981,571.3677 H 349.43328 V -0.1322915 M 349.34376,0 h 95.94654 v 571.49999" />
    <path
       id="path42211"
       style="fill:#cd4d46;fill-opacity:1;stroke:#cd4d46;stroke-width:7.99996;stroke-linecap:round;stroke-linejoin:round;stroke-miterlimit:4;stroke-dasharray:none;stroke-opacity:1"
       d="M 508.01935,571.3677 H 487.2829 V -0.1322915 M 487.26355,0 H 508 v 571.49999" />
    <path
       id="path42328"
       style="fill:#cd4d46;fill-opacity:1;stroke:#cd4d46;stroke-width:8;stroke-linecap:round;stroke-linejoin:round;stroke-miterlimit:4;stroke-dasharray:none;stroke-opacity:1"
       d="M 736.80943,571.3677 H 640.8629 V -0.1322915 M 640.77338,0 h 95.94654 v 571.49999" />
    <path
       id="path42330"
       style="fill:#cd4d46;fill-opacity:1;stroke:#cd4d46;stroke-width:7.99996;stroke-linecap:round;stroke-linejoin:round;stroke-miterlimit:4;stroke-dasharray:none;stroke-opacity:1"
       d="M 799.44897,571.3677 H 778.71252 V -0.1322915 M 778.69317,0 h 20.73645 v 571.49999" />
    <path
       id="path42412"
       style="fill:#cd4d46;fill-opacity:1;stroke:#cd4d46;stroke-width:8;stroke-linecap:round;stroke-linejoin:round;stroke-miterlimit:4;stroke-dasharray:none;stroke-opacity:1"
       d="M 154.0397,571.3677 H 58.09317 V -0.1322915 M 58.00365,0 h 95.94654 v 571.49999" />
  </g>
  <g
     inkscape:groupmode="layer"
     id="layer5"
     inkscape:label="Livello 3"
     style="display:inline;opacity:0.8"
     sodipodi:insensitive="true">
    <path
       id="path43437"
       style="fill:#cd4d46;fill-opacity:1;stroke:#cd4d46;stroke-width:8;stroke-linecap:round;stroke-linejoin:round;stroke-miterlimit:4;stroke-dasharray:none;stroke-opacity:1"
       d="M 0,154.0397 H 1016 V 58.18266 m 0,0 H 0 v 95.85704" />
    <path
       id="path43552"
       style="fill:#cd4d46;fill-opacity:1;stroke:#cd4d46;stroke-width:8;stroke-linecap:round;stroke-linejoin:round;stroke-miterlimit:4;stroke-dasharray:none;stroke-opacity:1"
       d="M 1016,196.0323 H 0 l 0.13229,20.71705 H 1016 Z" />
    <path
       id="path44177"
       style="fill:#cd4d46;fill-opacity:1;stroke:#cd4d46;stroke-width:8;stroke-linecap:round;stroke-linejoin:round;stroke-miterlimit:4;stroke-dasharray:none;stroke-opacity:1"
       d="m 0,447.99373 h 1016 v -95.85704 m 0,0 H 0 v 95.85704" />
    <path
       id="path44179"
       style="fill:#cd4d46;fill-opacity:1;stroke:#cd4d46;stroke-width:8;stroke-linecap:round;stroke-linejoin:round;stroke-miterlimit:4;stroke-dasharray:none;stroke-opacity:1"
       d="M 1015.9339,490.00573 H -0.066145 l 0.13229,20.71705 H 1015.9339 Z" />
  </g>
  <g
     inkscape:groupmode="layer"
     id="layer7"
     inkscape:label="Livello 4">
    <path
       style="fill:#f8d29f;stroke:#351a1b;stroke-width:8;stroke-linecap:round;stroke-linejoin:round;stroke-miterlimit:4;stroke-dasharray:none;stroke-opacity:1;fill-opacity:1"
       d="m 896.21695,441.37521 35.97473,48.63052 c 10.48618,19.71342 -16.73617,40.24259 -32.03604,23.69886 l -35.97473,-48.63052"
       id="path50930"
       sodipodi:nodetypes="cccc" />
    <circle
       style="fill:#fff2da;fill-opacity:1;fill-rule:evenodd;stroke:#351a1b;stroke-width:8;stroke-linecap:round;stroke-linejoin:round;stroke-miterlimit:4;stroke-dasharray:none;stroke-dashoffset:3779.53;stroke-opacity:1"
       id="circle50676"
       cx="799.42963"
       cy="352.13669"
       r="130" />
    <circle
       style="fill:#8a5335;fill-opacity:1;fill-rule:evenodd;stroke:#351a1b;stroke-width:8;stroke-linecap:round;stroke-linejoin:round;stroke-miterlimit:4;stroke-dasharray:none;stroke-dashoffset:3779.53;stroke-opacity:1"
       id="path50366"
       cx="799.42963"
       cy="352.13669"
       r="110" />
    <path
       style="fill:#6d3515;stroke:none;stroke-width:0.265;stroke-linecap:butt;stroke-linejoin:miter;stroke-opacity:1;stroke-miterlimit:4;stroke-dasharray:none;fill-opacity:1"
       d="m 731.75415,438.85479 c 109.83756,4.00482 159.45959,-62.6948 149.1801,-160.58959 27.63585,42.5389 47.9459,86.9886 -1.83746,149.72093 -47.53895,50.83085 -97.31817,34.52472 -147.34264,10.86866 z"
       id="path55465"
       sodipodi:nodetypes="cccc" />
    <circle
       style="fill:none;fill-opacity:1;fill-rule:evenodd;stroke:#351a1b;stroke-width:8;stroke-linecap:round;stroke-linejoin:round;stroke-miterlimit:4;stroke-dasharray:none;stroke-dashoffset:3779.53;stroke-opacity:1"
       id="circle55412"
       cx="799.42963"
       cy="352.13669"
       r="110" />
    <circle
       style="fill:#d08d4d;fill-opacity:1;fill-rule:evenodd;stroke:#351a1b;stroke-width:8;stroke-linecap:round;stroke-linejoin:round;stroke-miterlimit:4;stroke-dasharray:none;stroke-dashoffset:3779.53;stroke-opacity:1"
       id="path56121"
       cx="247.7774"
       cy="100.24886"
       r="90"
       transform="rotate(2.1258166)" />
    <path
       style="fill:#b76d42;fill-opacity:1;stroke:none;stroke-width:0.264583px;stroke-linecap:butt;stroke-linejoin:miter;stroke-opacity:1"
       d="m 172.98266,166.94413 c 80.91523,10.57962 136.17003,-15.09123 141.92343,-110.692616 47.74352,75.192476 -8.93125,113.632716 -17.16551,126.116396 -36.67366,21.49624 -75.29177,32.4485 -124.75792,-15.42378 z"
       id="path72249"
       sodipodi:nodetypes="cccc" />
    <circle
       style="fill:none;fill-opacity:1;fill-rule:evenodd;stroke:#351a1b;stroke-width:8;stroke-linecap:round;stroke-linejoin:round;stroke-miterlimit:4;stroke-dasharray:none;stroke-dashoffset:3779.53;stroke-opacity:1"
       id="circle72251"
       cx="247.7774"
       cy="100.24886"
       r="90"
       transform="rotate(2.1258166)" />
    <circle
       style="fill:#d08d4d;fill-opacity:1;fill-rule:evenodd;stroke:#351a1b;stroke-width:8;stroke-linecap:round;stroke-linejoin:round;stroke-miterlimit:4;stroke-dasharray:none;stroke-dashoffset:3779.53;stroke-opacity:1"
       id="circle56557"
       cx="161.11586"
       cy="190.18677"
       r="90"
       transform="rotate(2.1258166)" />
    <rect
       style="fill:#8a5335;fill-opacity:1;fill-rule:evenodd;stroke:#351a1b;stroke-width:7.99999;stroke-linecap:round;stroke-linejoin:round;stroke-miterlimit:4;stroke-dasharray:none;stroke-dashoffset:3779.53;stroke-opacity:1"
       id="rect57136"
       width="85"
       height="85"
       x="-21.108128"
       y="36.887821"
       transform="rotate(-29.875149)" />
    <path
       style="fill:#b76d42;stroke:none;stroke-width:0.264583px;stroke-linecap:butt;stroke-linejoin:miter;stroke-opacity:1;fill-opacity:1"
       d="m 83.667705,252.24949 c 80.915235,10.57962 136.170035,-15.09123 141.923435,-110.69262 47.74352,75.19248 -8.93125,113.63272 -17.16551,126.1164 -36.67366,21.49624 -75.29177,32.4485 -124.757925,-15.42378 z"
       id="path71366"
       sodipodi:nodetypes="cccc" />
    <circle
       style="fill:none;fill-opacity:1;fill-rule:evenodd;stroke:#351a1b;stroke-width:8;stroke-linecap:round;stroke-linejoin:round;stroke-miterlimit:4;stroke-dasharray:none;stroke-dashoffset:3779.53;stroke-opacity:1"
       id="circle71313"
       cx="161.11586"
       cy="190.18677"
       r="90"
       transform="rotate(2.1258166)" />
    <rect
       style="fill:#8a5335;fill-opacity:1;fill-rule:evenodd;stroke:#351a1b;stroke-width:7.99999;stroke-linecap:round;stroke-linejoin:round;stroke-miterlimit:4;stroke-dasharray:none;stroke-dashoffset:3779.53;stroke-opacity:1"
       id="rect57170"
       width="170"
       height="170"
       x="233.53049"
       y="215.03311"
       transform="rotate(32.363151)" />
    <path
       style="fill:none;stroke:#351a1b;stroke-width:8;stroke-linecap:round;stroke-linejoin:round;stroke-opacity:1;stroke-miterlimit:4;stroke-dasharray:none"
       d="M 62.951962,495.731 153.95019,352.13668"
       id="path77155" />
    <path
       style="fill:none;stroke:#351a1b;stroke-width:8;stroke-linecap:round;stroke-linejoin:round;stroke-opacity:1;stroke-miterlimit:4;stroke-dasharray:none"
       d="M 36.653925,378.43473 180.24822,469.43295"
       id="path79879" />
    <rect
       style="fill:#6d3515;fill-opacity:1;fill-rule:evenodd;stroke:#351a1b;stroke-width:7.99996;stroke-linecap:round;stroke-linejoin:round;stroke-miterlimit:4;stroke-dasharray:none;stroke-dashoffset:3779.53;stroke-opacity:1"
       id="rect85604"
       width="53.767002"
       height="53.767002"
       x="-368.97104"
       y="334.58282"
       transform="rotate(-57.636847)" />
    <rect
       style="fill:#6d3515;fill-opacity:1;fill-rule:evenodd;stroke:#351a1b;stroke-width:7.99996;stroke-linecap:round;stroke-linejoin:round;stroke-miterlimit:4;stroke-dasharray:none;stroke-dashoffset:3779.53;stroke-opacity:1"
       id="rect85606"
       width="53.767002"
       height="53.767002"
       x="-283.76331"
       y="334.55618"
       transform="rotate(-57.636847)" />
    <rect
       style="fill:#8a5335;fill-opacity:1;fill-rule:evenodd;stroke:#351a1b;stroke-width:7.99999;stroke-linecap:round;stroke-linejoin:round;stroke-miterlimit:4;stroke-dasharray:none;stroke-dashoffset:3779.53;stroke-opacity:1"
       id="rect57356"
       width="85"
       height="170"
       x="-194.54251"
       y="400.42798"
       transform="rotate(-38.525924)" />
    <rect
       style="fill:#8a5335;fill-opacity:1;fill-rule:evenodd;stroke:#351a1b;stroke-width:7.99999;stroke-linecap:round;stroke-linejoin:round;stroke-miterlimit:4;stroke-dasharray:none;stroke-dashoffset:3779.53;stroke-opacity:1"
       id="rect57762"
       width="85"
       height="85"
       x="477.68448"
       y="695.5296"
       transform="rotate(-45.000003)" />
    <rect
       style="fill:#6d3515;fill-opacity:1;fill-rule:evenodd;stroke:#351a1b;stroke-width:7.99996;stroke-linecap:round;stroke-linejoin:round;stroke-miterlimit:4;stroke-dasharray:none;stroke-dashoffset:3779.53;stroke-opacity:1"
       id="rect77087"
       width="53.767002"
       height="53.767002"
       x="711.14716"
       y="-547.06641"
       transform="rotate(44.999876)" />
    <rect
       style="fill:#8a5335;fill-opacity:1;fill-rule:evenodd;stroke:#351a1b;stroke-width:7.99999;stroke-linecap:round;stroke-linejoin:round;stroke-miterlimit:4;stroke-dasharray:none;stroke-dashoffset:3779.53;stroke-opacity:1"
       id="rect57764"
       width="85"
       height="85"
       x="383.45157"
       y="-909.33783"
       transform="rotate(76.57045)" />
    <path
       style="fill:#351a1b;stroke:#351a1b;stroke-width:0.265;stroke-linecap:butt;stroke-linejoin:miter;stroke-opacity:1;stroke-miterlimit:4;stroke-dasharray:none;fill-opacity:1"
       d="m 86.136574,196.0323 c -2.189029,-4.12735 -1.076604,-10.9406 2.645833,-13.76378 2.82056,-2.13918 7.836888,-1.35159 10.583334,0.88194 3.474899,2.82594 4.292589,8.42772 3.821759,12.88184 -0.23677,2.23987 -1.10524,5.19654 -3.233797,5.93297 -4.736864,1.63884 -11.468593,-1.50487 -13.817129,-5.93297 z"
       id="path61666"
       sodipodi:nodetypes="ssssss" />
    <path
       style="fill:#351a1b;stroke:#351a1b;stroke-width:0.265;stroke-linecap:butt;stroke-linejoin:miter;stroke-opacity:1;stroke-miterlimit:4;stroke-dasharray:none;fill-opacity:1"
       d="m 98.189813,210.78472 c -3.493354,1.31169 -6.050784,6.93809 -4.409723,10.28935 1.02439,2.09194 4.438814,1.93809 6.76158,1.76389 2.23263,-0.16744 5.1313,-0.66436 6.17361,-2.64583 0.93049,-1.76889 0.05,-4.30109 -1.17593,-5.87963 -1.66684,-2.14621 -4.80551,-4.48301 -7.349537,-3.52778 z"
       id="path61668"
       sodipodi:nodetypes="ssssss" />
    <path
       style="fill:#351a1b;fill-opacity:1;stroke:#351a1b;stroke-width:0.265;stroke-linecap:butt;stroke-linejoin:miter;stroke-miterlimit:4;stroke-dasharray:none;stroke-opacity:1"
       d="m 197.84954,200.36582 c -4.00069,2.52368 -3.98424,9.14687 -3.2338,13.81713 0.65591,4.082 2.91325,8.47154 6.46759,10.58333 3.37405,2.00467 8.03,1.81088 11.75926,0.58796 3.24303,-1.06347 7.42902,-3.09274 7.9375,-6.46759 0.47376,-3.14441 -3.2973,-5.46077 -5.29167,-7.9375 -2.47753,-3.07675 -4.78228,-6.59997 -8.23148,-8.52546 -2.8028,-1.56464 -6.69248,-3.77047 -9.4074,-2.05787 z"
       id="path61670"
       sodipodi:nodetypes="ssssssss" />
    <path
       style="fill:#351a1b;fill-opacity:1;stroke:#351a1b;stroke-width:0.265;stroke-linecap:butt;stroke-linejoin:miter;stroke-miterlimit:4;stroke-dasharray:none;stroke-opacity:1"
       d="m 160.12581,252.49269 c -1.53015,1.50676 -1.64577,4.59705 -0.51375,6.42193 1.45841,2.35104 5.01065,3.70522 7.70631,3.08252 3.60292,-0.83227 8.49183,-4.67223 7.44943,-8.22006 -0.64993,-2.21204 -4.38461,-1.56961 -6.6788,-1.79814 -2.64681,-0.26365 -6.06791,-1.35255 -7.96319,0.51375 z"
       id="path61676"
       sodipodi:nodetypes="ssssss" />
    <path
       style="fill:#351a1b;fill-opacity:1;stroke:#351a1b;stroke-width:0.265;stroke-linecap:butt;stroke-linejoin:miter;stroke-miterlimit:4;stroke-dasharray:none;stroke-opacity:1"
       d="m 123.12246,131.33382 c -0.21094,3.90788 -0.3413,8.46533 2.05501,11.55947 2.01769,2.60524 5.69636,4.18519 8.9907,4.11003 3.56053,-0.0812 8.44417,-1.4807 9.50445,-4.88066 0.80974,-2.59655 -2.64053,-4.75796 -3.85316,-7.19256 -1.09316,-2.19478 -1.2021,-5.10526 -3.08252,-6.67881 -3.12177,-2.61233 -8.27555,-5.09066 -11.81634,-3.08252 -1.86202,1.05603 -1.68275,4.02752 -1.79814,6.16505 z"
       id="path61678"
       sodipodi:nodetypes="ssssssss" />
    <path
       style="fill:#351a1b;fill-opacity:1;stroke:#351a1b;stroke-width:0.265;stroke-linecap:butt;stroke-linejoin:miter;stroke-miterlimit:4;stroke-dasharray:none;stroke-opacity:1"
       d="m 167.79729,135.52222 c -0.0909,2.36655 2.3907,4.60568 4.62379,5.39442 2.21697,0.78305 5.5931,0.64581 6.93568,-1.28438 1.14144,-1.64101 0.0918,-4.25201 -1.02751,-5.90818 -1.18421,-1.75215 -3.29372,-3.58321 -5.39442,-3.3394 -2.40571,0.27921 -5.0446,2.71746 -5.13754,5.13754 z"
       id="path61684"
       sodipodi:nodetypes="ssssss" />
    <path
       style="fill:#351a1b;fill-opacity:1;stroke:#351a1b;stroke-width:0.265;stroke-linecap:butt;stroke-linejoin:miter;stroke-miterlimit:4;stroke-dasharray:none;stroke-opacity:1"
       d="m 144.40842,180.17092 c -1.23109,2.80127 0.3235,6.9726 2.82565,8.73382 2.24171,1.57791 6.31215,1.71161 8.22007,-0.25687 1.37065,-1.41415 0.70798,-4.07044 0,-5.90818 -0.87172,-2.26277 -2.50548,-4.90601 -4.88067,-5.39441 -2.21426,-0.4553 -5.25554,0.7561 -6.16505,2.82564 z"
       id="path61686"
       sodipodi:nodetypes="ssssss" />
    <path
       style="fill:#351a1b;stroke:#351a1b;stroke-width:0.264583px;stroke-linecap:butt;stroke-linejoin:miter;stroke-opacity:1;fill-opacity:1"
       d="m 268.70207,125.56933 c -2.94814,2.80585 -1.21646,12.87244 2.05502,15.66949 3.27148,2.79705 7.64949,1.70025 10.01821,-0.25688 2.36872,-1.95713 2.52835,-5.616 1.79813,-8.22006 -0.73022,-2.60406 -2.98403,-4.35242 -5.39443,-5.65129 -2.4104,-1.29887 -5.52879,-4.34711 -8.47693,-1.54126 z"
       id="path61688"
       sodipodi:nodetypes="zzzzzz" />
    <path
       style="fill:#351a1b;fill-opacity:1;stroke:#351a1b;stroke-width:0.264583px;stroke-linecap:butt;stroke-linejoin:miter;stroke-opacity:1"
       d="m 249.21425,61.049654 c -2.70978,2.157525 -2.58465,6.595461 -0.25688,8.990695 2.32778,2.395234 8.83487,1.970408 11.04571,0 2.21084,-1.970409 2.58645,-4.184494 0.77063,-6.678801 -1.81582,-2.494307 -8.84967,-4.469419 -11.55946,-2.311894 z"
       id="path61692"
       sodipodi:nodetypes="zzzzz" />
    <path
       style="fill:#351a1b;fill-opacity:1;stroke:#351a1b;stroke-width:0.264583px;stroke-linecap:butt;stroke-linejoin:miter;stroke-opacity:1"
       d="m 243.88514,29.675827 c -2.80523,1.843209 -8.78009,8.932402 -6.93568,13.871358 1.84442,4.938956 9.97591,7.504777 14.89886,6.165048 4.92295,-1.339729 9.4597,-6.715381 8.73381,-11.559465 -0.72589,-4.844084 -8.94953,-7.817366 -12.0732,-8.733819 -3.12367,-0.916453 -1.81856,-1.586331 -4.62379,0.256878 z"
       id="path61694"
       sodipodi:nodetypes="zzzzzz" />
    <path
       style="fill:#351a1b;stroke:#351a1b;stroke-width:0.264583px;stroke-linecap:butt;stroke-linejoin:miter;stroke-opacity:1;fill-opacity:1"
       d="m 174.94196,63.148209 c -0.48259,2.006248 0.52076,4.812243 2.82564,5.651294 2.30488,0.839051 6.66379,-1.423647 7.70632,-3.339402 1.04253,-1.915755 0.32251,-3.42494 -0.77063,-4.623786 -1.09314,-1.198846 -3.06203,-1.631982 -4.88067,-1.284386 -1.81864,0.347596 -4.39807,1.590032 -4.88066,3.59628 z"
       id="path61698"
       sodipodi:nodetypes="zzzzzz" />
    <path
       style="fill:#351a1b;stroke:#351a1b;stroke-width:0.264583px;stroke-linecap:butt;stroke-linejoin:miter;stroke-opacity:1;fill-opacity:1"
       d="m 314.16931,78.303953 c -1.33047,1.90806 -1.79755,4.848513 -0.77063,6.935679 1.23825,2.51668 4.64808,5.547026 7.19254,4.36691 1.49416,-0.69299 0.40472,-3.274782 0.77063,-4.880665 0.39721,-1.743238 2.11544,-3.44432 1.54128,-5.137539 -0.61054,-1.800498 -2.7288,-3.185725 -4.62378,-3.339401 -1.52671,-0.123811 -3.23394,0.798582 -4.11004,2.055016 z"
       id="path61700"
       sodipodi:nodetypes="sssssss" />
    <path
       style="fill:#351a1b;stroke:#351a1b;stroke-width:0.264583px;stroke-linecap:butt;stroke-linejoin:miter;stroke-opacity:1;fill-opacity:1"
       d="m 214.24414,119.1474 c -0.83624,-4.33006 0.99588,-7.30982 3.59628,-9.24757 2.6004,-1.93775 6.82365,-2.06874 9.50445,-0.77064 2.6808,1.2981 3.50735,4.24036 4.62379,6.93569 1.11644,2.69533 3.24272,6.62151 1.79814,8.99069 -1.44458,2.36918 -5.83491,0.65136 -7.19256,2.05502 -1.35765,1.40366 2.32408,3.24089 -1.02751,4.11003 -3.35159,0.86914 -10.46635,-7.74316 -11.30259,-12.07322 z"
       id="path61702"
       sodipodi:nodetypes="zzzzzzzz" />
    <path
       style="fill:#351a1b;stroke:#351a1b;stroke-width:0.264583px;stroke-linecap:butt;stroke-linejoin:miter;stroke-opacity:1;fill-opacity:1"
       d="m 259.19762,177.45848 c -3.12932,-0.98879 -4.15854,-6.63339 -2.56877,-9.50445 0.99721,-1.80092 3.93874,-2.68424 5.90816,-1.79814 1.96942,0.8861 3.32594,3.96051 2.82567,6.16505 -0.59198,2.60871 -3.61433,5.94351 -6.16506,5.13754 z"
       id="path61704"
       sodipodi:nodetypes="sssss" />
    <path
       style="fill:#351a1b;fill-opacity:1;stroke:#351a1b;stroke-width:0.264583px;stroke-linecap:butt;stroke-linejoin:miter;stroke-opacity:1"
       d="m 200.5034,150.59524 c -0.48259,2.00625 0.52076,4.81225 2.82564,5.6513 2.30488,0.83905 6.66379,-1.42365 7.70632,-3.33941 1.04253,-1.91575 0.32251,-3.42494 -0.77063,-4.62378 -1.09314,-1.19885 -3.06203,-1.63198 -4.88067,-1.28439 -1.81864,0.3476 -4.39807,1.59003 -4.88066,3.59628 z"
       id="path71172"
       sodipodi:nodetypes="zzzzzz" />
    <path
       style="fill:#351a1b;fill-opacity:1;stroke:#351a1b;stroke-width:0.265;stroke-linecap:butt;stroke-linejoin:miter;stroke-miterlimit:4;stroke-dasharray:none;stroke-opacity:1"
       d="m 300.94236,112.17284 c -2.18902,-4.12735 -1.0766,-10.9406 2.64584,-13.763783 2.82056,-2.13918 7.83689,-1.35159 10.58333,0.88194 3.4749,2.825943 4.29259,8.427723 3.82176,12.881843 -0.23677,2.23987 -1.10524,5.19654 -3.2338,5.93297 -4.73686,1.63884 -11.46859,-1.50487 -13.81713,-5.93297 z"
       id="path71174"
       sodipodi:nodetypes="ssssss" />
    <rect
       style="fill:#6d3515;fill-opacity:1;fill-rule:evenodd;stroke:#351a1b;stroke-width:7.99996;stroke-linecap:round;stroke-linejoin:round;stroke-miterlimit:4;stroke-dasharray:none;stroke-dashoffset:3779.53;stroke-opacity:1"
       id="rect72271"
       width="53.767002"
       height="53.767002"
       x="-5.4916306"
       y="52.504318"
       transform="rotate(-29.875149)" />
    <rect
       style="fill:#6d3515;fill-opacity:1;fill-rule:evenodd;stroke:#351a1b;stroke-width:7.99996;stroke-linecap:round;stroke-linejoin:round;stroke-miterlimit:4;stroke-dasharray:none;stroke-dashoffset:3779.53;stroke-opacity:1"
       id="rect72482"
       width="53.767002"
       height="53.767002"
       x="-177.95528"
       y="415.57938"
       transform="rotate(-38.487143)" />
    <rect
       style="fill:#6d3515;fill-opacity:1;fill-rule:evenodd;stroke:#351a1b;stroke-width:7.99996;stroke-linecap:round;stroke-linejoin:round;stroke-miterlimit:4;stroke-dasharray:none;stroke-dashoffset:3779.53;stroke-opacity:1"
       id="rect72484"
       width="53.767002"
       height="53.767002"
       x="-178.20795"
       y="500.18442"
       transform="rotate(-38.487143)" />
    <path
       style="fill:#351a1b;stroke:#351a1b;stroke-width:8;stroke-linecap:round;stroke-linejoin:round;stroke-opacity:1;stroke-miterlimit:4;stroke-dasharray:none;fill-opacity:1"
       d="m 150.16213,500.93755 66.49775,-52.94384"
       id="path72714" />
    <rect
       style="fill:#6d3515;fill-opacity:1;fill-rule:evenodd;stroke:#351a1b;stroke-width:7.99996;stroke-linecap:round;stroke-linejoin:round;stroke-miterlimit:4;stroke-dasharray:none;stroke-dashoffset:3779.53;stroke-opacity:1"
       id="rect77085"
       width="53.767002"
       height="53.767002"
       x="841.41022"
       y="396.09232"
       transform="rotate(-13.233025)" />
    <rect
       style="fill:#6d3515;fill-opacity:1;fill-rule:evenodd;stroke:#351a1b;stroke-width:7.99996;stroke-linecap:round;stroke-linejoin:round;stroke-miterlimit:4;stroke-dasharray:none;stroke-dashoffset:3779.53;stroke-opacity:1"
       id="rect85498"
       width="53.767002"
       height="53.767002"
       x="-283.68188"
       y="249.18855"
       transform="rotate(-57.636847)" />
    <rect
       style="fill:#6d3515;fill-opacity:1;fill-rule:evenodd;stroke:#351a1b;stroke-width:7.99996;stroke-linecap:round;stroke-linejoin:round;stroke-miterlimit:4;stroke-dasharray:none;stroke-dashoffset:3779.53;stroke-opacity:1"
       id="rect85500"
       width="53.767002"
       height="53.767002"
       x="-369.59933"
       y="249.57426"
       transform="rotate(-57.636847)" />
  </g>
</svg>
