<?xml version="1.0" encoding="UTF-8" standalone="no"?>
<!-- Created with Inkscape (http://www.inkscape.org/) -->

<svg
   xmlns:dc="http://purl.org/dc/elements/1.1/"
   xmlns:cc="http://creativecommons.org/ns#"
   xmlns:rdf="http://www.w3.org/1999/02/22-rdf-syntax-ns#"
   xmlns:svg="http://www.w3.org/2000/svg"
   xmlns="http://www.w3.org/2000/svg"
   xmlns:sodipodi="http://sodipodi.sourceforge.net/DTD/sodipodi-0.dtd"
   xmlns:inkscape="http://www.inkscape.org/namespaces/inkscape"
   width="1000"
   height="1000"
   viewBox="0 0 264.58333 264.58334"
   version="1.1"
   id="svg5"
   inkscape:version="0.92.5 (2060ec1f9f, 2020-04-08)"
   sodipodi:docname="chilichocolate.svg">
  <metadata
     id="metadata104">
    <rdf:RDF>
      <cc:Work
         rdf:about="">
        <dc:format>image/svg+xml</dc:format>
        <dc:type
           rdf:resource="http://purl.org/dc/dcmitype/StillImage" />
        <dc:title></dc:title>
      </cc:Work>
    </rdf:RDF>
  </metadata>
  <sodipodi:namedview
     id="namedview7"
     pagecolor="#ffffff"
     bordercolor="#666666"
     borderopacity="1.0"
     inkscape:pageshadow="2"
     inkscape:pageopacity="0.0"
     inkscape:pagecheckerboard="0"
     inkscape:document-units="mm"
     showgrid="false"
     units="px"
     inkscape:object-paths="true"
     inkscape:snap-intersection-paths="true"
     inkscape:snap-midpoints="true"
     inkscape:snap-object-midpoints="true"
     inkscape:snap-page="true"
     inkscape:zoom="0.63446243"
     inkscape:cx="77.230731"
     inkscape:cy="535.09866"
     inkscape:window-width="1920"
     inkscape:window-height="1015"
     inkscape:window-x="0"
     inkscape:window-y="0"
     inkscape:window-maximized="1"
     inkscape:current-layer="layer1" />
  <defs
     id="defs2" />
  <g
     inkscape:label="Livello 1"
     inkscape:groupmode="layer"
     id="layer1">
    <path
       id="path2402"
       style="fill:#c9d6ff;fill-opacity:1;fill-rule:evenodd;stroke:#351a1b;stroke-width:2.99998;stroke-linecap:round;stroke-linejoin:round;stroke-miterlimit:4;stroke-dasharray:none;stroke-opacity:1"
       d="m 179.75069,196.69008 c 36.05929,-16.16675 72.24139,-32.41242 78.0835,-69.0313 5.84211,-36.618904 -18.79967,-61.726869 -52.63562,-50.135549 l -4.71523,15.059391 m 0,0 c 28.37094,-16.915029 47.18999,6.452967 42.16848,35.104968 -8.99679,30.471 -32.8185,41.40815 -60.76983,54.02401 l -2.1313,14.97848" />
    <path
       style="fill:#d6f7ff;fill-opacity:1;stroke:#d6f7ff;stroke-width:0.264582px;stroke-linecap:butt;stroke-linejoin:miter;stroke-opacity:1"
       d="M 68.14973,218.42505 H 176.92164 L 173.45605,247.225 H 71.615312 Z"
       id="path6817" />
    <path
       style="fill:#d6f7ff;fill-opacity:1;stroke:#d6f7ff;stroke-width:0.264582px;stroke-linecap:butt;stroke-linejoin:miter;stroke-opacity:1"
       d="m 34.004048,29.091563 4.355149,11.31892 H 206.39987 L 211.069,29.077594 Z"
       id="path8226" />
    <path
       style="fill:#ffdec4;fill-opacity:1;stroke:#000000;stroke-width:0.264582px;stroke-linecap:butt;stroke-linejoin:miter;stroke-opacity:1"
       d="M 38.359197,40.410483 H 206.39987 L 189.75696,87.208597 H 54.965589 Z"
       id="path8410" />
    <path
       style="fill:#6d3515;fill-opacity:1;stroke:#000000;stroke-width:0.264582px;stroke-linecap:butt;stroke-linejoin:miter;stroke-opacity:1"
       d="M 54.965589,87.208597 78.05298,192.10373 h 88.96573 L 189.75696,87.208597 Z"
       id="path9581" />
    <path
       style="fill:#cd4d44;fill-opacity:1;stroke:#000000;stroke-width:0.264582px;stroke-linecap:butt;stroke-linejoin:miter;stroke-opacity:1"
       d="m 78.663249,218.42505 -0.610257,-26.32126 88.965718,-6e-5 -1.6231,26.32132 z"
       id="path9927" />
    <path
       style="fill:#d6f7ff;stroke:#d6f7ff;stroke-width:0.264583px;stroke-linecap:butt;stroke-linejoin:miter;stroke-opacity:1;fill-opacity:1"
       d="m 165.39561,218.42505 h 11.52603 l 9.15918,-62.70059 8.34811,-40.41159 8.41202,-30.259944 8.71244,-25.090808 8.341,-19.474188 5.63928,-11.410336 -19.82288,5.29e-4 0.68908,11.332464 -8.32146,23.399057 -8.32145,23.399059 -7.8823,28.309917 -5.6206,23.79903 -4.49699,23.49317 -3.3658,22.96119 -2.52395,25.00345 z"
       id="path69589" />
    <path
       style="fill:#ad94ff;fill-opacity:0.335616;stroke:none;stroke-width:0.264582px;stroke-linecap:butt;stroke-linejoin:miter;stroke-opacity:1"
       d="m 136.51889,247.225 c 5.1715,-76.26439 12.96497,-151.260084 37.51578,-218.147406 h 51.49901 C 191.93682,92.082595 183.20468,169.95773 173.45606,247.225 Z"
       id="path14979"
       sodipodi:nodetypes="ccccc" />
    <path
       style="fill:#d6f7ff;fill-opacity:1;stroke:#d6f7ff;stroke-width:0.264583px;stroke-linecap:butt;stroke-linejoin:miter;stroke-opacity:1"
       d="M 79.677437,218.43901 H 68.151407 C 44.584168,58.223812 33.892108,67.794489 19.539378,29.091563 h 14.46467 C 78.220507,156.95286 75.657277,180.34486 79.677437,218.43901 Z"
       id="path51988"
       sodipodi:nodetypes="ccccc" />
    <path
       id="path5819"
       style="fill:none;fill-opacity:1;fill-rule:nonzero;stroke:#351a1b;stroke-width:2.99998;stroke-linecap:round;stroke-linejoin:round;stroke-miterlimit:4;stroke-dasharray:none;stroke-opacity:1"
       d="M 37.863856,40.410483 H 206.39987 m 0,0 c -23.32996,59.338197 -37.5,118.676377 -41.00426,178.014567 M 37.863856,40.410483 C 61.193815,99.74868 75.158992,159.08686 78.663249,218.42505 m 0,0 H 165.39561 M 19.53768,29.077594 C 52.794875,92.850787 62.514237,169.864 71.615312,247.225 M 225.53367,29.077594 C 192.27649,92.850787 182.55713,169.864 173.45605,247.225 m -101.840738,0 h 50.920358 m 0,0 h 50.92038 M 122.53567,29.077594 H 19.537696 m 205.995974,0 h -102.998"
       sodipodi:nodetypes="cccccccccccccccccccc" />
    <path
       style="fill:none;stroke:#351a1b;stroke-width:2.99998;stroke-linecap:round;stroke-linejoin:round;stroke-miterlimit:4;stroke-dasharray:none;stroke-opacity:1"
       d="M 76.426263,192.10373 H 167.6326"
       id="path5934" />
    <path
       style="fill:none;stroke:#351a1b;stroke-width:2.99998;stroke-linecap:round;stroke-linejoin:round;stroke-miterlimit:4;stroke-dasharray:none;stroke-opacity:1"
       d="M 54.301906,87.208597 H 189.75696"
       id="path6049" />
    <path
       style="fill:#cd4d44;fill-opacity:1;stroke:#351a1b;stroke-width:3;stroke-linecap:round;stroke-linejoin:round;stroke-miterlimit:4;stroke-dasharray:none;stroke-opacity:1"
       d="m 132.29611,216.01845 c 0,0 6.84938,14.70272 13.31677,20.32561 6.46739,5.62289 15.55179,10.27205 24.53089,11.56457 8.9791,1.29252 18.47519,0.5089 26.98401,-4.2053 8.50882,-4.7142 16.69181,-15.9246 20.32561,-23.47958 3.6338,-7.55498 4.98266,-13.51347 3.50441,-18.92384 -1.47825,-5.41037 -5.48346,-8.71019 -9.46193,-10.86369 -3.97847,-2.1535 -8.78944,-2.35151 -12.61588,-1.75221 -18.95671,9.8502 -5.93639,41.13368 -33.99283,41.3521 -8.52866,-0.21414 -32.59105,-14.01766 -32.59105,-14.01766 z"
       id="path19910"
       sodipodi:nodetypes="czzzzzzccc" />
    <path
       style="fill:#487833;fill-opacity:1;stroke:#000000;stroke-width:0.264583px;stroke-linecap:butt;stroke-linejoin:miter;stroke-opacity:1"
       d="m 190.77851,196.71075 13.35811,-0.31702 1.7522,13.66721 c 0,0 7.56238,-8.1696 7.56238,-8.1696 l 6.8045,11.42983 1.14224,-9.83802 -2.25674,-6.3109 -6.78734,-6.25317 -6.68699,-2.3243 -6.78688,0.0892 -8.10148,8.02674"
       id="path44467" />
    <path
       style="fill:#2a6528;fill-opacity:1;stroke:none;stroke-width:0.264583px;stroke-linecap:butt;stroke-linejoin:miter;stroke-opacity:1"
       d="m 213.4512,201.89134 -1.09734,-10.97226 5.12245,4.06441 3.92163,8.49966 -0.60625,7.95253 -0.53599,1.88549 z"
       id="path44764" />
    <path
       style="fill:#bb2038;fill-opacity:1;stroke:none;stroke-width:0.264583px;stroke-linecap:butt;stroke-linejoin:miter;stroke-opacity:1"
       d="m 213.4512,201.89134 6.8045,11.42983 -9.51321,17.65388 c -7.00364,7.69581 -13.78939,15.75711 -24.79788,16.73525 -11.69509,2.01577 -20.81856,-0.20325 -29.00818,-3.96007 22.21692,-0.62601 43.76172,-3.90315 56.51477,-41.85889 z"
       id="path45077"
       sodipodi:nodetypes="cccccc" />
    <path
       style="fill:none;stroke:#351a1b;stroke-width:3;stroke-linecap:round;stroke-linejoin:round;stroke-miterlimit:4;stroke-dasharray:none;stroke-opacity:1"
       d="m 190.77851,196.71075 13.35811,-0.31702 1.7522,13.66721 7.56238,-8.1696 6.8045,11.42983"
       id="path32597" />
    <path
       style="fill:none;stroke:#351a1b;stroke-width:3;stroke-linecap:round;stroke-linejoin:round;stroke-miterlimit:4;stroke-dasharray:none;stroke-opacity:1"
       d="m 212.35386,190.91908 c 4.39927,-3.12715 6.02896,-7.36213 5.09637,-12.62203"
       id="path40786"
       sodipodi:nodetypes="cc" />
    <path
       style="fill:none;fill-opacity:1;stroke:#351a1b;stroke-width:3;stroke-linecap:round;stroke-linejoin:round;stroke-miterlimit:4;stroke-dasharray:none;stroke-opacity:1"
       d="m 132.29611,216.01845 c 0,0 6.84938,14.70272 13.31677,20.32561 6.46739,5.62289 15.55179,10.27205 24.53089,11.56457 8.9791,1.29252 18.47519,0.5089 26.98401,-4.2053 8.50882,-4.7142 16.69181,-15.9246 20.32561,-23.47958 3.6338,-7.55498 4.98266,-13.51347 3.50441,-18.92384 -1.47825,-5.41037 -5.48346,-8.71019 -9.46193,-10.86369 -3.97847,-2.1535 -8.78944,-2.35151 -12.61588,-1.75221 -18.95671,9.8502 -5.93639,41.13368 -33.99283,41.3521 -8.52866,-0.21414 -32.59105,-14.01766 -32.59105,-14.01766 z"
       id="path44639"
       sodipodi:nodetypes="czzzzzzccc" />
  </g>
  <g
     inkscape:groupmode="layer"
     id="layer2"
     inkscape:label="Livello 2">
    <path
       style="fill:#8a5335;fill-opacity:1;stroke:#8a5335;stroke-width:0.264582px;stroke-linecap:butt;stroke-linejoin:miter;stroke-opacity:1"
       d="m 99.588719,49.040219 c 0.01568,0.381809 0.422911,0.785054 0.773471,0.921546 0.35056,0.136488 0.79152,0.03099 1.04019,-0.131642 0.24867,-0.162637 0.31796,-0.429489 0.3734,-0.631918 0.0554,-0.202427 0.099,-0.339838 0,-0.526598 -0.099,-0.186759 -0.3504,-0.323301 -0.61343,-0.421279 -0.26306,-0.09797 -0.62177,-0.243185 -0.9335,-0.105316 -0.311755,0.137863 -0.655069,0.513409 -0.640131,0.895216 z"
       id="use14348"
       sodipodi:nodetypes="zzzzzzzz" />
    <path
       style="fill:#8a5335;fill-opacity:1;stroke:#8a5335;stroke-width:0.264582px;stroke-linecap:butt;stroke-linejoin:miter;stroke-opacity:1"
       d="m 99.147034,44.400272 c -0.122663,0.127268 -0.10906,0.297709 0,0.5266 0.109061,0.228893 0.533571,0.56813 0.773463,0.631919 0.239903,0.06379 0.332723,0.03062 0.480093,-0.07899 0.14733,-0.109607 0.29631,-0.34724 0.2667,-0.552928 -0.0295,-0.205689 -0.24936,-0.379859 -0.42675,-0.473938 -0.17735,-0.09408 -0.376965,-0.07068 -0.560095,-0.07898 -0.183113,-0.0083 -0.410792,-0.100922 -0.533411,0.02633 z"
       id="use14350"
       sodipodi:nodetypes="zzzzzzzz" />
    <path
       style="fill:#8a5335;fill-opacity:1;stroke:#8a5335;stroke-width:0.264582px;stroke-linecap:butt;stroke-linejoin:miter;stroke-opacity:1"
       d="m 103.31284,48.888127 c -0.2703,0.118112 -0.26538,0.527007 -0.29339,0.789898 -0.028,0.262893 -0.0599,0.50918 0.10667,0.737238 0.16651,0.228057 0.55633,0.465543 0.85349,0.421279 0.29715,-0.04425 0.49424,-0.409551 0.61345,-0.579259 0.11922,-0.169707 0.19405,-0.158306 0.16002,-0.368618 -0.034,-0.210314 -0.3409,-0.485871 -0.58679,-0.658247 -0.24586,-0.172376 -0.58318,-0.4604 -0.85348,-0.342291 z"
       id="use14352"
       sodipodi:nodetypes="zzzzzzzz" />
    <path
       style="fill:#8a5335;fill-opacity:1;stroke:#8a5335;stroke-width:0.264582px;stroke-linecap:butt;stroke-linejoin:miter;stroke-opacity:1"
       d="m 101.29918,45.374144 c 0.0552,0.228908 0.34283,0.578023 0.61344,0.552929 0.27062,-0.02509 0.45335,-0.385827 0.48008,-0.631916 0.0268,-0.246093 -0.0953,-0.540459 -0.29337,-0.63192 -0.19815,-0.09145 -0.43768,0.02452 -0.58678,0.15798 -0.14907,0.133455 -0.2685,0.324018 -0.21337,0.552927 z"
       id="use14354"
       sodipodi:nodetypes="zzzzzz" />
    <path
       style="fill:#8a5335;fill-opacity:1;stroke:#8a5335;stroke-width:0.264582px;stroke-linecap:butt;stroke-linejoin:miter;stroke-opacity:1"
       d="m 108.02721,45.767225 c 0.0157,0.381809 0.42292,0.785055 0.77348,0.921547 0.35055,0.136487 0.79152,0.03099 1.04018,-0.131642 0.24868,-0.162637 0.31796,-0.42949 0.3734,-0.631917 0.0554,-0.202428 0.099,-0.339841 0,-0.526599 -0.099,-0.186759 -0.3504,-0.323301 -0.61344,-0.421278 -0.26304,-0.09797 -0.62175,-0.243186 -0.93351,-0.105317 -0.31173,0.13786 -0.65505,0.513408 -0.64011,0.895214 z"
       id="use14356"
       sodipodi:nodetypes="zzzzzzzz" />
    <path
       style="fill:#8a5335;fill-opacity:1;stroke:#8a5335;stroke-width:0.264582px;stroke-linecap:butt;stroke-linejoin:miter;stroke-opacity:1"
       d="m 112.56411,50.798267 c -0.12267,0.127267 -0.10906,0.297707 0,0.526597 0.10906,0.228893 0.53355,0.568131 0.77345,0.631918 0.23991,0.06379 0.33274,0.03063 0.48009,-0.07898 0.14735,-0.109609 0.29633,-0.34724 0.26671,-0.552929 -0.0295,-0.205688 -0.24935,-0.379859 -0.42673,-0.473938 -0.17738,-0.09408 -0.37699,-0.07068 -0.56012,-0.07899 -0.18311,-0.0083 -0.41078,-0.100922 -0.5334,0.02633 z"
       id="use14358"
       sodipodi:nodetypes="zzzzzzzz" />
    <path
       style="fill:#8a5335;fill-opacity:1;stroke:#8a5335;stroke-width:0.264582px;stroke-linecap:butt;stroke-linejoin:miter;stroke-opacity:1"
       d="m 111.67387,46.384 c -0.27029,0.118111 -0.26538,0.527007 -0.29338,0.789898 -0.028,0.262892 -0.0599,0.509181 0.10668,0.737238 0.1665,0.228057 0.55632,0.465543 0.85348,0.421278 0.29713,-0.04425 0.49423,-0.409551 0.61344,-0.579258 0.11922,-0.169707 0.19405,-0.158306 0.16002,-0.368618 -0.0341,-0.210314 -0.34089,-0.485873 -0.58677,-0.658248 -0.24588,-0.172376 -0.58319,-0.460398 -0.85349,-0.34229 z"
       id="use14360"
       sodipodi:nodetypes="zzzzzzzz" />
    <path
       style="fill:#8a5335;fill-opacity:1;stroke:#8a5335;stroke-width:0.264582px;stroke-linecap:butt;stroke-linejoin:miter;stroke-opacity:1"
       d="m 113.57189,44.97668 c 0.0552,0.228908 0.34283,0.578021 0.61344,0.552928 0.27062,-0.02508 0.45334,-0.385827 0.48008,-0.631918 0.0268,-0.246093 -0.0952,-0.540458 -0.29337,-0.631918 -0.19815,-0.09145 -0.43768,0.02452 -0.58677,0.15798 -0.14908,0.133455 -0.2685,0.324019 -0.21338,0.552928 z"
       id="use14362"
       sodipodi:nodetypes="zzzzzz" />
    <path
       style="fill:#8a5335;fill-opacity:1;stroke:#8a5335;stroke-width:0.264582px;stroke-linecap:butt;stroke-linejoin:miter;stroke-opacity:1"
       d="m 120.54479,46.346818 c 0.0157,0.381808 0.42291,0.785052 0.77348,0.921546 0.35055,0.136487 0.79151,0.03099 1.04019,-0.131642 0.24866,-0.162639 0.31795,-0.42949 0.37339,-0.631919 0.0555,-0.202428 0.099,-0.339838 0,-0.526598 -0.099,-0.186759 -0.3504,-0.3233 -0.61344,-0.421278 -0.26304,-0.09797 -0.62175,-0.243185 -0.9335,-0.105317 -0.31175,0.137861 -0.65506,0.513407 -0.64012,0.895216 z"
       id="use14364"
       sodipodi:nodetypes="zzzzzzzz" />
    <path
       style="fill:#8a5335;fill-opacity:1;stroke:#8a5335;stroke-width:0.264582px;stroke-linecap:butt;stroke-linejoin:miter;stroke-opacity:1"
       d="m 124.508,48.803137 c -0.27029,0.118112 -0.26539,0.527006 -0.2934,0.789897 -0.028,0.262892 -0.0599,0.509181 0.10667,0.737239 0.16653,0.228056 0.55633,0.465544 0.85349,0.421278 0.29715,-0.04426 0.49425,-0.40955 0.61345,-0.579259 0.11922,-0.169708 0.19404,-0.158306 0.16002,-0.368618 -0.0341,-0.210314 -0.3409,-0.485871 -0.58677,-0.658247 -0.24588,-0.172376 -0.5832,-0.460399 -0.85348,-0.34229 z"
       id="use14366"
       sodipodi:nodetypes="zzzzzzzz" />
    <path
       style="fill:#8a5335;fill-opacity:1;stroke:#8a5335;stroke-width:0.264582px;stroke-linecap:butt;stroke-linejoin:miter;stroke-opacity:1"
       d="m 120.94025,45.366412 c 0.0552,0.228908 0.34284,0.578021 0.61346,0.552929 0.27061,-0.02508 0.45334,-0.385827 0.48008,-0.631918 0.0267,-0.246093 -0.0953,-0.540459 -0.29338,-0.631919 -0.19814,-0.09145 -0.43768,0.02452 -0.58677,0.15798 -0.14906,0.133455 -0.26851,0.32402 -0.21339,0.552928 z"
       id="use14368"
       sodipodi:nodetypes="zzzzzz" />
    <path
       style="fill:#8a5335;fill-opacity:1;stroke:#8a5335;stroke-width:0.264582px;stroke-linecap:butt;stroke-linejoin:miter;stroke-opacity:1"
       d="m 126.83223,44.651481 c -0.12266,0.127268 -0.10907,0.297708 0,0.5266 0.10906,0.228892 0.53355,0.56813 0.77346,0.631917 0.23988,0.06379 0.33272,0.03063 0.48009,-0.07899 0.14734,-0.109608 0.2963,-0.347238 0.26669,-0.552928 -0.0295,-0.205689 -0.24936,-0.379858 -0.42672,-0.473938 -0.17737,-0.09408 -0.37698,-0.07068 -0.56011,-0.07898 -0.18311,-0.0083 -0.41079,-0.100921 -0.53341,0.02633 z"
       id="use14370"
       sodipodi:nodetypes="zzzzzzzz" />
    <path
       style="fill:#8a5335;fill-opacity:1;stroke:#8a5335;stroke-width:0.264582px;stroke-linecap:butt;stroke-linejoin:miter;stroke-opacity:1"
       d="m 124.53895,44.769105 c -0.2703,0.118111 -0.26538,0.527007 -0.29341,0.789898 -0.028,0.262892 -0.0599,0.50918 0.10668,0.737238 0.16652,0.228057 0.55634,0.465543 0.85349,0.421279 0.29716,-0.04425 0.49425,-0.409551 0.61343,-0.579258 0.11923,-0.169708 0.19408,-0.158307 0.16005,-0.368619 -0.0341,-0.210314 -0.34091,-0.485872 -0.58679,-0.658248 -0.24588,-0.172376 -0.5832,-0.460399 -0.85347,-0.34229 z"
       id="use14372"
       sodipodi:nodetypes="zzzzzzzz" />
    <path
       style="fill:#8a5335;fill-opacity:1;stroke:#8a5335;stroke-width:0.264582px;stroke-linecap:butt;stroke-linejoin:miter;stroke-opacity:1"
       d="m 126.50157,47.306879 c 0.0552,0.228907 0.34282,0.578023 0.61344,0.552928 0.27062,-0.02508 0.45335,-0.385826 0.48009,-0.631918 0.0268,-0.246092 -0.0952,-0.540457 -0.29339,-0.631919 -0.19814,-0.09145 -0.43768,0.02452 -0.58677,0.157982 -0.14906,0.133455 -0.26851,0.324018 -0.21337,0.552927 z"
       id="use14374"
       sodipodi:nodetypes="zzzzzz" />
    <path
       style="fill:#8a5335;fill-opacity:1;stroke:#8a5335;stroke-width:0.264582px;stroke-linecap:butt;stroke-linejoin:miter;stroke-opacity:1"
       d="m 127.11248,50.606418 c 0.0157,0.381808 0.42291,0.785054 0.77346,0.921547 0.35055,0.136486 0.79151,0.03098 1.04019,-0.131643 0.24868,-0.162636 0.31795,-0.429489 0.3734,-0.631916 0.0554,-0.202429 0.099,-0.339841 0,-0.5266 -0.099,-0.186759 -0.3504,-0.323301 -0.61345,-0.421278 -0.26303,-0.09797 -0.62174,-0.243186 -0.93351,-0.105317 -0.31173,0.137862 -0.65505,0.513409 -0.64009,0.895216 z"
       id="use14376"
       sodipodi:nodetypes="zzzzzzzz" />
    <path
       style="fill:#8a5335;fill-opacity:1;stroke:#8a5335;stroke-width:0.264582px;stroke-linecap:butt;stroke-linejoin:miter;stroke-opacity:1"
       d="m 125.13742,49.343311 c -0.12266,0.127268 -0.10906,0.297708 0,0.526599 0.10906,0.228891 0.53357,0.56813 0.77345,0.631917 0.23991,0.06379 0.33274,0.03063 0.48009,-0.07898 0.14736,-0.109608 0.29633,-0.34724 0.26672,-0.552929 -0.0296,-0.20569 -0.24938,-0.379859 -0.42674,-0.473939 -0.17737,-0.09408 -0.37699,-0.07068 -0.56011,-0.07899 -0.18311,-0.0083 -0.41077,-0.100921 -0.53341,0.02633 z"
       id="use14378"
       sodipodi:nodetypes="zzzzzzzz" />
    <path
       style="fill:#8a5335;fill-opacity:1;stroke:#8a5335;stroke-width:0.264582px;stroke-linecap:butt;stroke-linejoin:miter;stroke-opacity:1"
       d="m 129.98825,47.275962 c -0.27029,0.118112 -0.26539,0.527007 -0.2934,0.789899 -0.028,0.262892 -0.0599,0.50918 0.10667,0.737237 0.16652,0.228057 0.55634,0.465543 0.85349,0.421278 0.29715,-0.04425 0.49426,-0.40955 0.61343,-0.579259 0.11924,-0.169706 0.19407,-0.158305 0.16005,-0.368617 -0.034,-0.210313 -0.34091,-0.485872 -0.58679,-0.658248 -0.24587,-0.172377 -0.58319,-0.460399 -0.85348,-0.34229 z"
       id="use14380"
       sodipodi:nodetypes="zzzzzzzz" />
    <path
       style="fill:#8a5335;fill-opacity:1;stroke:#8a5335;stroke-width:0.264582px;stroke-linecap:butt;stroke-linejoin:miter;stroke-opacity:1"
       d="m 127.66671,46.387101 c 0.0552,0.228909 0.34282,0.578023 0.61344,0.552928 0.27062,-0.02508 0.45335,-0.385827 0.48009,-0.631917 0.0268,-0.246092 -0.0953,-0.540458 -0.29338,-0.631919 -0.19815,-0.09145 -0.43768,0.02452 -0.58678,0.15798 -0.14906,0.133455 -0.2685,0.324018 -0.21337,0.552928 z"
       id="use14382"
       sodipodi:nodetypes="zzzzzz" />
    <path
       style="fill:#8a5335;fill-opacity:1;stroke:#8a5335;stroke-width:0.264582px;stroke-linecap:butt;stroke-linejoin:miter;stroke-opacity:1"
       d="m 135.5982,49.367929 c 0.0157,0.381808 0.42291,0.785053 0.77347,0.921547 0.35056,0.136487 0.79151,0.03098 1.04018,-0.131643 0.24868,-0.162637 0.31797,-0.429489 0.37339,-0.631918 0.0554,-0.202428 0.099,-0.339839 0,-0.526597 -0.099,-0.186761 -0.35038,-0.323302 -0.61344,-0.421279 -0.26303,-0.09797 -0.62175,-0.243185 -0.93349,-0.105316 -0.31175,0.137861 -0.65507,0.513407 -0.64011,0.895214 z"
       id="use14384"
       sodipodi:nodetypes="zzzzzzzz" />
    <path
       style="fill:#8a5335;fill-opacity:1;stroke:#8a5335;stroke-width:0.264582px;stroke-linecap:butt;stroke-linejoin:miter;stroke-opacity:1"
       d="m 134.69754,50.350392 c -0.12267,0.127268 -0.10906,0.297707 0,0.526598 0.10906,0.228894 0.53356,0.568131 0.77345,0.631918 0.23989,0.06379 0.33274,0.03063 0.48009,-0.07898 0.14735,-0.109609 0.29632,-0.347239 0.2667,-0.552929 -0.0295,-0.205688 -0.24937,-0.379859 -0.42672,-0.473938 -0.17738,-0.09408 -0.37699,-0.07068 -0.56012,-0.07899 -0.1831,-0.0083 -0.41079,-0.100922 -0.5334,0.02633 z"
       id="use14386"
       sodipodi:nodetypes="zzzzzzzz" />
    <path
       style="fill:#8a5335;fill-opacity:1;stroke:#8a5335;stroke-width:0.264582px;stroke-linecap:butt;stroke-linejoin:miter;stroke-opacity:1"
       d="m 134.25527,44.640288 c 0.0552,0.228907 0.34284,0.578023 0.61345,0.552928 0.27062,-0.02509 0.45336,-0.385826 0.48009,-0.631917 0.0268,-0.246092 -0.0952,-0.540459 -0.29338,-0.631919 -0.19815,-0.09145 -0.43768,0.02452 -0.58677,0.157981 -0.14907,0.133455 -0.26851,0.324018 -0.21339,0.552927 z"
       id="use14388"
       sodipodi:nodetypes="zzzzzz" />
    <path
       style="fill:#8a5335;fill-opacity:1;stroke:#8a5335;stroke-width:0.264582px;stroke-linecap:butt;stroke-linejoin:miter;stroke-opacity:1"
       d="m 139.80935,45.590154 c -0.12267,0.127267 -0.10907,0.297708 0,0.526598 0.10906,0.228893 0.53357,0.568131 0.77346,0.631917 0.23989,0.06379 0.33272,0.03063 0.48008,-0.07898 0.14736,-0.109608 0.29632,-0.347239 0.26671,-0.552929 -0.0295,-0.205688 -0.24937,-0.379859 -0.42674,-0.473937 -0.17737,-0.09408 -0.37698,-0.07068 -0.5601,-0.07898 -0.18312,-0.0083 -0.41079,-0.100922 -0.53341,0.02633 z"
       id="use14390"
       sodipodi:nodetypes="zzzzzzzz" />
    <path
       style="fill:#8a5335;fill-opacity:1;stroke:#8a5335;stroke-width:0.264582px;stroke-linecap:butt;stroke-linejoin:miter;stroke-opacity:1"
       d="m 141.10252,43.495261 c -0.27028,0.118111 -0.26537,0.527006 -0.29339,0.789898 -0.028,0.262892 -0.0599,0.509181 0.10667,0.737238 0.16652,0.228057 0.55634,0.465543 0.8535,0.421277 0.29714,-0.04425 0.49423,-0.409549 0.61343,-0.579258 0.11921,-0.169707 0.19407,-0.158305 0.16002,-0.368617 -0.0341,-0.210314 -0.34088,-0.485873 -0.58677,-0.658249 -0.24587,-0.172376 -0.58319,-0.460398 -0.85348,-0.342289 z"
       id="use14392"
       sodipodi:nodetypes="zzzzzzzz" />
    <path
       style="fill:#8a5335;fill-opacity:1;stroke:#8a5335;stroke-width:0.264582px;stroke-linecap:butt;stroke-linejoin:miter;stroke-opacity:1"
       d="m 149.97023,44.299122 c -0.12265,0.127267 -0.10906,0.297706 0,0.526598 0.10906,0.228893 0.53356,0.568131 0.77347,0.631918 0.23988,0.06379 0.33272,0.03063 0.48008,-0.07898 0.14735,-0.109608 0.29632,-0.347238 0.2667,-0.552929 -0.0295,-0.205688 -0.24935,-0.379858 -0.42674,-0.473939 -0.17735,-0.09408 -0.37696,-0.07068 -0.5601,-0.07898 -0.18311,-0.0083 -0.41079,-0.100922 -0.53341,0.02633 z"
       id="use14394"
       sodipodi:nodetypes="zzzzzzzz" />
    <path
       style="fill:#8a5335;fill-opacity:1;stroke:#8a5335;stroke-width:0.264582px;stroke-linecap:butt;stroke-linejoin:miter;stroke-opacity:1"
       d="m 143.88234,48.185 c -0.27029,0.118111 -0.26538,0.527006 -0.29338,0.789898 -0.028,0.262891 -0.0599,0.50918 0.10667,0.737238 0.16653,0.228057 0.55634,0.465543 0.85349,0.421278 0.29717,-0.04426 0.49426,-0.40955 0.61345,-0.579259 0.11923,-0.169707 0.19406,-0.158305 0.16004,-0.368618 -0.0341,-0.210315 -0.34091,-0.485872 -0.58678,-0.658249 -0.24588,-0.172375 -0.5832,-0.460397 -0.85349,-0.342288 z"
       id="use14396"
       sodipodi:nodetypes="zzzzzzzz" />
    <path
       style="fill:#8a5335;fill-opacity:1;stroke:#8a5335;stroke-width:0.264582px;stroke-linecap:butt;stroke-linejoin:miter;stroke-opacity:1"
       d="m 150.69055,45.810869 c 0.0552,0.228908 0.34284,0.578023 0.61345,0.552929 0.27062,-0.02508 0.45336,-0.385826 0.48009,-0.631917 0.0268,-0.246093 -0.0953,-0.540458 -0.29338,-0.631919 -0.19815,-0.09145 -0.43768,0.02452 -0.58678,0.157982 -0.14906,0.133454 -0.26849,0.324018 -0.21338,0.552925 z"
       id="use14398"
       sodipodi:nodetypes="zzzzzz" />
    <path
       style="fill:#8a5335;fill-opacity:1;stroke:#8a5335;stroke-width:0.264582px;stroke-linecap:butt;stroke-linejoin:miter;stroke-opacity:1"
       d="m 150.14461,47.700639 c 0.0157,0.381809 0.42291,0.785055 0.77346,0.921547 0.35057,0.136487 0.79152,0.03099 1.04019,-0.131642 0.24868,-0.162637 0.31797,-0.42949 0.3734,-0.631918 0.0554,-0.202429 0.099,-0.33984 0,-0.526598 -0.099,-0.18676 -0.35039,-0.323301 -0.61345,-0.421278 -0.26304,-0.09797 -0.62175,-0.243185 -0.93349,-0.105317 -0.31175,0.137861 -0.65506,0.513407 -0.64011,0.895214 z"
       id="use14400"
       sodipodi:nodetypes="zzzzzzzz" />
    <path
       style="fill:#8a5335;fill-opacity:1;stroke:#8a5335;stroke-width:0.264582px;stroke-linecap:butt;stroke-linejoin:miter;stroke-opacity:1"
       d="m 154.31137,48.634643 c -0.12264,0.127266 -0.10906,0.297707 0,0.526599 0.10907,0.228891 0.53358,0.56813 0.77347,0.631917 0.2399,0.06379 0.33273,0.03063 0.48008,-0.07898 0.14735,-0.109609 0.29633,-0.34724 0.26672,-0.55293 -0.0295,-0.20569 -0.24936,-0.379858 -0.42675,-0.473939 -0.17736,-0.09408 -0.37697,-0.07068 -0.5601,-0.07898 -0.18311,-0.0083 -0.41078,-0.100922 -0.53342,0.02633 z"
       id="use14402"
       sodipodi:nodetypes="zzzzzzzz" />
    <path
       style="fill:#8a5335;fill-opacity:1;stroke:#8a5335;stroke-width:0.264582px;stroke-linecap:butt;stroke-linejoin:miter;stroke-opacity:1"
       d="m 147.7549,55.545338 c 0.0157,0.381808 0.42291,0.785053 0.77347,0.921545 0.35056,0.136488 0.79152,0.03099 1.04018,-0.131642 0.24868,-0.162637 0.31797,-0.429488 0.37341,-0.631917 0.0555,-0.202427 0.099,-0.33984 0,-0.526599 -0.099,-0.186759 -0.3504,-0.3233 -0.61346,-0.421278 -0.26303,-0.09797 -0.62175,-0.243185 -0.93349,-0.105316 -0.31174,0.137862 -0.65506,0.513407 -0.64011,0.895215 z"
       id="use14404"
       sodipodi:nodetypes="zzzzzzzz" />
    <path
       style="fill:#8a5335;fill-opacity:1;stroke:#8a5335;stroke-width:0.264582px;stroke-linecap:butt;stroke-linejoin:miter;stroke-opacity:1"
       d="m 147.56419,55.110506 c -0.12266,0.127268 -0.10906,0.297706 0,0.526598 0.10907,0.228893 0.53357,0.56813 0.77347,0.631918 0.2399,0.06379 0.33273,0.03063 0.48008,-0.07898 0.14735,-0.10961 0.29633,-0.347241 0.26672,-0.552929 -0.0295,-0.205689 -0.24936,-0.379859 -0.42675,-0.473939 -0.17737,-0.09408 -0.37697,-0.07068 -0.5601,-0.07899 -0.18312,-0.0083 -0.41079,-0.100922 -0.53342,0.02633 z"
       id="use14406"
       sodipodi:nodetypes="zzzzzzzz" />
    <path
       style="fill:#8a5335;fill-opacity:1;stroke:#8a5335;stroke-width:0.264582px;stroke-linecap:butt;stroke-linejoin:miter;stroke-opacity:1"
       d="m 148.45458,54.902749 c -0.27029,0.118111 -0.26537,0.527007 -0.2934,0.789897 -0.028,0.262892 -0.0599,0.509181 0.10667,0.737239 0.16653,0.228056 0.55634,0.465542 0.8535,0.421279 0.29715,-0.04426 0.49424,-0.409551 0.61345,-0.57926 0.11922,-0.169707 0.19405,-0.158306 0.16002,-0.368618 -0.034,-0.210314 -0.3409,-0.485871 -0.58678,-0.658247 -0.24588,-0.172375 -0.5832,-0.460399 -0.85347,-0.34229 z"
       id="use14408"
       sodipodi:nodetypes="zzzzzzzz" />
    <path
       style="fill:#8a5335;fill-opacity:1;stroke:#8a5335;stroke-width:0.264582px;stroke-linecap:butt;stroke-linejoin:miter;stroke-opacity:1"
       d="m 134.07395,53.533793 c -0.12265,0.127268 -0.10906,0.297709 0,0.526599 0.10906,0.228893 0.53357,0.568131 0.77348,0.631919 0.23989,0.06379 0.33272,0.03063 0.48008,-0.07899 0.14734,-0.109608 0.29632,-0.34724 0.26671,-0.552929 -0.0295,-0.205689 -0.24937,-0.379859 -0.42674,-0.473938 -0.17737,-0.09408 -0.37698,-0.07068 -0.56012,-0.07898 -0.18309,-0.0083 -0.41077,-0.100923 -0.53341,0.02633 z"
       id="use14410"
       sodipodi:nodetypes="zzzzzzzz" />
    <path
       style="fill:#8a5335;fill-opacity:1;stroke:#8a5335;stroke-width:0.264582px;stroke-linecap:butt;stroke-linejoin:miter;stroke-opacity:1"
       d="m 136.93732,53.786686 c 0.0552,0.228906 0.34283,0.578022 0.61344,0.552928 0.27062,-0.02508 0.45334,-0.385827 0.48009,-0.631917 0.0268,-0.246093 -0.0952,-0.540459 -0.29338,-0.631919 -0.19815,-0.09145 -0.43769,0.02452 -0.58678,0.157981 -0.14907,0.133455 -0.2685,0.324018 -0.21337,0.552927 z"
       id="use14412"
       sodipodi:nodetypes="zzzzzz" />
    <path
       style="fill:#8a5335;fill-opacity:1;stroke:#8a5335;stroke-width:0.264582px;stroke-linecap:butt;stroke-linejoin:miter;stroke-opacity:1"
       d="m 131.63753,54.633752 c 0.0552,0.228908 0.34283,0.578021 0.61345,0.552928 0.27061,-0.02508 0.45335,-0.385825 0.48008,-0.631917 0.0268,-0.246093 -0.0952,-0.540459 -0.29337,-0.63192 -0.19815,-0.09145 -0.43769,0.02452 -0.58677,0.157981 -0.14907,0.133456 -0.26852,0.32402 -0.21339,0.552928 z"
       id="use14414"
       sodipodi:nodetypes="zzzzzz" />
    <path
       style="fill:#8a5335;fill-opacity:1;stroke:#8a5335;stroke-width:0.264582px;stroke-linecap:butt;stroke-linejoin:miter;stroke-opacity:1"
       d="m 122.48163,57.048797 c -0.12266,0.127269 -0.10907,0.297708 0,0.5266 0.10906,0.228891 0.53357,0.56813 0.77346,0.631916 0.23989,0.06379 0.33272,0.03063 0.48009,-0.07898 0.14734,-0.109609 0.29631,-0.347241 0.2667,-0.552929 -0.0295,-0.205691 -0.24936,-0.37986 -0.42673,-0.47394 -0.17737,-0.09408 -0.37698,-0.07068 -0.56011,-0.07898 -0.18311,-0.0083 -0.41079,-0.100922 -0.53341,0.02633 z"
       id="use14416"
       sodipodi:nodetypes="zzzzzzzz" />
    <path
       style="fill:#8a5335;fill-opacity:1;stroke:#8a5335;stroke-width:0.264582px;stroke-linecap:butt;stroke-linejoin:miter;stroke-opacity:1"
       d="m 126.62203,53.429217 c -0.27028,0.118111 -0.26538,0.527006 -0.29339,0.789898 -0.028,0.262894 -0.0599,0.509181 0.10667,0.737238 0.16651,0.228057 0.55634,0.465543 0.85351,0.421278 0.29713,-0.04425 0.49424,-0.40955 0.61342,-0.579259 0.11922,-0.169707 0.19406,-0.158305 0.16004,-0.368617 -0.0341,-0.210314 -0.3409,-0.485872 -0.58678,-0.658248 -0.24589,-0.172377 -0.58321,-0.460399 -0.85347,-0.34229 z"
       id="use14418"
       sodipodi:nodetypes="zzzzzzzz" />
    <path
       style="fill:#8a5335;fill-opacity:1;stroke:#8a5335;stroke-width:0.264582px;stroke-linecap:butt;stroke-linejoin:miter;stroke-opacity:1"
       d="m 123.49328,51.031416 c 0.0552,0.228907 0.34284,0.578022 0.61344,0.552928 0.27063,-0.02508 0.45336,-0.385826 0.48009,-0.631918 0.0268,-0.246092 -0.0953,-0.540459 -0.29337,-0.631919 -0.19815,-0.09145 -0.43768,0.02452 -0.58679,0.157981 -0.14906,0.133455 -0.2685,0.324019 -0.21337,0.552928 z"
       id="use14420"
       sodipodi:nodetypes="zzzzzz" />
    <path
       style="fill:#8a5335;fill-opacity:1;stroke:#8a5335;stroke-width:0.264582px;stroke-linecap:butt;stroke-linejoin:miter;stroke-opacity:1"
       d="m 124.35378,52.489618 c -0.27029,0.118111 -0.26538,0.527006 -0.2934,0.789898 -0.028,0.262892 -0.0599,0.509181 0.10667,0.737238 0.16651,0.228057 0.55634,0.465543 0.8535,0.421278 0.29713,-0.04425 0.49423,-0.40955 0.61343,-0.579258 0.11921,-0.169708 0.19407,-0.158306 0.16002,-0.368618 -0.0341,-0.210314 -0.34088,-0.485872 -0.58677,-0.658247 -0.24587,-0.172377 -0.58319,-0.460399 -0.85348,-0.342291 z"
       id="use14422"
       sodipodi:nodetypes="zzzzzzzz" />
    <path
       style="fill:#8a5335;fill-opacity:1;stroke:#8a5335;stroke-width:0.264582px;stroke-linecap:butt;stroke-linejoin:miter;stroke-opacity:1"
       d="m 124.82514,52.895586 c 0.0552,0.22891 0.34285,0.578024 0.61345,0.55293 0.27062,-0.02508 0.45335,-0.385827 0.48009,-0.631917 0.0268,-0.246093 -0.0953,-0.540458 -0.29338,-0.631919 -0.19814,-0.09145 -0.43768,0.02452 -0.58678,0.15798 -0.14906,0.133455 -0.2685,0.324019 -0.21338,0.552926 z"
       id="use14424"
       sodipodi:nodetypes="zzzzzz" />
    <path
       style="fill:#8a5335;fill-opacity:1;stroke:#8a5335;stroke-width:0.264582px;stroke-linecap:butt;stroke-linejoin:miter;stroke-opacity:1"
       d="m 116.19935,55.079606 c 0.0155,0.381809 0.42292,0.785055 0.77346,0.921546 0.35055,0.136488 0.79151,0.03099 1.04019,-0.131642 0.24866,-0.162637 0.31795,-0.429488 0.37339,-0.631917 0.0555,-0.202428 0.099,-0.33984 0,-0.526598 -0.099,-0.18676 -0.35039,-0.323301 -0.61343,-0.421279 -0.26306,-0.09797 -0.62175,-0.243185 -0.9335,-0.105316 -0.31174,0.137862 -0.65506,0.513407 -0.64011,0.895216 z"
       id="use14426"
       sodipodi:nodetypes="zzzzzzzz" />
    <path
       style="fill:#8a5335;fill-opacity:1;stroke:#8a5335;stroke-width:0.264582px;stroke-linecap:butt;stroke-linejoin:miter;stroke-opacity:1"
       d="m 118.26831,51.393834 c -0.12266,0.127268 -0.10905,0.297708 0,0.5266 0.10908,0.228892 0.53357,0.56813 0.77347,0.631917 0.23989,0.06379 0.33271,0.03063 0.48008,-0.07899 0.14734,-0.109609 0.29631,-0.347239 0.26671,-0.552928 -0.0295,-0.20569 -0.24937,-0.379859 -0.42674,-0.473939 -0.17736,-0.09408 -0.37697,-0.07068 -0.56009,-0.07898 -0.18313,-0.0083 -0.4108,-0.100921 -0.53343,0.02633 z"
       id="use14428"
       sodipodi:nodetypes="zzzzzzzz" />
    <path
       style="fill:#8a5335;fill-opacity:1;stroke:#8a5335;stroke-width:0.264582px;stroke-linecap:butt;stroke-linejoin:miter;stroke-opacity:1"
       d="m 114.10304,53.760473 c -0.27029,0.118111 -0.26538,0.527006 -0.29339,0.789898 -0.028,0.262891 -0.0599,0.509178 0.10667,0.737237 0.16649,0.228057 0.55632,0.465543 0.85349,0.421279 0.29714,-0.04426 0.49423,-0.409551 0.61344,-0.579259 0.11921,-0.169707 0.19405,-0.158305 0.16001,-0.368619 -0.0341,-0.210314 -0.34088,-0.485871 -0.58677,-0.658247 -0.24587,-0.172376 -0.58319,-0.4604 -0.85348,-0.342289 z"
       id="use14430"
       sodipodi:nodetypes="zzzzzzzz" />
    <path
       style="fill:#8a5335;fill-opacity:1;stroke:#8a5335;stroke-width:0.264582px;stroke-linecap:butt;stroke-linejoin:miter;stroke-opacity:1"
       d="m 113.58299,50.597849 c 0.0552,0.228908 0.34284,0.578024 0.61346,0.552929 0.27061,-0.02508 0.45335,-0.385826 0.48009,-0.631918 0.0268,-0.246094 -0.0953,-0.540458 -0.29339,-0.631919 -0.19815,-0.09145 -0.43769,0.02452 -0.58677,0.157981 -0.14907,0.133455 -0.26851,0.324019 -0.21339,0.552927 z"
       id="use14432"
       sodipodi:nodetypes="zzzzzz" />
    <path
       style="fill:#8a5335;fill-opacity:1;stroke:#8a5335;stroke-width:0.264582px;stroke-linecap:butt;stroke-linejoin:miter;stroke-opacity:1"
       d="m 112.76332,50.398395 c -0.12268,0.127268 -0.10906,0.297709 0,0.5266 0.10906,0.228892 0.53355,0.568131 0.77346,0.631918 0.23989,0.06379 0.33272,0.03063 0.48008,-0.07899 0.14734,-0.109609 0.29632,-0.347241 0.26671,-0.552929 -0.0295,-0.20569 -0.24936,-0.37986 -0.42674,-0.473939 -0.17736,-0.09408 -0.37697,-0.07068 -0.56009,-0.07898 -0.18313,-0.0083 -0.4108,-0.100923 -0.53342,0.02633 z"
       id="use14434"
       sodipodi:nodetypes="zzzzzzzz" />
    <path
       style="fill:#8a5335;fill-opacity:1;stroke:#8a5335;stroke-width:0.264582px;stroke-linecap:butt;stroke-linejoin:miter;stroke-opacity:1"
       d="m 112.6872,49.677628 c -0.27029,0.118111 -0.26537,0.527007 -0.29337,0.789897 -0.028,0.262892 -0.0599,0.509179 0.10667,0.737239 0.16652,0.228055 0.55633,0.465542 0.8535,0.421278 0.29714,-0.04426 0.49423,-0.409551 0.61343,-0.57926 0.11921,-0.169706 0.19407,-0.158305 0.16002,-0.368618 -0.034,-0.210313 -0.34089,-0.485871 -0.58677,-0.658247 -0.24587,-0.172376 -0.58319,-0.4604 -0.85348,-0.342289 z"
       id="use14436"
       sodipodi:nodetypes="zzzzzzzz" />
    <path
       style="fill:#8a5335;fill-opacity:1;stroke:#8a5335;stroke-width:0.264582px;stroke-linecap:butt;stroke-linejoin:miter;stroke-opacity:1"
       d="m 120.27549,56.837334 c 0.0157,0.381808 0.42293,0.785053 0.77347,0.921546 0.35056,0.136487 0.79152,0.03099 1.04019,-0.131643 0.24868,-0.162637 0.31796,-0.429489 0.3734,-0.631917 0.0555,-0.202428 0.099,-0.339838 0,-0.526599 -0.099,-0.186759 -0.3504,-0.3233 -0.61345,-0.421278 -0.26304,-0.09797 -0.62174,-0.243186 -0.93348,-0.105317 -0.31176,0.137863 -0.65508,0.513408 -0.64013,0.895217 z"
       id="use14438"
       sodipodi:nodetypes="zzzzzzzz" />
    <path
       style="fill:#8a5335;fill-opacity:1;stroke:#8a5335;stroke-width:0.264582px;stroke-linecap:butt;stroke-linejoin:miter;stroke-opacity:1"
       d="m 113.7712,51.947349 c -0.27028,0.118111 -0.26538,0.527007 -0.29339,0.789899 -0.028,0.262891 -0.0599,0.509179 0.10667,0.737237 0.16651,0.228057 0.55634,0.465544 0.85349,0.421279 0.29715,-0.04425 0.49426,-0.40955 0.61344,-0.57926 0.11922,-0.169706 0.19406,-0.158305 0.16004,-0.368617 -0.0341,-0.210314 -0.3409,-0.485873 -0.58678,-0.658249 -0.24589,-0.172376 -0.58321,-0.460398 -0.85349,-0.342289 z"
       id="use14440"
       sodipodi:nodetypes="zzzzzzzz" />
    <path
       style="fill:#8a5335;fill-opacity:1;stroke:#8a5335;stroke-width:0.264582px;stroke-linecap:butt;stroke-linejoin:miter;stroke-opacity:1"
       d="m 121.71263,54.890974 c 0.0552,0.22891 0.34283,0.578023 0.61345,0.552929 0.2706,-0.02509 0.45335,-0.385826 0.48009,-0.631916 0.0268,-0.246095 -0.0953,-0.540459 -0.29339,-0.631918 -0.19813,-0.09145 -0.43768,0.02452 -0.58677,0.157979 -0.14907,0.133455 -0.26851,0.32402 -0.21338,0.552926 z"
       id="use14442"
       sodipodi:nodetypes="zzzzzz" />
    <path
       style="fill:#8a5335;fill-opacity:1;stroke:#8a5335;stroke-width:0.264582px;stroke-linecap:butt;stroke-linejoin:miter;stroke-opacity:1"
       d="m 127.46941,54.026141 c -0.12267,0.127269 -0.10906,0.297709 0,0.526601 0.10906,0.22889 0.53355,0.56813 0.77346,0.631915 0.2399,0.06379 0.33273,0.03062 0.48009,-0.07898 0.14734,-0.109609 0.29631,-0.347239 0.26671,-0.552928 -0.0295,-0.20569 -0.24938,-0.37986 -0.42674,-0.473939 -0.17737,-0.09408 -0.37698,-0.07068 -0.56011,-0.07898 -0.18311,-0.0083 -0.41078,-0.100922 -0.53341,0.02633 z"
       id="use14444"
       sodipodi:nodetypes="zzzzzzzz" />
    <path
       style="fill:#8a5335;fill-opacity:1;stroke:#8a5335;stroke-width:0.264582px;stroke-linecap:butt;stroke-linejoin:miter;stroke-opacity:1"
       d="m 127.63872,58.210292 c 0.0552,0.228909 0.34283,0.578023 0.61345,0.552928 0.27062,-0.02508 0.45335,-0.385826 0.48009,-0.631916 0.0268,-0.246093 -0.0953,-0.540458 -0.29339,-0.631919 -0.19815,-0.09145 -0.43768,0.02452 -0.58677,0.157979 -0.14906,0.133455 -0.26851,0.324019 -0.21338,0.552928 z"
       id="use14446"
       sodipodi:nodetypes="zzzzzz" />
    <path
       style="fill:#8a5335;fill-opacity:1;stroke:#8a5335;stroke-width:0.264582px;stroke-linecap:butt;stroke-linejoin:miter;stroke-opacity:1"
       d="m 132.41005,52.325962 c 0.0155,0.381808 0.42291,0.785053 0.77345,0.921546 0.35056,0.136487 0.79152,0.03099 1.04019,-0.131642 0.24868,-0.162637 0.31797,-0.42949 0.37339,-0.631918 0.0555,-0.202427 0.099,-0.33984 0,-0.526598 -0.099,-0.186759 -0.35038,-0.323301 -0.61344,-0.421278 -0.26302,-0.09797 -0.62174,-0.243186 -0.93349,-0.105317 -0.31176,0.137862 -0.65506,0.513408 -0.6401,0.895214 z"
       id="use14448"
       sodipodi:nodetypes="zzzzzzzz" />
    <path
       style="fill:#8a5335;fill-opacity:1;stroke:#8a5335;stroke-width:0.264582px;stroke-linecap:butt;stroke-linejoin:miter;stroke-opacity:1"
       d="m 134.3152,55.288477 c -0.12267,0.127269 -0.10906,0.297709 0,0.526601 0.10907,0.228891 0.53354,0.56813 0.77346,0.631917 0.23989,0.06379 0.33272,0.03062 0.4801,-0.07899 0.14734,-0.109607 0.2963,-0.347237 0.26669,-0.552927 -0.0295,-0.20569 -0.24936,-0.379859 -0.42674,-0.473939 -0.17735,-0.09408 -0.37697,-0.07067 -0.56009,-0.07898 -0.18312,-0.0083 -0.41079,-0.100922 -0.53342,0.02633 z"
       id="use14450"
       sodipodi:nodetypes="zzzzzzzz" />
    <path
       style="fill:#8a5335;fill-opacity:1;stroke:#8a5335;stroke-width:0.264582px;stroke-linecap:butt;stroke-linejoin:miter;stroke-opacity:1"
       d="m 134.80075,52.89965 c -0.27028,0.118111 -0.26538,0.527007 -0.29339,0.789897 -0.028,0.262892 -0.0599,0.50918 0.10667,0.737239 0.16651,0.228056 0.55634,0.465542 0.85351,0.421279 0.29713,-0.04426 0.49423,-0.409551 0.61342,-0.579259 0.11922,-0.169708 0.19406,-0.158307 0.16003,-0.368619 -0.034,-0.210314 -0.34089,-0.485871 -0.58678,-0.658247 -0.24588,-0.172376 -0.5832,-0.4604 -0.85347,-0.34229 z"
       id="use14452"
       sodipodi:nodetypes="zzzzzzzz" />
    <path
       style="fill:#8a5335;fill-opacity:1;stroke:#8a5335;stroke-width:0.264582px;stroke-linecap:butt;stroke-linejoin:miter;stroke-opacity:1"
       d="m 131.84872,55.767976 c 0.0155,0.38181 0.42291,0.785054 0.77347,0.921548 0.35056,0.136485 0.79151,0.03098 1.04019,-0.131644 0.24867,-0.162636 0.31796,-0.429489 0.37339,-0.631917 0.0554,-0.202428 0.099,-0.339839 0,-0.526598 -0.099,-0.18676 -0.3504,-0.3233 -0.61344,-0.421278 -0.26304,-0.09797 -0.62175,-0.243186 -0.9335,-0.105317 -0.31175,0.137861 -0.65506,0.513408 -0.64011,0.895215 z"
       id="use14454"
       sodipodi:nodetypes="zzzzzzzz" />
    <path
       style="fill:#8a5335;fill-opacity:1;stroke:#8a5335;stroke-width:0.264582px;stroke-linecap:butt;stroke-linejoin:miter;stroke-opacity:1"
       d="m 133.63496,51.996144 c -0.12266,0.127268 -0.10906,0.297706 0,0.526598 0.10906,0.228893 0.53354,0.568129 0.77345,0.631918 0.2399,0.06379 0.33274,0.03063 0.48009,-0.07898 0.14735,-0.109609 0.29631,-0.347239 0.2667,-0.552929 -0.0295,-0.205689 -0.24936,-0.379859 -0.42672,-0.473937 -0.17737,-0.09408 -0.37699,-0.07068 -0.56011,-0.07898 -0.18312,-0.0083 -0.41079,-0.100923 -0.53341,0.02633 z"
       id="use14456"
       sodipodi:nodetypes="zzzzzzzz" />
    <path
       style="fill:#8a5335;fill-opacity:1;stroke:#8a5335;stroke-width:0.264582px;stroke-linecap:butt;stroke-linejoin:miter;stroke-opacity:1"
       d="m 129.32359,54.437982 c -0.27028,0.118112 -0.26538,0.527007 -0.2934,0.789899 -0.028,0.262892 -0.0599,0.50918 0.10669,0.737237 0.1665,0.228057 0.55634,0.465543 0.85349,0.421278 0.29714,-0.04425 0.49424,-0.40955 0.61345,-0.579258 0.11921,-0.169708 0.19404,-0.158306 0.16001,-0.368618 -0.0341,-0.210314 -0.3409,-0.485871 -0.58678,-0.658247 -0.24588,-0.172377 -0.58319,-0.4604 -0.85348,-0.342291 z"
       id="use14458"
       sodipodi:nodetypes="zzzzzzzz" />
    <path
       style="fill:#8a5335;fill-opacity:1;stroke:#8a5335;stroke-width:0.264582px;stroke-linecap:butt;stroke-linejoin:miter;stroke-opacity:1"
       d="m 132.78537,52.961813 c 0.0552,0.228908 0.34285,0.578023 0.61344,0.552929 0.27063,-0.02508 0.45336,-0.385827 0.48009,-0.631916 0.0268,-0.246093 -0.0952,-0.540459 -0.29336,-0.63192 -0.19815,-0.09145 -0.43769,0.02452 -0.58679,0.15798 -0.14906,0.133455 -0.26851,0.324018 -0.21338,0.552927 z"
       id="use14460"
       sodipodi:nodetypes="zzzzzz" />
    <path
       style="fill:#8a5335;fill-opacity:1;stroke:#8a5335;stroke-width:0.264582px;stroke-linecap:butt;stroke-linejoin:miter;stroke-opacity:1"
       d="m 132.16432,48.991719 c -0.12266,0.127268 -0.10906,0.297709 0,0.526599 0.10907,0.228893 0.53356,0.568131 0.77347,0.631919 0.23988,0.06379 0.33271,0.03062 0.48009,-0.07898 0.14733,-0.109609 0.2963,-0.34724 0.26669,-0.55293 -0.0295,-0.205689 -0.24936,-0.379859 -0.42674,-0.473938 -0.17735,-0.09408 -0.37696,-0.07068 -0.56009,-0.07898 -0.18311,-0.0083 -0.41079,-0.100922 -0.53342,0.02633 z"
       id="use14462"
       sodipodi:nodetypes="zzzzzzzz" />
    <path
       style="fill:#8a5335;fill-opacity:1;stroke:#8a5335;stroke-width:0.264582px;stroke-linecap:butt;stroke-linejoin:miter;stroke-opacity:1"
       d="m 133.51575,54.655057 c 0.0155,0.381809 0.42292,0.785053 0.77345,0.921549 0.35057,0.136485 0.79152,0.03099 1.0402,-0.131644 0.24867,-0.162636 0.31796,-0.429489 0.3734,-0.631917 0.0555,-0.202428 0.099,-0.339839 0,-0.5266 -0.099,-0.186759 -0.35039,-0.3233 -0.61345,-0.421279 -0.26305,-0.09797 -0.62175,-0.243185 -0.9335,-0.105316 -0.31174,0.137862 -0.65506,0.513408 -0.6401,0.895216 z"
       id="use14464"
       sodipodi:nodetypes="zzzzzzzz" />
    <path
       style="fill:#8a5335;fill-opacity:1;stroke:#8a5335;stroke-width:0.264582px;stroke-linecap:butt;stroke-linejoin:miter;stroke-opacity:1"
       d="m 137.99316,50.389633 c -0.12264,0.127268 -0.10906,0.297709 0,0.5266 0.10907,0.228891 0.53357,0.56813 0.77349,0.631916 0.23989,0.06379 0.33271,0.03063 0.48007,-0.07898 0.14734,-0.109607 0.29632,-0.34724 0.26671,-0.552929 -0.0295,-0.205689 -0.24936,-0.37986 -0.42675,-0.473938 -0.17735,-0.09408 -0.37696,-0.07068 -0.56009,-0.07898 -0.18311,-0.0083 -0.41079,-0.100922 -0.53343,0.02633 z"
       id="use14466"
       sodipodi:nodetypes="zzzzzzzz" />
    <path
       style="fill:#8a5335;fill-opacity:1;stroke:#8a5335;stroke-width:0.264582px;stroke-linecap:butt;stroke-linejoin:miter;stroke-opacity:1"
       d="m 136.93771,48.565479 c -0.2703,0.118111 -0.26538,0.527006 -0.2934,0.789898 -0.028,0.262892 -0.0599,0.50918 0.10667,0.737237 0.16653,0.228057 0.55634,0.465543 0.8535,0.421278 0.29715,-0.04425 0.49424,-0.40955 0.61343,-0.579257 0.11922,-0.169708 0.19407,-0.158306 0.16004,-0.368619 -0.034,-0.210313 -0.3409,-0.485872 -0.58677,-0.658247 -0.24587,-0.172377 -0.58319,-0.460399 -0.85349,-0.34229 z"
       id="use14468"
       sodipodi:nodetypes="zzzzzzzz" />
    <path
       style="fill:#8a5335;fill-opacity:1;stroke:#8a5335;stroke-width:0.264582px;stroke-linecap:butt;stroke-linejoin:miter;stroke-opacity:1"
       d="m 142.21553,53.257965 c 0.0551,0.228908 0.34283,0.578024 0.61344,0.552929 0.27061,-0.02508 0.45334,-0.385827 0.48007,-0.631919 0.0268,-0.246093 -0.0953,-0.540458 -0.29336,-0.631918 -0.19815,-0.09145 -0.43769,0.02452 -0.58678,0.15798 -0.14907,0.133456 -0.26852,0.324019 -0.21337,0.552928 z"
       id="use14470"
       sodipodi:nodetypes="zzzzzz" />
    <path
       style="fill:#8a5335;fill-opacity:1;stroke:#8a5335;stroke-width:0.264582px;stroke-linecap:butt;stroke-linejoin:miter;stroke-opacity:1"
       d="m 97.211711,50.597054 c 0.01568,0.38181 0.422907,0.785054 0.773463,0.921547 0.350547,0.136486 0.791511,0.03099 1.040186,-0.131643 0.248685,-0.162637 0.317962,-0.42949 0.373396,-0.631917 0.05541,-0.202429 0.09897,-0.33984 0,-0.526599 -0.09896,-0.186759 -0.350404,-0.323299 -0.613439,-0.421278 -0.263045,-0.09797 -0.621751,-0.243185 -0.933487,-0.105317 -0.311761,0.137861 -0.655075,0.513408 -0.640119,0.895215 z"
       id="use14472"
       sodipodi:nodetypes="zzzzzzzz" />
    <path
       style="fill:#8a5335;fill-opacity:1;stroke:#8a5335;stroke-width:0.264582px;stroke-linecap:butt;stroke-linejoin:miter;stroke-opacity:1"
       d="m 93.538787,51.063375 c 0.05522,0.228907 0.342834,0.578023 0.613454,0.552928 0.270611,-0.02508 0.453347,-0.385826 0.480079,-0.631916 0.02677,-0.246093 -0.09525,-0.540459 -0.293372,-0.631919 -0.198146,-0.09145 -0.437684,0.02452 -0.586771,0.15798 -0.149069,0.133455 -0.268513,0.324018 -0.21339,0.552927 z"
       id="use14474"
       sodipodi:nodetypes="zzzzzz" />
    <path
       style="fill:#8a5335;fill-opacity:1;stroke:#8a5335;stroke-width:0.264582px;stroke-linecap:butt;stroke-linejoin:miter;stroke-opacity:1"
       d="m 105.43964,50.729576 c 0.0157,0.381808 0.42291,0.785054 0.77345,0.921547 0.35056,0.136486 0.79151,0.03098 1.0402,-0.131644 0.24868,-0.162636 0.31795,-0.429488 0.37339,-0.631916 0.0554,-0.202429 0.099,-0.339839 0,-0.526599 -0.099,-0.186758 -0.35039,-0.3233 -0.61344,-0.421279 -0.26303,-0.09797 -0.62175,-0.243183 -0.93348,-0.105316 -0.31176,0.137862 -0.65509,0.513409 -0.64012,0.895216 z"
       id="use14476"
       sodipodi:nodetypes="zzzzzzzz" />
    <path
       style="fill:#8a5335;fill-opacity:1;stroke:#8a5335;stroke-width:0.264582px;stroke-linecap:butt;stroke-linejoin:miter;stroke-opacity:1"
       d="m 100.81091,52.019847 c -0.12265,0.127268 -0.10906,0.297709 0,0.526599 0.10906,0.228892 0.53357,0.568132 0.77347,0.631917 0.23991,0.06379 0.33273,0.03063 0.48008,-0.07898 0.14735,-0.109608 0.29633,-0.347239 0.26671,-0.552929 -0.0295,-0.205688 -0.24935,-0.379859 -0.42673,-0.473937 -0.17738,-0.09408 -0.37698,-0.07068 -0.56011,-0.07898 -0.18311,-0.0083 -0.41079,-0.100923 -0.53342,0.02633 z"
       id="use14478"
       sodipodi:nodetypes="zzzzzzzz" />
    <path
       style="fill:#8a5335;fill-opacity:1;stroke:#8a5335;stroke-width:0.264582px;stroke-linecap:butt;stroke-linejoin:miter;stroke-opacity:1"
       d="m 104.66703,59.318182 c 0.0156,0.381809 0.42292,0.785055 0.77345,0.921547 0.35057,0.136487 0.79152,0.03099 1.0402,-0.131642 0.24868,-0.162638 0.31797,-0.42949 0.3734,-0.631918 0.0554,-0.202428 0.099,-0.33984 0,-0.526599 -0.099,-0.186758 -0.35039,-0.3233 -0.61345,-0.421279 -0.26304,-0.09797 -0.62174,-0.243184 -0.93349,-0.105316 -0.31176,0.137862 -0.65507,0.513408 -0.64011,0.895216 z"
       id="use14480"
       sodipodi:nodetypes="zzzzzzzz" />
    <path
       style="fill:#8a5335;fill-opacity:1;stroke:#8a5335;stroke-width:0.264582px;stroke-linecap:butt;stroke-linejoin:miter;stroke-opacity:1"
       d="m 109.89508,54.497701 c -0.12266,0.127267 -0.10906,0.297708 0,0.526598 0.10906,0.228894 0.53357,0.568131 0.77346,0.631917 0.23989,0.06379 0.33273,0.03063 0.4801,-0.07898 0.14733,-0.109607 0.2963,-0.34724 0.26669,-0.552929 -0.0295,-0.205688 -0.24936,-0.379858 -0.42673,-0.473938 -0.17736,-0.09408 -0.37698,-0.07068 -0.56011,-0.07898 -0.1831,-0.0083 -0.41078,-0.100922 -0.53341,0.02633 z"
       id="use14482"
       sodipodi:nodetypes="zzzzzzzz" />
    <path
       style="fill:#8a5335;fill-opacity:1;stroke:#8a5335;stroke-width:0.264582px;stroke-linecap:butt;stroke-linejoin:miter;stroke-opacity:1"
       d="m 106.51489,49.834626 c -0.27029,0.118111 -0.26538,0.527006 -0.2934,0.789897 -0.028,0.262891 -0.0599,0.509179 0.10668,0.737238 0.16652,0.228056 0.55634,0.465542 0.8535,0.421279 0.29715,-0.04426 0.49424,-0.409551 0.61343,-0.57926 0.11921,-0.169707 0.19407,-0.158305 0.16003,-0.368618 -0.034,-0.210314 -0.34089,-0.485871 -0.58677,-0.658247 -0.24588,-0.172376 -0.5832,-0.4604 -0.85348,-0.342289 z"
       id="use14484"
       sodipodi:nodetypes="zzzzzzzz" />
    <path
       style="fill:#8a5335;fill-opacity:1;stroke:#8a5335;stroke-width:0.264582px;stroke-linecap:butt;stroke-linejoin:miter;stroke-opacity:1"
       d="m 100.15104,50.582006 c 0.0552,0.228908 0.34284,0.578024 0.61346,0.55293 0.2706,-0.02509 0.45335,-0.385827 0.48008,-0.631918 0.0268,-0.246093 -0.0952,-0.540458 -0.29338,-0.631919 -0.19814,-0.09145 -0.43768,0.02452 -0.58677,0.157981 -0.14906,0.133455 -0.26851,0.324019 -0.21339,0.552926 z"
       id="use14486"
       sodipodi:nodetypes="zzzzzz" />
    <path
       style="fill:#8a5335;fill-opacity:1;stroke:#8a5335;stroke-width:0.264582px;stroke-linecap:butt;stroke-linejoin:miter;stroke-opacity:1"
       d="m 136.04571,60.381912 c 0.0155,0.381808 0.42291,0.785053 0.77346,0.921545 0.35057,0.136488 0.79152,0.03099 1.04019,-0.131642 0.24868,-0.162637 0.31797,-0.429489 0.37339,-0.631918 0.0554,-0.202427 0.099,-0.339839 0,-0.526597 -0.099,-0.18676 -0.35038,-0.323302 -0.61344,-0.421279 -0.26304,-0.09797 -0.62175,-0.243185 -0.93349,-0.105316 -0.31175,0.137861 -0.65507,0.513407 -0.64011,0.895215 z"
       id="use14488"
       sodipodi:nodetypes="zzzzzzzz" />
    <path
       style="fill:#8a5335;fill-opacity:1;stroke:#8a5335;stroke-width:0.264582px;stroke-linecap:butt;stroke-linejoin:miter;stroke-opacity:1"
       d="m 139.09792,62.318836 c -0.12267,0.127267 -0.10906,0.297707 0,0.526599 0.10906,0.228891 0.53355,0.56813 0.77346,0.631917 0.23989,0.06379 0.33272,0.03063 0.48008,-0.07898 0.14734,-0.109608 0.29632,-0.347241 0.26671,-0.552929 -0.0295,-0.20569 -0.24936,-0.37986 -0.42674,-0.473939 -0.17735,-0.09408 -0.37697,-0.07068 -0.5601,-0.07898 -0.18313,-0.0083 -0.4108,-0.100923 -0.53341,0.02633 z"
       id="use14490"
       sodipodi:nodetypes="zzzzzzzz" />
    <path
       style="fill:#8a5335;fill-opacity:1;stroke:#8a5335;stroke-width:0.264582px;stroke-linecap:butt;stroke-linejoin:miter;stroke-opacity:1"
       d="m 139.07075,63.0586 c -0.2703,0.11811 -0.26539,0.527005 -0.29341,0.789896 -0.028,0.262892 -0.0599,0.50918 0.10668,0.737238 0.16651,0.228056 0.55634,0.465543 0.85349,0.421278 0.29715,-0.04426 0.49425,-0.409549 0.61343,-0.579259 0.11922,-0.169707 0.19407,-0.158303 0.16005,-0.368618 -0.0341,-0.210314 -0.34091,-0.485871 -0.58679,-0.658247 -0.24588,-0.172375 -0.58319,-0.460399 -0.85348,-0.342288 z"
       id="use14492"
       sodipodi:nodetypes="zzzzzzzz" />
    <path
       style="fill:#8a5335;fill-opacity:1;stroke:#8a5335;stroke-width:0.264582px;stroke-linecap:butt;stroke-linejoin:miter;stroke-opacity:1"
       d="m 134.82688,60.953682 c 0.0552,0.228909 0.34283,0.578022 0.61344,0.552929 0.27062,-0.02509 0.45335,-0.385826 0.48009,-0.631917 0.0268,-0.246093 -0.0952,-0.54046 -0.29339,-0.63192 -0.19814,-0.09145 -0.43768,0.02452 -0.58677,0.157981 -0.14906,0.133455 -0.2685,0.324019 -0.21337,0.552927 z"
       id="use14494"
       sodipodi:nodetypes="zzzzzz" />
    <path
       style="fill:#8a5335;fill-opacity:1;stroke:#8a5335;stroke-width:0.264582px;stroke-linecap:butt;stroke-linejoin:miter;stroke-opacity:1"
       d="m 96.965735,46.529579 c -0.122661,0.127268 -0.109061,0.297708 0,0.526598 0.10906,0.228893 0.533553,0.568132 0.773454,0.631918 0.23991,0.06379 0.33274,0.03062 0.480096,-0.07898 0.147347,-0.109608 0.296324,-0.34724 0.266714,-0.552929 -0.02948,-0.205689 -0.249361,-0.37986 -0.426746,-0.473939 -0.177367,-0.09408 -0.376986,-0.07068 -0.560117,-0.07898 -0.183095,-0.0083 -0.410765,-0.100923 -0.533401,0.02633 z"
       id="use14496"
       sodipodi:nodetypes="zzzzzzzz" />
    <path
       style="fill:#8a5335;fill-opacity:1;stroke:#8a5335;stroke-width:0.264582px;stroke-linecap:butt;stroke-linejoin:miter;stroke-opacity:1"
       d="m 88.108257,46.624454 c -0.270286,0.118112 -0.26538,0.527008 -0.293385,0.789899 -0.02801,0.262892 -0.05988,0.50918 0.106671,0.737237 0.166518,0.228057 0.556329,0.465544 0.853495,0.421279 0.297142,-0.04425 0.494238,-0.40955 0.613443,-0.579257 0.119229,-0.169708 0.194058,-0.158307 0.160018,-0.368619 -0.03404,-0.210313 -0.340891,-0.485871 -0.58677,-0.658247 -0.245879,-0.172376 -0.583197,-0.4604 -0.853484,-0.342292 z"
       id="use14498"
       sodipodi:nodetypes="zzzzzzzz" />
    <path
       style="fill:#8a5335;fill-opacity:1;stroke:#8a5335;stroke-width:0.264582px;stroke-linecap:butt;stroke-linejoin:miter;stroke-opacity:1"
       d="m 90.889141,51.770558 c 0.05522,0.228908 0.342839,0.578022 0.613445,0.552929 0.270617,-0.02509 0.453357,-0.385827 0.480088,-0.631918 0.02675,-0.246092 -0.09528,-0.540459 -0.293375,-0.63192 -0.198143,-0.09145 -0.437681,0.02452 -0.586781,0.157981 -0.149067,0.133455 -0.2685,0.324019 -0.213377,0.552928 z"
       id="use14500"
       sodipodi:nodetypes="zzzzzz" />
    <path
       style="fill:#8a5335;fill-opacity:1;stroke:#8a5335;stroke-width:0.264582px;stroke-linecap:butt;stroke-linejoin:miter;stroke-opacity:1"
       d="m 155.11153,45.376141 c -0.12267,0.127268 -0.10906,0.297708 0,0.526599 0.10906,0.228892 0.53355,0.56813 0.77347,0.631917 0.23989,0.06379 0.33272,0.03063 0.48008,-0.07898 0.14734,-0.109608 0.29632,-0.34724 0.26671,-0.552929 -0.0295,-0.205689 -0.24936,-0.37986 -0.42675,-0.473938 -0.17735,-0.09408 -0.37696,-0.07068 -0.56009,-0.07899 -0.18312,-0.0083 -0.41079,-0.100921 -0.53342,0.02633 z"
       id="use14502"
       sodipodi:nodetypes="zzzzzzzz" />
  </g>
</svg>
