<?xml version="1.0" encoding="UTF-8" standalone="no"?>
<!-- Created with Inkscape (http://www.inkscape.org/) -->

<svg
   width="351.49606"
   height="351.49606"
   viewBox="0 0 92.999998 92.999999"
   version="1.1"
   id="svg274148"
   inkscape:version="1.1.1 (3bf5ae0d25, 2021-09-20)"
   sodipodi:docname="cog.svg"
   xmlns:inkscape="http://www.inkscape.org/namespaces/inkscape"
   xmlns:sodipodi="http://sodipodi.sourceforge.net/DTD/sodipodi-0.dtd"
   xmlns="http://www.w3.org/2000/svg"
   xmlns:svg="http://www.w3.org/2000/svg">
  <sodipodi:namedview
     id="namedview274150"
     pagecolor="#ffffff"
     bordercolor="#666666"
     borderopacity="1.0"
     inkscape:pageshadow="2"
     inkscape:pageopacity="0.0"
     inkscape:pagecheckerboard="0"
     inkscape:document-units="mm"
     showgrid="false"
     units="px"
     inkscape:object-paths="true"
     inkscape:snap-intersection-paths="true"
     inkscape:snap-midpoints="true"
     inkscape:snap-object-midpoints="true"
     fit-margin-top="0"
     fit-margin-left="0"
     fit-margin-right="0"
     fit-margin-bottom="0"
     inkscape:zoom="0.27524473"
     inkscape:cx="297.91669"
     inkscape:cy="-488.65604"
     inkscape:window-width="1680"
     inkscape:window-height="987"
     inkscape:window-x="-8"
     inkscape:window-y="-8"
     inkscape:window-maximized="1"
     inkscape:current-layer="layer3"
     showguides="false" />
  <defs
     id="defs274145" />
  <g
     inkscape:label="Livello 1"
     inkscape:groupmode="layer"
     id="layer1"
     style="display:inline"
     transform="translate(-536.06583,-264.84718)">
    <path
       id="path1183"
       style="opacity:1;fill:#e99947;fill-opacity:1;fill-rule:evenodd;stroke:#e99947;stroke-width:3;stroke-linecap:round;stroke-linejoin:round;stroke-opacity:1"
       d="m 600.56583,311.34718 a 18,18 0 0 1 -18,18 18,18 0 0 1 -18,-18 18,18 0 0 1 18,-18 18,18 0 0 1 18,18 z m 27,0 a 45,45 0 0 1 -45,45 45,45 0 0 1 -45,-45 45,45 0 0 1 45,-45 45,45 0 0 1 45,45 z" />
  </g>
  <g
     inkscape:groupmode="layer"
     id="layer3"
     inkscape:label="Livello 2"
     style="display:inline"
     transform="translate(-536.06583,-264.84718)">
    <path
       id="path46198"
       style="fill:#fff2da;fill-opacity:1;stroke:#fff2da;stroke-width:0.999993;stroke-linecap:round;stroke-linejoin:round;stroke-miterlimit:4;stroke-dasharray:none;stroke-opacity:1"
       d="m 577.57362,276.67286 c 2.09808,-3.63399 6.36837,-4.54006 9.63824,-5.16491 1.09379,3.14422 2.44427,7.29543 0.34618,10.92942 -2.09808,3.63398 -6.36837,4.54004 -9.63824,5.16491 -1.0938,-3.14423 -2.44426,-7.29544 -0.34618,-10.92942 z"
       sodipodi:nodetypes="scscs" />
    <path
       id="path46202"
       style="fill:#fff2da;fill-opacity:1;stroke:#fff2da;stroke-width:0.999993;stroke-linecap:round;stroke-linejoin:round;stroke-miterlimit:4;stroke-dasharray:none;stroke-opacity:1"
       d="m 554.51735,290.35878 c -1.08605,-4.05319 1.2928,-7.71342 3.16311,-10.46741 2.99674,1.44987 6.88701,3.43028 7.97307,7.48347 1.08605,4.05318 -1.29281,7.71342 -3.16312,10.46741 -2.99674,-1.44987 -6.88701,-3.43029 -7.97306,-7.48347 z"
       sodipodi:nodetypes="scscs" />
    <path
       id="path46206"
       style="fill:#fff2da;fill-opacity:1;stroke:#fff2da;stroke-width:0.999993;stroke-linecap:round;stroke-linejoin:round;stroke-miterlimit:4;stroke-dasharray:none;stroke-opacity:1"
       d="m 547.89151,316.3394 c -3.63398,-2.09809 -4.54005,-6.36837 -5.1649,-9.63825 3.14421,-1.09379 7.29543,-2.44426 10.92942,-0.34618 3.63398,2.09808 4.54004,6.36837 5.1649,9.63824 -3.14423,1.0938 -7.29543,2.44427 -10.92942,0.34619 z"
       sodipodi:nodetypes="scscs" />
    <path
       id="path46376"
       style="fill:#fff2da;fill-opacity:1;stroke:#fff2da;stroke-width:0.999993;stroke-linecap:round;stroke-linejoin:round;stroke-miterlimit:4;stroke-dasharray:none;stroke-opacity:1"
       d="m 577.57362,340.25699 c 2.09808,-3.63399 6.36837,-4.54006 9.63824,-5.16491 1.09379,3.14422 2.44427,7.29543 0.34618,10.92942 -2.09808,3.63398 -6.36837,4.54004 -9.63824,5.16491 -1.0938,-3.14423 -2.44426,-7.29544 -0.34618,-10.92942 z"
       sodipodi:nodetypes="scscs" />
    <path
       id="path46380"
       style="fill:#fff2da;fill-opacity:1;stroke:#fff2da;stroke-width:0.999993;stroke-linecap:round;stroke-linejoin:round;stroke-miterlimit:4;stroke-dasharray:none;stroke-opacity:1"
       d="m 611.47564,316.3394 c -3.63399,-2.09809 -4.54006,-6.36837 -5.16491,-9.63825 3.14421,-1.09379 7.29543,-2.44426 10.92942,-0.34618 3.63398,2.09808 4.54004,6.36837 5.1649,9.63824 -3.14423,1.0938 -7.29543,2.44427 -10.92941,0.34619 z"
       sodipodi:nodetypes="scscs" />
    <path
       id="path46386"
       style="fill:#fff2da;fill-opacity:1;stroke:#fff2da;stroke-width:0.999993;stroke-linecap:round;stroke-linejoin:round;stroke-miterlimit:4;stroke-dasharray:none;stroke-opacity:1"
       d="m 599.47813,335.31953 c -1.08605,-4.05319 1.2928,-7.71342 3.16311,-10.46741 2.99674,1.44987 6.88701,3.43028 7.97307,7.48347 1.08605,4.05318 -1.29281,7.71341 -3.16312,10.46741 -2.99674,-1.44987 -6.88701,-3.43029 -7.97306,-7.48347 z"
       sodipodi:nodetypes="scscs" />
    <path
       id="path46390"
       style="fill:#fff2da;fill-opacity:1;stroke:#fff2da;stroke-width:0.999993;stroke-linecap:round;stroke-linejoin:round;stroke-miterlimit:4;stroke-dasharray:none;stroke-opacity:1"
       d="m 561.57743,339.39567 c -4.05319,1.08605 -7.71342,-1.29281 -10.46742,-3.16312 1.44987,-2.99673 3.43028,-6.887 7.48348,-7.97306 4.05318,-1.08605 7.71341,1.29281 10.46741,3.16311 -1.44988,2.99674 -3.43029,6.88701 -7.48347,7.97307 z"
       sodipodi:nodetypes="scscs" />
    <path
       id="path46394"
       style="fill:#fff2da;fill-opacity:1;stroke:#fff2da;stroke-width:0.999993;stroke-linecap:round;stroke-linejoin:round;stroke-miterlimit:4;stroke-dasharray:none;stroke-opacity:1"
       d="m 606.53818,294.43488 c -4.05319,1.08605 -7.71342,-1.2928 -10.46742,-3.16311 1.44987,-2.99673 3.43028,-6.88701 7.48348,-7.97306 4.05318,-1.08606 7.71341,1.29281 10.46741,3.16311 -1.44988,2.99674 -3.43029,6.88701 -7.48347,7.97306 z"
       sodipodi:nodetypes="scscs" />
  </g>
</svg>
