<?xml version="1.0" encoding="UTF-8" standalone="no"?>
<!-- Created with Inkscape (http://www.inkscape.org/) -->

<svg
   width="1000"
   height="1000"
   viewBox="0 0 264.58333 264.58334"
   version="1.1"
   id="svg80536"
   inkscape:version="1.1.1 (3bf5ae0d25, 2021-09-20)"
   sodipodi:docname="coinchocolate.svg"
   xmlns:inkscape="http://www.inkscape.org/namespaces/inkscape"
   xmlns:sodipodi="http://sodipodi.sourceforge.net/DTD/sodipodi-0.dtd"
   xmlns="http://www.w3.org/2000/svg"
   xmlns:svg="http://www.w3.org/2000/svg">
  <sodipodi:namedview
     id="namedview80538"
     pagecolor="#ffffff"
     bordercolor="#666666"
     borderopacity="1.0"
     inkscape:pageshadow="2"
     inkscape:pageopacity="0.0"
     inkscape:pagecheckerboard="0"
     inkscape:document-units="mm"
     showgrid="false"
     units="px"
     inkscape:object-paths="true"
     inkscape:snap-intersection-paths="true"
     inkscape:snap-midpoints="true"
     inkscape:snap-object-midpoints="true"
     inkscape:snap-page="false"
     showguides="false"
     inkscape:snap-smooth-nodes="true"
     inkscape:zoom="0.48881859"
     inkscape:cx="386.6465"
     inkscape:cy="539.05478"
     inkscape:window-width="1680"
     inkscape:window-height="987"
     inkscape:window-x="-8"
     inkscape:window-y="-8"
     inkscape:window-maximized="1"
     inkscape:current-layer="layer1" />
  <defs
     id="defs80533" />
  <g
     inkscape:label="Livello 1"
     inkscape:groupmode="layer"
     id="layer1">
    <path
       id="path81172"
       style="fill:#d6f7ff;fill-opacity:1;stroke:#351a1b;stroke-width:2.99999;stroke-linecap:round;stroke-linejoin:round;stroke-miterlimit:4;stroke-dasharray:none;stroke-opacity:1"
       d="m 66.257895,87.474543 v -30.98692 h 96.369675 v 30.98692 z"
       sodipodi:nodetypes="ccccc" />
    <rect
       style="fill:#d6f7ff;fill-opacity:1;stroke:#351a1b;stroke-width:3;stroke-linecap:round;stroke-linejoin:round;stroke-miterlimit:4;stroke-dasharray:none;stroke-dashoffset:3779.53;stroke-opacity:1"
       id="rect85646"
       width="152.72134"
       height="171.14864"
       x="38.082169"
       y="87.474541"
       rx="31.407398" />
    <path
       style="fill:#f9eee4;fill-opacity:1;stroke:#351a1b;stroke-width:0.264583px;stroke-linecap:butt;stroke-linejoin:miter;stroke-opacity:1"
       d="m 44.652743,138.87738 0.579267,-21.13942 h 138.42146 l 0.57926,21.13915 z"
       id="path90681" />
    <path
       style="fill:#ad94ff;fill-opacity:0.337255;stroke:none;stroke-width:0.264583px;stroke-linecap:butt;stroke-linejoin:miter;stroke-opacity:1"
       d="M 119.60783,87.474543 V 258.62318 h 43.59794 l 9.32072,-2.84871 18.27701,-91.59507 -0.0703,-47.426 -5.07369,-15.14664 -7.11546,-7.65623 -15.9165,-6.475987 z"
       id="path115069" />
    <path
       id="path91706"
       style="fill:#feedc5;fill-opacity:1;stroke:#351a1b;stroke-width:3;stroke-linecap:round;stroke-linejoin:round;stroke-miterlimit:4;stroke-dasharray:none;stroke-opacity:1"
       d="M 67.142178,4.5240965 57.051553,7.2288478 86.652614,117.73783 l 10.815058,-1e-4 z"
       sodipodi:nodetypes="ccccc" />
    <path
       style="fill:#af0000;fill-opacity:1;stroke:none;stroke-width:0.264583px;stroke-linecap:butt;stroke-linejoin:miter;stroke-opacity:1"
       d="m 80.200994,51.924009 -7.386822,12.798772 3.112713,11.620871 7.386879,-12.798833 z"
       id="path94101" />
    <path
       style="fill:#af0000;fill-opacity:1;stroke:none;stroke-width:0.264583px;stroke-linecap:butt;stroke-linejoin:miter;stroke-opacity:1"
       d="M 67.749962,5.4407391 60.363145,18.239509 63.475882,29.86038 70.862717,17.061548 Z"
       id="path92573" />
    <path
       id="path87466"
       style="fill:none;fill-opacity:0.440639;stroke:#351a1b;stroke-width:3;stroke-linecap:round;stroke-linejoin:round;stroke-miterlimit:4;stroke-dasharray:none;stroke-dashoffset:3779.53;stroke-opacity:1"
       d="m 183.65347,117.73796 c 0.37989,1.86973 0.57926,3.80663 0.57926,5.79183 v 99.03817 c 0,15.90795 -12.80238,28.71471 -28.70488,28.71471 H 73.357573 c -15.902445,0 -28.704828,-12.80676 -28.704828,-28.71471 v -99.03817 c 0,-1.9852 0.199376,-3.9221 0.579267,-5.79183" />
    <path
       style="fill:#af0000;fill-opacity:1;stroke:none;stroke-width:0.264583px;stroke-linecap:butt;stroke-linejoin:miter;stroke-opacity:1"
       d="m 73.975486,28.682358 -7.386818,12.798772 3.112724,11.620869 7.386849,-12.79883 z"
       id="path94099" />
    <path
       style="fill:#af0000;fill-opacity:1;stroke:none;stroke-width:0.264583px;stroke-linecap:butt;stroke-linejoin:miter;stroke-opacity:1"
       d="M 86.426529,75.165604 79.039704,87.964376 82.152456,99.58524 89.539284,86.786415 Z"
       id="path94103" />
    <path
       style="fill:#ad94ff;fill-opacity:0.337255;stroke:none;stroke-width:0.264583px;stroke-linecap:butt;stroke-linejoin:miter;stroke-opacity:1"
       d="M 162.62757,56.487622 V 87.474543 H 132.26011 V 56.487622 Z"
       id="path114639" />
    <path
       id="path91998"
       style="fill:none;fill-opacity:1;stroke:#351a1b;stroke-width:2.99999;stroke-linecap:round;stroke-linejoin:round;stroke-miterlimit:4;stroke-dasharray:none;stroke-opacity:1"
       d="m 66.257895,87.474543 v -30.98692 h 96.369675 v 30.98692 z"
       sodipodi:nodetypes="ccccc" />
    <rect
       style="fill:#64c2e2;fill-opacity:1;stroke:#351a1b;stroke-width:3;stroke-linecap:round;stroke-linejoin:round;stroke-miterlimit:4;stroke-dasharray:none;stroke-dashoffset:3779.53;stroke-opacity:1"
       id="rect86810"
       width="108.13906"
       height="12.68276"
       x="60.373291"
       y="65.639694"
       rx="6.798481" />
    <path
       style="fill:#ad94ff;fill-opacity:0.337255;stroke:none;stroke-width:0.264583px;stroke-linecap:butt;stroke-linejoin:miter;stroke-opacity:1"
       d="M 129.29552,78.322453 V 65.639694 l 34.335,0.05076 4.33159,3.536624 0.55023,2.753993 -1.54188,4.379374 -3.06146,1.863306 z"
       id="path117449" />
    <path
       id="path94105"
       style="fill:#af0000;fill-opacity:1;stroke:none;stroke-width:0.264583px;stroke-linecap:butt;stroke-linejoin:miter;stroke-opacity:1"
       d="m 91.315097,117.73784 4.449686,-7.70977 -3.112744,-11.620817 v 0 l -7.386818,12.798777 1.749556,6.53164" />
    <path
       id="path94209"
       style="fill:none;fill-opacity:1;stroke:#351a1b;stroke-width:3;stroke-linecap:round;stroke-linejoin:round;stroke-miterlimit:4;stroke-dasharray:none;stroke-opacity:1"
       d="m 76.094774,78.322525 10.55784,39.415305 10.815058,-1e-4 L 86.90987,78.322468" />
    <path
       id="path94041"
       style="fill:none;fill-opacity:1;stroke:#351a1b;stroke-width:3;stroke-linecap:round;stroke-linejoin:round;stroke-miterlimit:4;stroke-dasharray:none;stroke-opacity:1"
       d="M 83.512555,65.639317 67.142178,4.5240965 v 0 L 57.051555,7.2288478 72.697457,65.639356" />
    <path
       style="fill:none;stroke:#351a1b;stroke-width:3;stroke-linecap:round;stroke-linejoin:round;stroke-miterlimit:4;stroke-dasharray:none;stroke-opacity:1"
       d="M 45.23201,117.73796 H 183.65347"
       id="path87662" />
    <path
       style="mix-blend-mode:multiply;fill:#8a5335;fill-opacity:1;stroke:#351a1b;stroke-width:0.264583px;stroke-linecap:butt;stroke-linejoin:miter;stroke-opacity:1"
       d="M 44.652743,138.87711 H 184.23273 l -0.0422,85.26802 -2.09405,9.3495 -3.31933,5.95893 -9.3317,8.25646 -8.09611,2.98672 -90.025198,0.51566 -10.333954,-2.70566 -9.056667,-6.7886 -4.953567,-7.76813 -2.166549,-8.31159 z"
       id="path90309" />
    <path
       style="fill:none;stroke:#351a1b;stroke-width:3;stroke-linecap:butt;stroke-linejoin:round;stroke-miterlimit:4;stroke-dasharray:none;stroke-opacity:1"
       d="M 44.652743,138.87711 H 184.23273"
       id="path87813" />
    <path
       id="path89488"
       style="fill:#c8d6ff;fill-opacity:1;stroke:#351a1b;stroke-width:3;stroke-linecap:round;stroke-linejoin:round;stroke-miterlimit:4;stroke-dasharray:none;stroke-opacity:1"
       d="m 219.72337,219.00367 c 7.06809,0 12.75831,-5.19575 12.75831,-11.64966 v -67.65355 c 0,-6.45394 -5.69022,-11.64969 -12.75831,-11.64969 l -28.90166,2e-5 -0.0184,11.35377 20.79484,-1e-5 c 4.99619,0 9.01842,3.89858 9.01842,8.74119 v 50.76296 c 0,4.84262 -4.02223,8.74119 -9.01842,8.74119 H 190.8033 l 0.0184,11.35378 z"
       sodipodi:nodetypes="ssssccssssccs" />
    <path
       id="path115227"
       style="fill:none;fill-opacity:0.440639;stroke:#351a1b;stroke-width:3;stroke-linecap:round;stroke-linejoin:round;stroke-miterlimit:4;stroke-dasharray:none;stroke-dashoffset:3779.53;stroke-opacity:1"
       d="m 183.65347,117.73796 c 0.37989,1.86973 0.57926,3.80663 0.57926,5.79183 v 99.03817 c 0,15.90795 -12.80238,28.71471 -28.70488,28.71471 H 73.357573 c -15.902445,0 -28.704828,-12.80676 -28.704828,-28.71471 v -99.03817 c 0,-1.9852 0.199376,-3.9221 0.579267,-5.79183" />
    <rect
       style="fill:none;fill-opacity:1;stroke:#351a1b;stroke-width:3;stroke-linecap:round;stroke-linejoin:round;stroke-miterlimit:4;stroke-dasharray:none;stroke-dashoffset:3779.53;stroke-opacity:1"
       id="rect115249"
       width="152.72134"
       height="171.14864"
       x="38.082169"
       y="87.474541"
       rx="31.407398" />
    <rect
       style="fill:#6f3e05;fill-opacity:1;stroke:#351a1b;stroke-width:3;stroke-linecap:round;stroke-linejoin:round;stroke-miterlimit:4;stroke-dasharray:none;stroke-dashoffset:3779.53;stroke-opacity:1"
       id="rect94787"
       width="37.175575"
       height="6.5242281"
       x="172.21571"
       y="181.90553"
       rx="3.3457849" />
    <path
       id="path96071"
       style="fill:#d08d4d;fill-opacity:1;stroke:#351a1b;stroke-width:3;stroke-linecap:round;stroke-linejoin:round;stroke-miterlimit:4;stroke-dasharray:none;stroke-opacity:1"
       d="m 215.27709,164.1794 c -5.33894,-1.22127 -7.77403,6.00375 -12.2368,6.06029 -4.46278,0.0566 -7.52686,-6.06029 -12.2368,-6.06029 -4.70995,0 -8.9484,6.78084 -12.23681,6.06029 -3.28838,-0.72056 -9.18224,-7.60858 -12.23679,-6.06029 l 11.93075,17.72614 h 25.08571 z"
       sodipodi:nodetypes="cssscccc" />
    <path
       id="path99444"
       style="fill:#d08d4d;fill-opacity:1;stroke:#351a1b;stroke-width:3;stroke-linecap:round;stroke-linejoin:round;stroke-miterlimit:4;stroke-dasharray:none;stroke-opacity:1"
       d="m 174.6826,188.42977 h 32.24178 m -32.24178,0 c 0,0 -29.26223,32.20875 -19.21305,53.91428 10.04917,21.70553 60.61872,21.70553 70.66789,0 10.04917,-21.70553 -19.21306,-53.91428 -19.21306,-53.91428" />
    <path
       style="fill:#bd7433;fill-opacity:1;stroke:none;stroke-width:0.264583px;stroke-linecap:butt;stroke-linejoin:miter;stroke-opacity:1"
       d="m 190.8035,188.42977 h 16.12088 l 11.7052,15.96517 6.67232,13.44672 2.4857,10.274 c -0.0259,20.79854 -10.04688,25.45622 -21.34425,28.05273 l -15.63985,2.4548 c 5.62096,-15.43675 15.19006,-25.28171 0,-70.19343"
       id="path121173"
       sodipodi:nodetypes="cccccccc" />
    <path
       id="path121291"
       style="fill:none;fill-opacity:1;stroke:#351a1b;stroke-width:3;stroke-linecap:round;stroke-linejoin:round;stroke-miterlimit:4;stroke-dasharray:none;stroke-opacity:1"
       d="m 174.6826,188.42977 h 32.24178 m -32.24178,0 c 0,0 -29.26223,32.20875 -19.21305,53.91428 10.04917,21.70553 60.61872,21.70553 70.66789,0 10.04917,-21.70553 -19.21306,-53.91428 -19.21306,-53.91428" />
    <ellipse
       style="fill:#8a5335;fill-opacity:1;stroke:#351a1b;stroke-width:3;stroke-linecap:round;stroke-linejoin:round;stroke-miterlimit:4;stroke-dasharray:none;stroke-dashoffset:3779.53;stroke-opacity:1"
       id="path103590"
       cx="81.364037"
       cy="285.37552"
       transform="matrix(0.94392882,-0.33014904,0.33015956,0.94392514,0,0)"
       rx="18.115152"
       ry="18.114901" />
    <path
       style="fill:#cccccc;fill-opacity:1;stroke:#351a1b;stroke-width:0.264583px;stroke-linecap:butt;stroke-linejoin:miter;stroke-opacity:1"
       d="m 153.92187,248.49147 34.1988,-11.9614 -28.91728,19.70991 -5.28152,-7.74851"
       id="path104223" />
    <path
       style="fill:#582c19;fill-opacity:1;stroke:none;stroke-width:0.264583px;stroke-linecap:butt;stroke-linejoin:miter;stroke-opacity:1"
       d="m 188.12069,236.53007 -12.13487,4.24429 c -0.074,-10.95608 -6.0679,-12.39488 -10.94535,-15.36269 l 10.07605,-0.54681 6.01353,3.19932 5.71641,5.63064 z"
       id="path128121"
       sodipodi:nodetypes="ccccccc" />
    <path
       style="fill:none;stroke:#351a1b;stroke-width:3;stroke-linecap:butt;stroke-linejoin:round;stroke-miterlimit:4;stroke-dasharray:none;stroke-opacity:1"
       d="m 188.12067,236.53007 -28.91752,19.7097"
       id="path104090" />
    <path
       style="fill:none;stroke:#351a1b;stroke-width:3;stroke-linecap:butt;stroke-linejoin:round;stroke-miterlimit:4;stroke-dasharray:none;stroke-opacity:1"
       d="m 188.12067,236.53007 -34.1988,11.9614"
       id="path103957" />
    <path
       style="fill:#ffe142;fill-opacity:1;stroke:#351a1b;stroke-width:0.264583px;stroke-linecap:butt;stroke-linejoin:miter;stroke-opacity:1"
       d="m 188.12067,236.53007 1.01533,6.11012 -2.41713,8.91174 -7.66862,7.19726 -6.38224,1.80145 -10.3001,-2.1254 -2.24152,-1.44194 27.20766,-18.87008 z"
       id="path105258" />
    <path
       id="path105905"
       style="fill:none;fill-opacity:1;stroke:#ffb400;stroke-width:2.1;stroke-linecap:round;stroke-linejoin:round;stroke-miterlimit:4;stroke-dasharray:none;stroke-dashoffset:3779.53;stroke-opacity:1"
       d="m 183.67709,239.56304 a 12.994563,12.994332 0 0 1 -8.36562,15.21341 12.994563,12.994332 0 0 1 -11.66113,-1.56411" />
    <path
       style="mix-blend-mode:multiply;fill:none;fill-opacity:1;stroke:none;stroke-width:0.264583px;stroke-linecap:butt;stroke-linejoin:miter;stroke-opacity:1"
       d="M 44.652743,138.87711 H 184.23273 l -0.0422,85.26802 -2.09405,9.3495 -3.31933,5.95893 -9.3317,8.25646 -8.09611,2.98672 -90.025198,0.51566 -10.333954,-2.70566 -9.056667,-6.7886 -4.953567,-7.76813 -2.166549,-8.31159 z"
       id="path115229" />
    <path
       style="fill:none;stroke:#351a1b;stroke-width:3;stroke-linecap:butt;stroke-linejoin:round;stroke-miterlimit:4;stroke-dasharray:none;stroke-opacity:1"
       d="m 188.12067,236.53007 -28.91752,19.7097"
       id="path113998" />
    <ellipse
       style="fill:none;fill-opacity:1;stroke:#351a1b;stroke-width:3;stroke-linecap:round;stroke-linejoin:round;stroke-miterlimit:4;stroke-dasharray:none;stroke-dashoffset:3779.53;stroke-opacity:1"
       id="circle104341"
       cx="81.364037"
       cy="285.37552"
       transform="matrix(0.94392882,-0.33014904,0.33015956,0.94392514,0,0)"
       rx="18.115152"
       ry="18.114901" />
    <path
       style="fill:none;stroke:#351a1b;stroke-width:3;stroke-linecap:round;stroke-linejoin:round;stroke-miterlimit:4;stroke-dasharray:none;stroke-opacity:1"
       d="M 45.23201,117.73796 H 183.65347"
       id="path115223" />
    <rect
       style="fill:none;fill-opacity:1;stroke:#351a1b;stroke-width:3;stroke-linecap:round;stroke-linejoin:round;stroke-miterlimit:4;stroke-dasharray:none;stroke-dashoffset:3779.53;stroke-opacity:1"
       id="rect117675"
       width="108.13906"
       height="12.68276"
       x="60.373287"
       y="65.639694"
       rx="6.798481" />
    <path
       style="fill:#bd7433;fill-opacity:1;stroke:none;stroke-width:0.264583px;stroke-linecap:butt;stroke-linejoin:miter;stroke-opacity:1"
       d="m 215.27709,164.1794 -11.93074,17.72614 H 187.2664 c 10.19816,-1.38718 7.58167,-10.48491 28.01069,-17.72614"
       id="path118042"
       sodipodi:nodetypes="cccc" />
    <path
       id="path120717"
       style="fill:none;fill-opacity:1;stroke:#351a1b;stroke-width:3;stroke-linecap:round;stroke-linejoin:round;stroke-miterlimit:4;stroke-dasharray:none;stroke-opacity:1"
       d="m 215.27709,164.1794 c -5.33894,-1.22127 -7.77403,6.00375 -12.2368,6.06029 -4.46278,0.0566 -7.52686,-6.06029 -12.2368,-6.06029 -4.70995,0 -8.9484,6.78084 -12.23681,6.06029 -3.28838,-0.72056 -9.18224,-7.60858 -12.23679,-6.06029 l 11.93075,17.72614 h 25.08571 z"
       sodipodi:nodetypes="cssscccc" />
    <path
       style="fill:#582c19;fill-opacity:1;stroke:none;stroke-width:0.264583px;stroke-linecap:butt;stroke-linejoin:miter;stroke-opacity:1"
       d="m 195.30637,181.90554 c 4.05475,3.39114 1.39645,4.7684 0,6.52422 l 11.61801,1e-5 2.46691,-3.26213 c 0,0 -1.34732,-3.06628 -2.5257,-3.1642 -1.17836,-0.0979 -11.55922,-0.0979 -11.55922,-0.0979 z"
       id="path123680"
       sodipodi:nodetypes="ccccscc" />
    <rect
       style="fill:none;fill-opacity:1;stroke:#351a1b;stroke-width:3;stroke-linecap:round;stroke-linejoin:round;stroke-miterlimit:4;stroke-dasharray:none;stroke-dashoffset:3779.53;stroke-opacity:1"
       id="rect123798"
       width="37.175575"
       height="6.5242281"
       x="172.21571"
       y="181.90553"
       rx="3.3457849" />
    <path
       style="fill:#ffe142;fill-opacity:1;stroke:#351a1b;stroke-width:0.264583px;stroke-linecap:butt;stroke-linejoin:miter;stroke-opacity:1"
       d="m 221.49761,222.52472 -8.93842,5.75664 -2.32664,8.59255 2.48354,8.3873 5.94382,8.43256 7.83966,4.99234 4.79888,-0.1937 c 0,0 8.35337,-4.74233 8.35337,-4.74233 l -7.89759,0.13978 -5.76935,-3.38675 -5.81205,-6.93853 -3.42363,-11.59118 1.2335,-5.77858 z"
       id="path190078" />
    <path
       style="fill:none;stroke:#ffb400;stroke-width:2;stroke-linecap:butt;stroke-linejoin:round;stroke-miterlimit:4;stroke-dasharray:none;stroke-opacity:1"
       d="m 210.74733,232.90531 6.61863,-3.82121"
       id="path192484" />
    <path
       style="fill:none;stroke:#ffb400;stroke-width:2;stroke-linecap:butt;stroke-linejoin:round;stroke-miterlimit:4;stroke-dasharray:none;stroke-opacity:1"
       d="m 211.84239,241.59018 6.61863,-3.8212"
       id="path192584" />
    <path
       style="fill:none;stroke:#ffb400;stroke-width:2;stroke-linecap:butt;stroke-linejoin:round;stroke-miterlimit:4;stroke-dasharray:none;stroke-opacity:1"
       d="m 216.46021,250.85505 6.61865,-3.8212"
       id="path192586" />
    <path
       style="fill:none;stroke:#ffb400;stroke-width:2;stroke-linecap:butt;stroke-linejoin:round;stroke-miterlimit:4;stroke-dasharray:none;stroke-opacity:1"
       d="m 223.59854,257.51237 6.61865,-3.82121"
       id="path192588" />
    <ellipse
       style="fill:#ffe142;fill-opacity:1;stroke:#351a1b;stroke-width:3.00178;stroke-linecap:round;stroke-linejoin:round;stroke-miterlimit:4;stroke-dasharray:none;stroke-dashoffset:3779.53;stroke-opacity:1"
       id="circle176891"
       cx="78.817963"
       cy="318.16153"
       transform="matrix(0.88659659,-0.46254349,0.50522635,0.86298687,0,0)"
       rx="11.787178"
       ry="18.062578" />
    <ellipse
       style="fill:none;fill-opacity:1;stroke:#ffb400;stroke-width:2.00114;stroke-linecap:round;stroke-linejoin:round;stroke-miterlimit:4;stroke-dasharray:none;stroke-dashoffset:3779.53;stroke-opacity:1"
       id="circle177013"
       cx="78.978409"
       cy="318.19156"
       transform="matrix(0.88637472,-0.46296853,0.50478665,0.86324414,0,0)"
       rx="8.174715"
       ry="12.53464" />
    <path
       style="fill:none;stroke:#351a1b;stroke-width:3;stroke-linecap:round;stroke-linejoin:round;stroke-miterlimit:4;stroke-dasharray:none;stroke-opacity:1"
       d="m 214.21966,226.73284 c -12.54441,9.2895 7.05372,37.84502 18.05706,31.27518"
       id="path185535"
       sodipodi:nodetypes="cc" />
    <path
       style="fill:none;stroke:#351a1b;stroke-width:3;stroke-linecap:round;stroke-linejoin:round;stroke-miterlimit:4;stroke-dasharray:none;stroke-opacity:1"
       d="m 239.65182,253.75008 -7.3751,4.25794"
       id="path186109" />
    <path
       style="fill:none;stroke:#351a1b;stroke-width:3;stroke-linecap:round;stroke-linejoin:round;stroke-miterlimit:4;stroke-dasharray:none;stroke-opacity:1"
       d="m 221.59477,222.47491 -7.37511,4.25794"
       id="path186191" />
  </g>
</svg>
