<?xml version="1.0" encoding="UTF-8" standalone="no"?>
<!-- Created with Inkscape (http://www.inkscape.org/) -->

<svg
   xmlns:dc="http://purl.org/dc/elements/1.1/"
   xmlns:cc="http://creativecommons.org/ns#"
   xmlns:rdf="http://www.w3.org/1999/02/22-rdf-syntax-ns#"
   xmlns:svg="http://www.w3.org/2000/svg"
   xmlns="http://www.w3.org/2000/svg"
   xmlns:sodipodi="http://sodipodi.sourceforge.net/DTD/sodipodi-0.dtd"
   xmlns:inkscape="http://www.inkscape.org/namespaces/inkscape"
   width="167.43893mm"
   height="178.71429mm"
   viewBox="0 0 167.43893 178.71429"
   version="1.1"
   id="svg5"
   inkscape:version="0.92.5 (2060ec1f9f, 2020-04-08)"
   sodipodi:docname="logochoccy.svg">
  <metadata
     id="metadata25">
    <rdf:RDF>
      <cc:Work
         rdf:about="">
        <dc:format>image/svg+xml</dc:format>
        <dc:type
           rdf:resource="http://purl.org/dc/dcmitype/StillImage" />
        <dc:title></dc:title>
      </cc:Work>
    </rdf:RDF>
  </metadata>
  <sodipodi:namedview
     id="namedview7"
     pagecolor="#ffffff"
     bordercolor="#666666"
     borderopacity="1.0"
     inkscape:pageshadow="2"
     inkscape:pageopacity="0.0"
     inkscape:pagecheckerboard="0"
     inkscape:document-units="mm"
     showgrid="false"
     inkscape:object-paths="true"
     inkscape:snap-intersection-paths="true"
     inkscape:snap-midpoints="true"
     inkscape:snap-center="false"
     inkscape:snap-object-midpoints="true"
     showguides="true"
     inkscape:guide-bbox="true"
     inkscape:zoom="3.4708827"
     inkscape:cx="480.96272"
     inkscape:cy="299.97935"
     inkscape:window-width="1920"
     inkscape:window-height="1015"
     inkscape:window-x="0"
     inkscape:window-y="0"
     inkscape:window-maximized="1"
     inkscape:current-layer="layer2"
     fit-margin-top="0"
     fit-margin-left="0"
     fit-margin-right="0"
     fit-margin-bottom="0" />
  <defs
     id="defs2" />
  <g
     inkscape:groupmode="layer"
     id="layer3"
     inkscape:label="Livello 3"
     transform="translate(-23.47524,-46.369916)">
    <path
       id="path5957"
       style="fill:#f8d29f;fill-opacity:1;fill-rule:evenodd;stroke:#351a1b;stroke-width:3;stroke-linecap:round;stroke-linejoin:round;stroke-miterlimit:4;stroke-dasharray:none;stroke-opacity:1"
       d="m 49.087342,154.72358 c -22.580984,3.22066 -17.384756,37.28978 9.352577,31.77191 M 47.821668,143.60835 c -35.756658,7.36269 -29.035214,61.52948 16.490411,52.3291"
       sodipodi:nodetypes="cccc" />
    <path
       style="fill:#fff2da;fill-opacity:1;stroke:none;stroke-width:0.264583px;stroke-linecap:butt;stroke-linejoin:miter;stroke-opacity:1"
       d="m 48.547051,128.52847 139.982609,-7e-5 c 4.16066,50.90577 -12.88509,80.49187 -52.95643,94.06241 l -34.06979,7e-5 C 52.116626,210.8072 43.113153,151.63396 48.547051,128.52847 Z"
       id="path48715"
       sodipodi:nodetypes="ccccc" />
    <path
       style="fill:#f8d29f;fill-opacity:1;stroke:none;stroke-width:0.264583px;stroke-linecap:butt;stroke-linejoin:miter;stroke-opacity:1"
       d="m 48.547051,128.52847 31.67793,3e-5 c 1.383751,32.77154 9.80897,64.6666 38.313349,94.06234 l -17.03489,4e-5 C 54.468595,204.88703 44.70499,169.86814 48.547051,128.52847 Z"
       id="path49401"
       sodipodi:nodetypes="ccccc" />
    <path
       style="fill:none;stroke:#f8d29f;stroke-width:3;stroke-linecap:round;stroke-linejoin:round;stroke-miterlimit:4;stroke-dasharray:none;stroke-opacity:1"
       d="m 80.32448,130.64785 c 2.185249,31.42186 6.37443,59.38331 36.64468,90.30078"
       id="path43385"
       sodipodi:nodetypes="cc" />
    <path
       style="fill:none;fill-opacity:1;stroke:#351a1b;stroke-width:3;stroke-linecap:round;stroke-linejoin:round;stroke-miterlimit:4;stroke-dasharray:none;stroke-opacity:1"
       d="m 48.547051,128.52847 139.982609,-7e-5 c 0.87217,11.17225 9.53817,73.14352 -52.95643,94.06241 l -34.06979,7e-5 C 45.227726,203.75716 46.427695,152.56022 48.547051,128.52847 Z"
       id="path44549" />
  </g>
  <g
     inkscape:groupmode="layer"
     id="layer2"
     inkscape:label="Livello 2"
     style="display:inline"
     transform="translate(-23.47524,-46.369916)">
    <path
       style="fill:#8a5335;fill-opacity:1;stroke:none;stroke-width:3;stroke-linecap:round;stroke-linejoin:round;stroke-miterlimit:4;stroke-dasharray:none;stroke-opacity:1"
       d="m 166.42511,124.42852 h -47.55105 v 24.66242 c 2.54027,8.69048 13.69082,8.74808 15.75646,0 v -14.06042 c 2.14828,-5.85186 13.29798,-5.85186 15.46764,0 v 33.251 c 5.78012,9.2304 15.93513,5.11415 17.61592,0 v -43.853 z"
       id="path9583"
       sodipodi:nodetypes="cccccccccc" />
    <path
       style="fill:#6d3515;fill-opacity:1;stroke:none;stroke-width:0.26458299px;stroke-linecap:butt;stroke-linejoin:miter;stroke-opacity:1"
       d="m 120.44719,124.42852 c 2.07087,12.08133 0.89205,29.15418 13.46958,24.6352 -4.22284,7.11108 -9.02886,10.19322 -15.75646,0 z"
       id="path73680"
       sodipodi:nodetypes="cccc"
       inkscape:connector-curvature="0" />
    <path
       style="fill:none;stroke:#c4c4d0;stroke-width:3;stroke-linecap:round;stroke-linejoin:round;stroke-miterlimit:4;stroke-dasharray:none;stroke-opacity:1"
       d="m 119.50002,115.41178 c -5.79897,-6.52761 -14.50865,-20.51894 0,-21.173504 h 46.98716 c 16.06902,0.405971 17.93962,-18.397869 0,-20.736157 H 82.676006 c -17.832912,-3.22056 -18.284497,-22.326884 0,-25.632201 h 62.210344"
       id="path57209"
       sodipodi:nodetypes="ccccccc" />
    <path
       style="fill:none;stroke:#c4c4d0;stroke-width:3;stroke-linecap:round;stroke-linejoin:round;stroke-miterlimit:4;stroke-dasharray:none;stroke-opacity:1"
       d="m 91.17037,47.869916 c -16.492131,3.093089 -19.363905,19.876873 0,25.632201"
       id="path57873"
       sodipodi:nodetypes="cc" />
    <path
       style="fill:none;stroke:#c4c4d0;stroke-width:3;stroke-linecap:round;stroke-linejoin:round;stroke-miterlimit:4;stroke-dasharray:none;stroke-opacity:1"
       d="m 162.82601,94.238274 c 12.18619,-2.1686 14.11363,-15.778281 0,-20.736157"
       id="path58119"
       sodipodi:nodetypes="cc" />
    <path
       style="fill:#6d3515;fill-opacity:1;stroke:none;stroke-width:0.26458299px;stroke-linecap:butt;stroke-linejoin:miter;stroke-opacity:1"
       d="m 151.68566,135.03052 c 1.98479,15.9938 -0.5904,35.74229 16.02842,33.251 -1.34599,9.21973 -11.42846,8.85365 -17.61592,0 z"
       id="path78174"
       sodipodi:nodetypes="cccc"
       inkscape:connector-curvature="0" />
    <path
       style="fill:none;fill-opacity:1;stroke:#351a1b;stroke-width:3;stroke-linecap:round;stroke-linejoin:round;stroke-miterlimit:4;stroke-dasharray:none;stroke-opacity:1"
       d="m 166.42511,124.42852 h -47.55105 v 24.66242 c -0.15485,8.69048 15.20009,8.74808 15.75646,0 v -14.06042 c 0.0139,-6.50209 15.4324,-6.5021 15.46764,0 v 33.251 c 0.98125,8.89839 17.54454,9.34151 17.61592,0 v -43.853 z"
       id="path78103"
       sodipodi:nodetypes="cccccccccc"
       inkscape:connector-curvature="0" />
  </g>
  <g
     inkscape:groupmode="layer"
     id="layer4"
     inkscape:label="Livello 4"
     transform="translate(-23.47524,-46.369916)">
    <rect
       style="fill:#8a5335;fill-opacity:1;fill-rule:evenodd;stroke:#351a1b;stroke-width:3;stroke-linecap:round;stroke-linejoin:round;stroke-miterlimit:4;stroke-dasharray:none;stroke-dashoffset:3779.53;stroke-opacity:1;paint-order:normal"
       id="rect59684"
       width="53.239338"
       height="52.750751"
       x="51.778988"
       y="170.83347" />
    <path
       style="fill:#6d3515;fill-opacity:1;stroke:#351a1b;stroke-width:3;stroke-linecap:round;stroke-linejoin:round;stroke-miterlimit:4;stroke-dasharray:none;stroke-opacity:1"
       d="m 57.433675,176.44554 h 17.088618 v 16.92294 H 57.433675 Z"
       id="path66720" />
    <path
       style="fill:#6d3515;fill-opacity:1;stroke:#351a1b;stroke-width:3;stroke-linecap:round;stroke-linejoin:round;stroke-miterlimit:4;stroke-dasharray:none;stroke-opacity:1"
       d="M 82.37649,176.34986 H 99.465106 V 193.2728 H 82.37649 Z"
       id="path73321" />
    <path
       style="fill:#6d3515;fill-opacity:1;stroke:#351a1b;stroke-width:3;stroke-linecap:round;stroke-linejoin:round;stroke-miterlimit:4;stroke-dasharray:none;stroke-opacity:1"
       d="M 57.795005,200.68146 H 74.883623 V 217.6044 H 57.795005 Z"
       id="path73323" />
    <path
       style="fill:#6d3515;fill-opacity:1;stroke:#351a1b;stroke-width:3;stroke-linecap:round;stroke-linejoin:round;stroke-miterlimit:4;stroke-dasharray:none;stroke-opacity:1"
       d="m 82.421407,200.66463 h 17.088616 v 16.92294 H 82.421407 Z"
       id="path73325" />
  </g>
</svg>
