<?xml version="1.0" encoding="UTF-8" standalone="no"?>
<!-- Created with Inkscape (http://www.inkscape.org/) -->

<svg
   width="1000"
   height="1000"
   viewBox="0 0 264.58333 264.58334"
   version="1.1"
   id="svg79686"
   inkscape:version="1.1.1 (3bf5ae0d25, 2021-09-20)"
   sodipodi:docname="marshmellowchocolate.svg"
   xmlns:inkscape="http://www.inkscape.org/namespaces/inkscape"
   xmlns:sodipodi="http://sodipodi.sourceforge.net/DTD/sodipodi-0.dtd"
   xmlns="http://www.w3.org/2000/svg"
   xmlns:svg="http://www.w3.org/2000/svg">
  <sodipodi:namedview
     id="namedview79688"
     pagecolor="#ffffff"
     bordercolor="#666666"
     borderopacity="1.0"
     inkscape:pageshadow="2"
     inkscape:pageopacity="0.0"
     inkscape:pagecheckerboard="0"
     inkscape:document-units="mm"
     showgrid="false"
     units="px"
     inkscape:object-paths="true"
     inkscape:snap-intersection-paths="true"
     inkscape:snap-midpoints="true"
     inkscape:snap-object-midpoints="true"
     inkscape:snap-smooth-nodes="true"
     inkscape:zoom="0.51344899"
     inkscape:cx="640.76473"
     inkscape:cy="641.73853"
     inkscape:window-width="1680"
     inkscape:window-height="987"
     inkscape:window-x="-8"
     inkscape:window-y="-8"
     inkscape:window-maximized="1"
     inkscape:current-layer="layer1" />
  <defs
     id="defs79683" />
  <g
     inkscape:label="Livello 1"
     inkscape:groupmode="layer"
     id="layer1">
    <path
       style="fill:#6a1a29;fill-opacity:1;stroke:#000000;stroke-width:0.264584px;stroke-linecap:butt;stroke-linejoin:miter;stroke-opacity:1"
       d="m 29.847523,40.455137 164.463587,-2e-6 V 242.10113 H 29.847523 Z"
       id="path91120" />
    <path
       style="fill:none;stroke:#ffffff;stroke-width:3;stroke-linecap:round;stroke-linejoin:round;stroke-miterlimit:4;stroke-dasharray:none;stroke-opacity:1"
       d="M 29.47404,163.1268 H 193.93762"
       id="path112413" />
    <path
       id="path112359"
       style="fill:none;stroke:#ffffff;stroke-width:3;stroke-linecap:round;stroke-linejoin:round;stroke-miterlimit:4;stroke-dasharray:none;stroke-opacity:1"
       d="m 187.75679,210.902 5.94155,-12.65959 M 187.75679,172.74194 165.72355,210.902 M 165.11078,172.74194 143.07753,210.902 M 142.46477,172.74194 120.43153,210.902 M 119.81878,172.74194 97.785532,210.902 m 0,-38.16006 L 75.75228,210.902 M 75.139528,172.74194 53.106279,210.902 M 51.880771,172.74194 29.847523,210.902 m 158.522037,-38.16006 5.94155,12.65959 M 165.72355,172.74194 187.75679,210.902 M 143.07753,172.74194 165.11079,210.902 M 120.43153,172.74194 142.46477,210.902 M 97.785532,172.74194 119.81878,210.902 M 75.139528,172.74194 97.172772,210.902 M 52.493525,172.74194 74.526775,210.902 M 29.847523,172.74194 51.880771,210.902 M 29.847523,172.74194 H 194.07182 M 29.847523,210.902 H 194.31111" />
    <path
       style="fill:none;stroke:#ffffff;stroke-width:3;stroke-linecap:round;stroke-linejoin:round;stroke-miterlimit:4;stroke-dasharray:none;stroke-opacity:1"
       d="M 29.47404,220.93295 H 193.93762"
       id="path118229" />
    <path
       style="fill:#560f1d;fill-opacity:0.844749;stroke:none;stroke-width:0.264584px;stroke-linecap:butt;stroke-linejoin:miter;stroke-opacity:1"
       d="m 136.88745,40.530454 57.42367,-0.07538 V 242.10107 h -57.42367 z"
       id="path122265" />
    <path
       id="path89032"
       style="fill:none;fill-opacity:1;fill-rule:evenodd;stroke:#351a1b;stroke-width:3;stroke-linecap:round;stroke-linejoin:round;stroke-dashoffset:3779.53;stroke-opacity:1"
       d="m 29.847524,40.455138 2e-6,201.646002 m 164.463594,0 h -82.2318 m 0,0 H 29.847526 M 194.31112,40.455138 V 242.10114 m 0,-201.646002 h -82.2318 m 0,0 H 29.847524" />
    <path
       id="path86920"
       style="fill:#6d3515;fill-opacity:1;stroke:#351a1b;stroke-width:3;stroke-linecap:round;stroke-linejoin:round;stroke-miterlimit:4;stroke-dasharray:none;stroke-opacity:1"
       d="m 34.047753,40.455137 v 57.712101 c 0.771089,6.706612 12.943762,11.185942 16.687697,0 V 57.395183 c 0.939738,-6.692873 8.958734,-5.520991 9.125854,0 v 20.796481 c 2.03933,8.642303 16.517811,9.734673 18.528248,0 V 64.3728 c 3.208612,-10.469984 18.13874,-8.266916 19.91095,-2.2e-5 v 66.083732 c 3.425048,11.78316 19.236938,11.49649 22.399828,0 V 82.296226 c 0.31915,-6.682549 10.34579,-5.669042 10.23201,0 V 102.2718 c 2.44996,9.19373 14.82166,8.96446 17.42208,0 V 63.141582 c 0.96376,-8.373599 12.2345,-8.766148 13.82704,0 v 18.881013 c 1.70935,8.016712 10.43819,7.549271 11.61474,0 v -30.10017 c -0.12746,-4.584805 6.97162,-5.252503 7.19007,0 v 53.359395 c 1.6518,6.09312 7.51371,5.96557 9.12585,0 V 40.455137 m -156.065617,0 H 190.11212"
       sodipodi:nodetypes="cccccccccccccccccccccccccc" />
    <path
       style="fill:#571f08;fill-opacity:1;stroke:none;stroke-width:0.264584px;stroke-linecap:butt;stroke-linejoin:miter;stroke-opacity:1"
       d="m 50.735449,98.167228 c -8.31918,12.098972 -12.365218,5.442832 -16.687697,0 13.236771,2.886722 14.058041,-20.784846 16.687697,-40.772045 v 40.772045"
       id="path124577"
       sodipodi:nodetypes="cccc" />
    <path
       id="path87916"
       style="fill:#fdf6ec;fill-opacity:1;stroke:#351a1b;stroke-width:3;stroke-linecap:round;stroke-linejoin:round;stroke-miterlimit:4;stroke-dasharray:none;stroke-opacity:1"
       d="M 78.59306,26.004858 H 44.049386 V 40.60577 m 0,-0.150633 H 78.442414 L 78.59306,26.004858"
       sodipodi:nodetypes="cccccc" />
    <path
       style="fill:#ffe8d6;fill-opacity:1;stroke:none;stroke-width:0.264584px;stroke-linecap:butt;stroke-linejoin:miter;stroke-opacity:1"
       d="m 78.442414,40.455135 0.150643,-14.45006 -15.10209,-2.17e-4 v 14.450277 z"
       id="path152120" />
    <path
       style="fill:#fdf6ec;fill-opacity:1;stroke:#351a1b;stroke-width:3;stroke-linecap:round;stroke-linejoin:round;stroke-miterlimit:4;stroke-dasharray:none;stroke-opacity:1"
       d="M 78.593057,26.004858 V 40.455137 H 89.14218 V 25.92954 h 14.23871 V 15.937182 H 63.490967 v 10.067676 z"
       id="path88468" />
    <path
       style="fill:#ffe8d6;fill-opacity:1;stroke:none;stroke-width:0.264584px;stroke-linecap:butt;stroke-linejoin:miter;stroke-opacity:1"
       d="M 83.435933,15.937182 V 40.455137 H 102.28302 V 15.937182 Z"
       id="path167699" />
    <path
       id="path88431"
       style="fill:#fdf6ec;fill-opacity:1;stroke:#351a1b;stroke-width:3;stroke-linecap:round;stroke-linejoin:round;stroke-miterlimit:4;stroke-dasharray:none;stroke-opacity:1"
       d="M 123.68584,25.92954 H 89.142182 v 14.600913 m 0,0 34.393018,-0.150634 0.15064,-14.450279"
       sodipodi:nodetypes="cccccc" />
    <path
       id="path89805"
       style="fill:#58101e;fill-opacity:1;fill-rule:evenodd;stroke:#351a1b;stroke-width:3;stroke-linecap:round;stroke-linejoin:round;stroke-miterlimit:4;stroke-dasharray:none;stroke-opacity:1"
       d="m 194.07182,191.48841 v -18.74647 m 0.23929,-90.706956 v 19.153346 m 0,0 c 18.90224,1.03139 33.74413,16.66704 33.87285,35.68441 0.12874,19.01737 -15.22552,34.59319 -34.11214,35.8692 m 0.23929,-90.706955 a 55.601451,54.727569 0.64565789 0 1 55.17931,54.863265 55.601451,54.727569 0.64565789 0 1 -55.4186,54.59016" />
    <path
       style="fill:#571f08;fill-opacity:1;stroke:none;stroke-width:0.264584px;stroke-linecap:butt;stroke-linejoin:miter;stroke-opacity:1"
       d="M 59.861303,78.191664 C 72.163964,83.580679 74.564515,73.166912 78.389551,64.3728 v 13.818864 c -5.844503,8.169429 -11.939848,10.158643 -18.528248,0 z"
       id="path124939"
       sodipodi:nodetypes="cccc" />
    <path
       style="fill:#571f08;fill-opacity:1;stroke:none;stroke-width:0.264584px;stroke-linecap:butt;stroke-linejoin:miter;stroke-opacity:1"
       d="m 98.300502,130.45651 c 7.910628,12.13946 15.340268,11.12883 22.399828,0 V 82.296223 c -4.77767,20.758747 -1.96382,54.801737 -22.399828,48.160287 z"
       id="path125487"
       sodipodi:nodetypes="cccc" />
    <path
       style="fill:#571f08;fill-opacity:1;stroke:none;stroke-width:0.264584px;stroke-linecap:butt;stroke-linejoin:miter;stroke-opacity:1"
       d="m 130.93234,102.2718 c 15.98703,4.35934 13.48455,-22.890216 17.42208,-39.130219 V 102.2718 c -4.14885,5.94414 -8.36492,11.64731 -17.42208,0 z"
       id="path125769"
       sodipodi:nodetypes="cccc" />
    <path
       style="fill:#571f08;fill-opacity:1;stroke:none;stroke-width:0.264584px;stroke-linecap:butt;stroke-linejoin:miter;stroke-opacity:1"
       d="m 162.18146,82.022592 c 10.13919,6.330902 8.30388,-18.602761 11.61474,-30.100167 v 30.100167 c -3.00275,4.110555 -5.46365,10.784631 -11.61474,0 z"
       id="path125975"
       sodipodi:nodetypes="cccc" />
    <path
       style="fill:#571f08;fill-opacity:1;stroke:none;stroke-width:0.264584px;stroke-linecap:butt;stroke-linejoin:miter;stroke-opacity:1"
       d="m 180.98627,105.28182 c 6.1434,2.97837 7.5535,-23.732038 9.12585,-49.424729 v 49.424729 c -7.20535,8.90583 -6.97615,1.90859 -9.12585,0 z"
       id="path126143"
       sodipodi:nodetypes="cccc" />
    <path
       id="path135403"
       style="fill:none;fill-opacity:1;stroke:#351a1b;stroke-width:3;stroke-linecap:round;stroke-linejoin:round;stroke-miterlimit:4;stroke-dasharray:none;stroke-opacity:1"
       d="m 34.047753,40.455137 v 57.712101 c 0.771089,6.706612 12.943762,11.185942 16.687697,0 V 57.395183 c 0.939738,-6.692873 8.958734,-5.520991 9.125854,0 v 20.796481 c 2.03933,8.642303 16.517811,9.734673 18.528248,0 V 64.3728 c 3.208612,-10.469984 18.13874,-8.266916 19.91095,-2.2e-5 v 66.083732 c 3.425048,11.78316 19.236938,11.49649 22.399828,0 V 82.296226 c 0.31915,-6.682549 10.34579,-5.669042 10.23201,0 V 102.2718 c 2.44996,9.19373 14.82166,8.96446 17.42208,0 V 63.141582 c 0.96376,-8.373599 12.2345,-8.766148 13.82704,0 v 18.881013 c 1.70935,8.016712 10.43819,7.549271 11.61474,0 v -30.10017 c -0.12746,-4.584805 6.97162,-5.252503 7.19007,0 v 53.359395 c 1.6518,6.09312 7.51371,5.96557 9.12585,0 V 40.455137 m -156.065617,0 H 190.11212"
       sodipodi:nodetypes="cccccccccccccccccccccccccc" />
    <path
       style="fill:#ffe8d6;fill-opacity:1;stroke:none;stroke-width:0.264584px;stroke-linecap:butt;stroke-linejoin:miter;stroke-opacity:1"
       d="m 123.5352,40.37971 0.15064,-14.450059 -15.10209,-2.19e-4 v 14.450277 z"
       id="path158584" />
    <path
       id="path158544"
       style="fill:none;fill-opacity:1;stroke:#351a1b;stroke-width:3;stroke-linecap:round;stroke-linejoin:round;stroke-miterlimit:4;stroke-dasharray:none;stroke-opacity:1"
       d="M 123.68584,25.92954 H 89.142182 v 14.600913 m 0,0 34.393018,-0.150634 0.15064,-14.450279"
       sodipodi:nodetypes="cccccc" />
    <path
       style="fill:#fdf6ec;fill-opacity:1;stroke:#351a1b;stroke-width:3;stroke-linecap:round;stroke-linejoin:round;stroke-miterlimit:4;stroke-dasharray:none;stroke-opacity:1"
       d="m 116.05614,25.92954 v -7.594207 h 41.65782 v 7.594207 l -7.63292,1e-6 v 14.525595 l -26.54584,-0.07542 0.15064,-14.450169 z"
       id="path158621" />
    <path
       style="fill:#ffe8d6;fill-opacity:1;stroke:none;stroke-width:0.264584px;stroke-linecap:butt;stroke-linejoin:miter;stroke-opacity:1"
       d="M 141.20475,40.524788 V 18.335333 h 16.50921 v 22.167781 z"
       id="path172144" />
    <path
       style="fill:none;fill-opacity:1;stroke:#351a1b;stroke-width:3;stroke-linecap:round;stroke-linejoin:round;stroke-miterlimit:4;stroke-dasharray:none;stroke-opacity:1"
       d="M 78.593057,26.004858 V 40.455137 H 89.14218 V 25.92954 h 14.23871 V 15.937182 H 63.490967 v 10.067676 z"
       id="path172071" />
    <path
       style="fill:none;fill-opacity:1;stroke:#351a1b;stroke-width:3;stroke-linecap:round;stroke-linejoin:round;stroke-miterlimit:4;stroke-dasharray:none;stroke-opacity:1"
       d="m 116.05614,25.92954 v -7.594207 h 41.65782 v 7.594207 l -7.63292,1e-6 v 14.525595 l -26.54584,-0.07542 0.15064,-14.450169 z"
       id="path172091" />
    <path
       id="path158564"
       style="fill:#fdf6ec;fill-opacity:1;stroke:#351a1b;stroke-width:3;stroke-linecap:round;stroke-linejoin:round;stroke-miterlimit:4;stroke-dasharray:none;stroke-opacity:1"
       d="m 184.62472,25.854223 h -34.54368 v 14.600913 m 0,0 34.39302,-0.150636 0.15066,-14.450277"
       sodipodi:nodetypes="cccccc" />
    <path
       style="fill:#ffe8d6;fill-opacity:1;stroke:none;stroke-width:0.264584px;stroke-linecap:butt;stroke-linejoin:miter;stroke-opacity:1"
       d="m 184.47408,40.304282 0.15064,-14.450059 -15.1021,-2.18e-4 v 14.450277 z"
       id="path158462" />
    <path
       id="path88433"
       style="fill:none;fill-opacity:1;stroke:#351a1b;stroke-width:3;stroke-linecap:round;stroke-linejoin:round;stroke-miterlimit:4;stroke-dasharray:none;stroke-opacity:1"
       d="m 184.62471,25.854223 h -34.54367 v 14.600913 m 0,0 34.39302,-0.150636 0.15065,-14.450277"
       sodipodi:nodetypes="cccccc" />
    <path
       id="path181234"
       style="fill:#d08d4d;fill-opacity:1;fill-rule:evenodd;stroke:#351a1b;stroke-width:3.02221;stroke-linecap:round;stroke-linejoin:round;stroke-dashoffset:3779.53"
       d="m 174.53122,189.55886 -19.87629,38.83877 c -1.92781,3.24097 -2.0003,7.27621 -0.18376,10.58567 1.81655,3.30947 5.24613,5.39037 8.99687,5.45886 3.75074,0.0684 7.25281,-1.88582 9.19337,-5.1268 16.85787,-31.60315 15.58556,-29.16276 32.83141,0 1.93419,3.24097 5.43627,5.19529 9.187,5.12679 3.75074,-0.0684 7.18032,-2.14938 8.99687,-5.45886 1.81654,-3.30946 1.74405,-7.34469 -0.17739,-10.58566 l -19.86991,-38.83877 m 0,0 25.15377,-0.0297 c 4.69087,0.0268 8.58974,-3.64132 8.67392,-8.23924 0.0842,-4.59792 -3.67795,-8.39908 -8.5209,-8.53796 l -31.90363,-0.02 c 5.94534,-2.93448 9.70676,-8.90618 9.70676,-15.43312 v 0 c 1e-5,-9.55751 -7.93597,-17.30541 -17.72551,-17.30541 -9.78952,0 -17.72551,7.7479 -17.72551,17.30541 0,6.52697 3.76149,12.49873 9.70882,15.43315 l -31.77267,0.02 c -4.84296,0.1389 -8.60508,3.94004 -8.52091,8.53796 0.0842,4.59792 3.98305,8.26598 8.67393,8.23925 l 25.15376,0.0297"
       sodipodi:nodetypes="ccssccssccccsccssssccscc" />
    <path
       style="fill:none;stroke:#fffdd2;stroke-width:2.99999;stroke-linecap:butt;stroke-linejoin:round;stroke-miterlimit:4;stroke-dasharray:none;stroke-opacity:1"
       d="m 228.78316,172.69167 v 16.83747"
       id="path181252" />
    <path
       style="fill:none;stroke:#fffdd2;stroke-width:2.99999;stroke-linecap:butt;stroke-linejoin:round;stroke-miterlimit:4;stroke-dasharray:none;stroke-opacity:1"
       d="m 223.51206,228.39764 -18.01924,10.91772"
       id="path181238" />
    <path
       style="opacity:0.5;fill:#c17431;fill-opacity:1;stroke:none;stroke-width:0.264584px;stroke-linecap:butt;stroke-linejoin:miter;stroke-opacity:1"
       d="m 205.49282,239.31536 c 22.32634,-7.87847 4.38815,-32.57148 -1.86343,-49.7565 l 19.86991,38.83877 c 3.69521,17.55889 -11.61428,19.65756 -18.00648,10.91773 z"
       id="path224197"
       sodipodi:nodetypes="cccc" />
    <path
       style="opacity:0.5;fill:#c17431;fill-opacity:1;stroke:none;stroke-width:0.264584px;stroke-linecap:butt;stroke-linejoin:miter;stroke-opacity:1"
       d="m 212.98436,172.74192 c 3.02173,0.002 15.95181,0.0105 15.95181,0.0105 13.09743,2.65565 9.55192,16.27402 -0.15301,16.7772 6.07048,-11.0556 -6.4805,-13.57449 -15.7988,-16.78721 z"
       id="path225220"
       sodipodi:nodetypes="cccc" />
    <path
       style="fill:none;stroke:#fffdd2;stroke-width:2.99999;stroke-linecap:butt;stroke-linejoin:round;stroke-miterlimit:4;stroke-dasharray:none;stroke-opacity:1"
       d="m 154.64216,228.39764 18.01925,10.91772"
       id="path181240" />
    <path
       style="opacity:0.5;fill:#c17431;fill-opacity:1;stroke:none;stroke-width:0.264584px;stroke-linecap:butt;stroke-linejoin:miter;stroke-opacity:1"
       d="m 183.3982,220.56602 -10.73679,18.74934 c -9.7555,11.08476 -23.83704,2.00899 -18.01925,-10.91772 -1.45186,6.29483 6.15605,19.7403 28.75604,-7.83162 z"
       id="path224843"
       sodipodi:nodetypes="cccc" />
    <path
       style="opacity:0.5;fill:#c17431;fill-opacity:1;stroke:none;stroke-width:0.264584px;stroke-linecap:butt;stroke-linejoin:miter;stroke-opacity:1"
       d="m 197.03255,172.73193 c 4.87877,-2.51123 19.54424,-16.09678 0.0508,-30.84534 8.18483,11.62561 6.26987,21.59641 -0.0508,30.84534 z"
       id="path225483"
       sodipodi:nodetypes="ccc" />
    <path
       style="fill:none;stroke:#fffdd2;stroke-width:2.99999;stroke-linecap:butt;stroke-linejoin:round;stroke-miterlimit:4;stroke-dasharray:none;stroke-opacity:1"
       d="M 149.22444,172.75194 V 189.5894"
       id="path181254" />
    <path
       id="path194538"
       style="fill:none;fill-opacity:1;fill-rule:evenodd;stroke:#351a1b;stroke-width:3.02221;stroke-linecap:round;stroke-linejoin:round;stroke-dashoffset:3779.53"
       d="m 174.53122,189.55886 -19.87629,38.83877 c -1.92781,3.24097 -2.0003,7.27621 -0.18376,10.58567 1.81655,3.30947 5.24613,5.39037 8.99687,5.45886 3.75074,0.0684 7.25281,-1.88582 9.19337,-5.1268 16.85787,-31.60315 15.58556,-29.16276 32.83141,0 1.93419,3.24097 5.43627,5.19529 9.187,5.12679 3.75074,-0.0684 7.18032,-2.14938 8.99687,-5.45886 1.81654,-3.30946 1.74405,-7.34469 -0.17739,-10.58566 l -19.86991,-38.83877 m 0,0 25.15377,-0.0297 c 4.69087,0.0268 8.58974,-3.64132 8.67392,-8.23924 0.0842,-4.59792 -3.67795,-8.39908 -8.5209,-8.53796 l -31.90363,-0.02 c 5.94534,-2.93448 9.70676,-8.90618 9.70676,-15.43312 v 0 c 1e-5,-9.55751 -7.93597,-17.30541 -17.72551,-17.30541 -9.78952,0 -17.72551,7.7479 -17.72551,17.30541 0,6.52697 3.76149,12.49873 9.70882,15.43315 l -31.77267,0.02 c -4.84296,0.1389 -8.60508,3.94004 -8.52091,8.53796 0.0842,4.59792 3.98305,8.26598 8.67393,8.23925 l 25.15376,0.0297"
       sodipodi:nodetypes="ccssccssccccsccssssccscc" />
    <ellipse
       style="fill:#fffdd2;fill-opacity:1;fill-rule:evenodd;stroke:#fffdd2;stroke-width:3;stroke-linecap:round;stroke-linejoin:round;stroke-miterlimit:4;stroke-dasharray:none;stroke-dashoffset:3779.53;stroke-opacity:1"
       id="path196345"
       cx="188.5618"
       cy="186.39064"
       rx="3.1845183"
       ry="3.1885998" />
    <ellipse
       style="fill:#fffdd2;fill-opacity:1;fill-rule:evenodd;stroke:#fffdd2;stroke-width:3;stroke-linecap:round;stroke-linejoin:round;stroke-miterlimit:4;stroke-dasharray:none;stroke-dashoffset:3779.53;stroke-opacity:1"
       id="circle198852"
       cx="188.5618"
       cy="201.30846"
       rx="3.1845183"
       ry="3.1885998" />
    <path
       style="fill:none;stroke:#fffdd2;stroke-width:3;stroke-linecap:round;stroke-linejoin:round;stroke-miterlimit:4;stroke-dasharray:none;stroke-opacity:1"
       d="m 178.82794,157.2988 v -2.39787 4.6197"
       id="path199082" />
    <path
       style="fill:none;fill-opacity:1;stroke:#fffdd2;stroke-width:3;stroke-linecap:round;stroke-linejoin:round;stroke-miterlimit:4;stroke-dasharray:none;stroke-opacity:1"
       d="m 199.53824,157.38683 v -2.39788 4.61969"
       id="path199200" />
    <path
       style="fill:none;stroke:#fffdd2;stroke-width:3;stroke-linecap:round;stroke-linejoin:round;stroke-miterlimit:4;stroke-dasharray:none;stroke-opacity:1"
       d="m 182.51944,159.03406 c 4.1917,3.48234 8.71499,3.42622 13.18653,0"
       id="path211708"
       sodipodi:nodetypes="cc" />
    <ellipse
       style="opacity:1;fill:#c17431;fill-opacity:1;fill-rule:evenodd;stroke:none;stroke-width:3;stroke-linecap:butt;stroke-linejoin:round;stroke-miterlimit:4;stroke-dasharray:none;stroke-dashoffset:3779.53;stroke-opacity:1"
       id="path235335"
       cx="206.34799"
       cy="220.73502"
       rx="1.1387359"
       ry="1.1386567" />
    <ellipse
       style="opacity:1;fill:#c17431;fill-opacity:1;fill-rule:evenodd;stroke:none;stroke-width:3;stroke-linecap:butt;stroke-linejoin:round;stroke-miterlimit:4;stroke-dasharray:none;stroke-dashoffset:3779.53;stroke-opacity:1"
       id="circle235653"
       cx="215.93256"
       cy="238.65413"
       rx="1.1387359"
       ry="1.1386567" />
    <ellipse
       style="opacity:1;fill:#c17431;fill-opacity:1;fill-rule:evenodd;stroke:none;stroke-width:3;stroke-linecap:butt;stroke-linejoin:round;stroke-miterlimit:4;stroke-dasharray:none;stroke-dashoffset:3779.53;stroke-opacity:1"
       id="circle235859"
       cx="173.25134"
       cy="222.83435"
       rx="1.1387359"
       ry="1.1386567" />
    <ellipse
       style="opacity:1;fill:#c17431;fill-opacity:1;fill-rule:evenodd;stroke:none;stroke-width:3;stroke-linecap:butt;stroke-linejoin:round;stroke-miterlimit:4;stroke-dasharray:none;stroke-dashoffset:3779.53;stroke-opacity:1"
       id="circle235941"
       cx="176.54602"
       cy="206.63968"
       rx="1.1387359"
       ry="1.1386567" />
    <ellipse
       style="opacity:1;fill:#c17431;fill-opacity:1;fill-rule:evenodd;stroke:none;stroke-width:3;stroke-linecap:butt;stroke-linejoin:round;stroke-miterlimit:4;stroke-dasharray:none;stroke-dashoffset:3779.53;stroke-opacity:1"
       id="circle236023"
       cx="198.93494"
       cy="199.06715"
       rx="1.1387359"
       ry="1.1386567" />
    <ellipse
       style="opacity:1;fill:#c17431;fill-opacity:1;fill-rule:evenodd;stroke:none;stroke-width:3;stroke-linecap:butt;stroke-linejoin:round;stroke-miterlimit:4;stroke-dasharray:none;stroke-dashoffset:3779.53;stroke-opacity:1"
       id="circle236105"
       cx="204.47601"
       cy="183.24738"
       rx="1.1387359"
       ry="1.1386567" />
    <ellipse
       style="opacity:1;fill:#c17431;fill-opacity:1;fill-rule:evenodd;stroke:none;stroke-width:3;stroke-linecap:butt;stroke-linejoin:round;stroke-miterlimit:4;stroke-dasharray:none;stroke-dashoffset:3779.53;stroke-opacity:1"
       id="circle236187"
       cx="220.80161"
       cy="178.97787"
       rx="1.1387359"
       ry="1.1386567" />
    <ellipse
       style="opacity:1;fill:#c17431;fill-opacity:1;fill-rule:evenodd;stroke:none;stroke-width:3;stroke-linecap:butt;stroke-linejoin:round;stroke-miterlimit:4;stroke-dasharray:none;stroke-dashoffset:3779.53;stroke-opacity:1"
       id="circle236269"
       cx="180.58951"
       cy="179.2737"
       rx="1.1387359"
       ry="1.1386567" />
    <ellipse
       style="opacity:1;fill:#c17431;fill-opacity:1;fill-rule:evenodd;stroke:none;stroke-width:3;stroke-linecap:butt;stroke-linejoin:round;stroke-miterlimit:4;stroke-dasharray:none;stroke-dashoffset:3779.53;stroke-opacity:1"
       id="circle236351"
       cx="160.29721"
       cy="183.32236"
       rx="1.1387359"
       ry="1.1386567" />
    <ellipse
       style="opacity:1;fill:#c17431;fill-opacity:1;fill-rule:evenodd;stroke:none;stroke-width:3;stroke-linecap:butt;stroke-linejoin:round;stroke-miterlimit:4;stroke-dasharray:none;stroke-dashoffset:3779.53;stroke-opacity:1"
       id="circle236433"
       cx="184.03395"
       cy="147.70911"
       rx="1.1387359"
       ry="1.1386567" />
  </g>
</svg>
