<?xml version="1.0" encoding="UTF-8" standalone="no"?>
<!-- Created with Inkscape (http://www.inkscape.org/) -->

<svg
   width="1000"
   height="1000"
   viewBox="0 0 264.58333 264.58334"
   version="1.1"
   id="svg196368"
   inkscape:version="1.1.1 (3bf5ae0d25, 2021-09-20)"
   sodipodi:docname="newchocolate.svg"
   xmlns:inkscape="http://www.inkscape.org/namespaces/inkscape"
   xmlns:sodipodi="http://sodipodi.sourceforge.net/DTD/sodipodi-0.dtd"
   xmlns="http://www.w3.org/2000/svg"
   xmlns:svg="http://www.w3.org/2000/svg">
  <sodipodi:namedview
     id="namedview196370"
     pagecolor="#ffffff"
     bordercolor="#666666"
     borderopacity="1.0"
     inkscape:pageshadow="2"
     inkscape:pageopacity="0.0"
     inkscape:pagecheckerboard="0"
     inkscape:document-units="mm"
     showgrid="false"
     units="px"
     inkscape:object-paths="true"
     inkscape:snap-intersection-paths="true"
     inkscape:snap-smooth-nodes="true"
     inkscape:snap-midpoints="true"
     inkscape:snap-object-midpoints="true"
     inkscape:zoom="1.007193"
     inkscape:cx="753.57952"
     inkscape:cy="637.91152"
     inkscape:window-width="1680"
     inkscape:window-height="987"
     inkscape:window-x="-8"
     inkscape:window-y="-8"
     inkscape:window-maximized="1"
     inkscape:current-layer="layer1" />
  <defs
     id="defs196365" />
  <g
     inkscape:label="Livello 1"
     inkscape:groupmode="layer"
     id="layer1">
    <path
       style="fill:#d6f7ff;stroke:#351a1b;stroke-width:3.09232;stroke-linecap:round;stroke-linejoin:round;stroke-miterlimit:4;stroke-dasharray:none;stroke-dashoffset:3779.53;stroke-opacity:1;fill-opacity:1"
       id="path200596"
       sodipodi:type="arc"
       sodipodi:cx="115.99378"
       sodipodi:cy="-82.331818"
       sodipodi:rx="71.783508"
       sodipodi:ry="71.798218"
       sodipodi:start="0"
       sodipodi:end="3.1351264"
       sodipodi:open="true"
       sodipodi:arc-type="arc"
       d="m 187.77729,-82.331818 a 71.783508,71.798218 0 0 1 -71.55142,71.797843 71.783508,71.798218 0 0 1 -72.014096,-71.33358"
       transform="scale(1,-1)" />
    <path
       style="fill:#d6f7ff;stroke:none;stroke-width:0.264583px;stroke-linecap:butt;stroke-linejoin:miter;stroke-opacity:1;fill-opacity:1"
       d="M 46.36626,96.529577 H 56.398024 L 81.612567,243.86088 H 150.375 L 175.27175,97.724213 185.62131,96.529577 157.81308,256.06865 H 74.174481 Z"
       id="path212517" />
    <path
       id="path199651"
       style="fill:#d6f7ff;stroke:#351a1b;stroke-width:3;stroke-linecap:round;stroke-linejoin:round;stroke-miterlimit:4;stroke-dasharray:none;stroke-opacity:1;fill-opacity:1"
       d="M 188.09603,82.331822 157.81308,256.06865 M 43.891541,82.331822 74.174483,256.06865 m 83.638597,0 H 115.99379 74.174483 M 43.891541,82.331822 h 72.102249 72.10224" />
    <path
       style="fill:#f3ebde;stroke:none;stroke-width:0.264583px;stroke-linecap:butt;stroke-linejoin:miter;stroke-opacity:1;fill-opacity:1"
       d="m 102.70912,68.134073 -45.993302,-3e-6 -3.128055,-3.968961 2.744592,-5.337718 5.591111,-5.247499 12.695174,-6.11487 21.363871,-5.362858 25.186999,-3.41593 20.62822,-0.699815 11.65895,1.04276 7.51109,2.219555 4.3203,3.505893 1.43809,6.359028 -8.21669,-0.387834 -15.67544,3.387857 -17.23684,5.450001 z"
       id="path219927" />
    <path
       style="fill:#f3ebde;stroke:#000000;stroke-width:3;stroke-linecap:round;stroke-linejoin:round;stroke-miterlimit:4;stroke-dasharray:none;stroke-opacity:1;fill-opacity:1"
       d="m 102.70912,68.134073 c 0,0 52.83447,-21.626138 64.01704,-17.020415 11.18256,4.605723 8.54559,17.020412 8.54559,17.020412"
       id="path201946"
       sodipodi:nodetypes="csc" />
    <path
       style="fill:#4a240f;fill-opacity:1;stroke:none;stroke-width:0.264583px;stroke-linecap:butt;stroke-linejoin:miter;stroke-opacity:1"
       d="m 106.09137,66.867595 36.74266,-12.753917 15.67544,-3.387857 8.21669,0.387834 c -15.80215,3.295095 -19.29686,6.118587 -39.88863,17.020416 z"
       id="path220252"
       sodipodi:nodetypes="cccccc" />
    <rect
       style="fill:#d8dce0;stroke:#351a1b;stroke-width:3;stroke-linecap:round;stroke-linejoin:round;stroke-miterlimit:4;stroke-dasharray:none;stroke-dashoffset:3779.53;stroke-opacity:1;fill-opacity:1"
       id="rect200296"
       width="150.87308"
       height="28.395508"
       x="40.557247"
       y="68.134071"
       rx="5.0520067" />
    <path
       style="fill:#764435;stroke:none;stroke-width:0.264583px;stroke-linecap:butt;stroke-linejoin:miter;stroke-opacity:1;fill-opacity:1"
       d="M 56.715818,97.724213 H 175.27175 L 171.17838,121.7511 H 60.809187 Z"
       id="path217807" />
    <path
       style="fill:#f7f7c5;stroke:none;stroke-width:0.264583px;stroke-linecap:butt;stroke-linejoin:miter;stroke-opacity:1;fill-opacity:1"
       d="m 67.451895,160.74185 7.180342,42.14652 h 82.723083 l 7.18035,-42.14652 z"
       id="path218351" />
    <path
       style="fill:#351a1b;fill-opacity:1;stroke:none;stroke-width:0.264583px;stroke-linecap:butt;stroke-linejoin:miter;stroke-opacity:1"
       d="M 74.632235,202.88837 H 157.35532 L 150.375,243.86088 H 81.612565 Z"
       id="path218911" />
    <path
       style="fill:#8a4b2c;stroke:#000000;stroke-width:0.264583px;stroke-linecap:butt;stroke-linejoin:miter;stroke-opacity:1;fill-opacity:1"
       d="M 60.809187,121.7511 H 171.17838 l -6.64271,38.99075 H 67.451895 Z"
       id="path218697" />
    <path
       style="fill:#ad94ff;stroke:none;stroke-width:0.264583px;stroke-linecap:butt;stroke-linejoin:miter;stroke-opacity:1;fill-opacity:0.34"
       d="m 186.5091,96.527934 -51.81174,0.0016 -10.07432,159.539066 33.32319,0.67944 z"
       id="path249387" />
    <path
       id="path201086"
       style="fill:none;stroke:#351a1b;stroke-width:3;stroke-linecap:round;stroke-linejoin:round;stroke-miterlimit:4;stroke-dasharray:none;stroke-opacity:1"
       d="M 175.27175,96.529581 150.375,243.86088 M 56.715819,96.529581 81.612569,243.86088 m 68.762431,0 H 115.99379 81.612569 M 56.715819,96.529581 h 59.277971 59.27796" />
    <path
       style="fill:#f3ebde;stroke:#351a1b;stroke-width:3;stroke-linecap:round;stroke-linejoin:round;stroke-miterlimit:4;stroke-dasharray:none;stroke-opacity:1;fill-opacity:1"
       d="m 76.624515,39.341464 c 31.515025,-39.30542449 54.280175,-19.65463 50.926215,-16.72845 -17.24788,-6.667598 -21.78309,6.900577 -5.35934,7.113665"
       id="path202404"
       sodipodi:nodetypes="ccc" />
    <path
       style="fill:#4a240f;fill-opacity:1;stroke:none;stroke-width:0.264583px;stroke-linecap:butt;stroke-linejoin:miter;stroke-opacity:1"
       d="m 127.55073,22.613014 -3.67442,-5.16799 c 0,0 -0.51638,-0.398201 -0.84683,-0.44084 -12.49479,-1.612298 -23.115648,11.978668 -20.14589,14.577206 l 19.12212,-1.850124 -9.47679,-3.302247 0.19649,-3.567611 6.9459,-2.071492 z"
       id="path238107"
       sodipodi:nodetypes="ccscccccc" />
    <path
       style="fill:#f3ebde;stroke:none;stroke-width:3;stroke-linecap:round;stroke-linejoin:round;stroke-miterlimit:4;stroke-dasharray:none;stroke-opacity:1;fill-opacity:1"
       d="M 61.923467,53.579892 C 67.002247,29.854879 150.03386,20.314082 160.96777,41.248735"
       id="path237268"
       sodipodi:nodetypes="cc" />
    <path
       style="fill:#ad94ff;fill-opacity:0.34;stroke:none;stroke-width:0.264583px;stroke-linecap:butt;stroke-linejoin:miter;stroke-opacity:1"
       d="m 186.37832,68.13407 h -49.17256 c 14.28215,-43.096335 0.87893,-53.606568 -12.47603,-57.066801 27.79967,5.57967 51.44513,18.861721 61.64859,57.066801 z"
       id="path245825"
       sodipodi:nodetypes="cccc" />
    <path
       style="fill:none;stroke:#351a1b;stroke-width:3.09232;stroke-linecap:round;stroke-linejoin:round;stroke-miterlimit:4;stroke-dasharray:none;stroke-dashoffset:3779.53;stroke-opacity:1;fill-opacity:1"
       id="path246977"
       sodipodi:type="arc"
       sodipodi:cx="115.99378"
       sodipodi:cy="-82.331818"
       sodipodi:rx="71.783508"
       sodipodi:ry="71.798218"
       sodipodi:start="0"
       sodipodi:end="3.1351264"
       sodipodi:open="true"
       sodipodi:arc-type="arc"
       d="m 187.77729,-82.331818 a 71.783508,71.798218 0 0 1 -71.55142,71.797843 71.783508,71.798218 0 0 1 -72.014096,-71.33358"
       transform="scale(1,-1)" />
    <path
       style="fill:#4a240f;fill-opacity:1;stroke:none;stroke-width:0.264583px;stroke-linecap:butt;stroke-linejoin:miter;stroke-opacity:1"
       d="m 67.477621,45.124724 13.867497,-7.82506 17.288386,-4.935376 23.557886,-2.63761 18.45835,1.118838 10.59027,2.802131 C 124.23285,32.861637 102.88359,31.58139 67.477621,45.124724 Z"
       id="path237120"
       sodipodi:nodetypes="ccccccc" />
    <path
       style="fill:none;stroke:#351a1b;stroke-width:3;stroke-linecap:round;stroke-linejoin:round;stroke-miterlimit:4;stroke-dasharray:none;stroke-opacity:1;fill-opacity:1"
       d="M 61.923467,53.579892 C 67.002247,29.854879 150.03386,20.314082 160.96777,41.248735"
       id="path202176"
       sodipodi:nodetypes="cc" />
    <path
       style="fill:#4a240f;fill-opacity:1;stroke:none;stroke-width:0.264583px;stroke-linecap:butt;stroke-linejoin:miter;stroke-opacity:1"
       d="m 56.715818,68.13407 -3.128055,-3.968961 2.744592,-5.337718 5.591111,-5.247499 12.695174,-6.11487 21.363871,-5.362858 25.186999,-3.41593 20.62822,-0.699815 11.65895,1.04276 C 141.79773,37.986419 83.379368,46.641607 56.715818,68.13407"
       id="path233870"
       sodipodi:nodetypes="cccccccccc" />
    <path
       style="fill:none;stroke:#351a1b;stroke-width:3;stroke-linecap:round;stroke-linejoin:round;stroke-miterlimit:4;stroke-dasharray:none;stroke-opacity:1"
       d="m 56.715818,68.13407 c 0,0 -9.783904,-2.546137 5.207649,-14.554178 14.991554,-12.008042 82.501493,-20.69555 99.044303,-12.331157 7.74402,3.91554 4.92486,9.461056 5.75839,9.864921"
       id="path202061"
       sodipodi:nodetypes="cssc" />
    <path
       style="fill:none;stroke:#351a1b;stroke-width:3;stroke-linecap:butt;stroke-linejoin:round;stroke-miterlimit:4;stroke-dasharray:none;stroke-opacity:1"
       d="M 60.809187,121.7511 H 171.17838"
       id="path206990" />
    <path
       style="fill:none;stroke:#351a1b;stroke-width:3;stroke-linecap:butt;stroke-linejoin:round;stroke-miterlimit:4;stroke-dasharray:none;stroke-opacity:1"
       d="M 67.451891,160.74185 H 164.53567"
       id="path207220" />
    <path
       style="fill:none;stroke:#351a1b;stroke-width:3;stroke-linecap:butt;stroke-linejoin:round;stroke-miterlimit:4;stroke-dasharray:none;stroke-opacity:1"
       d="M 74.632232,202.88837 H 157.35532"
       id="path207335" />
    <path
       style="fill:none;stroke:#351a1b;stroke-width:3;stroke-linecap:round;stroke-linejoin:round;stroke-miterlimit:4;stroke-dasharray:none;stroke-opacity:1;fill-opacity:1"
       d="m 102.70912,68.134073 c 0,0 52.83447,-21.626138 64.01704,-17.020415 11.18256,4.605723 8.54559,17.020412 8.54559,17.020412"
       id="path222896"
       sodipodi:nodetypes="csc" />
    <path
       style="fill:none;stroke:#351a1b;stroke-width:3;stroke-linecap:round;stroke-linejoin:round;stroke-miterlimit:4;stroke-dasharray:none;stroke-opacity:1;fill-opacity:1"
       d="m 76.624515,39.341464 c 31.515025,-39.30542449 54.280175,-19.65463 50.926215,-16.72845 -17.24788,-6.667598 -21.78309,6.900577 -5.35934,7.113665"
       id="path238255"
       sodipodi:nodetypes="ccc" />
    <path
       id="path252226"
       style="fill:#d6f7ff;stroke:#351a1b;stroke-width:3;stroke-linecap:round;stroke-linejoin:round;stroke-miterlimit:4;stroke-dasharray:none;stroke-opacity:1;fill-opacity:1"
       d="M 188.09603,82.331822 157.81308,256.06865 M 43.891541,82.331822 74.174483,256.06865 m 83.638597,0 H 115.99379 74.174483 M 43.891541,82.331822 h 72.102249 72.10224" />
    <path
       style="fill:#c776b6;fill-opacity:1;stroke:none;stroke-width:0.264583px;stroke-linecap:butt;stroke-linejoin:miter;stroke-opacity:1"
       d="m 139.80014,202.20893 h 85.59891 l -17.83594,53.85972 h -49.75003 z"
       id="path245380" />
    <path
       style="fill:#ac50b6;fill-opacity:1;stroke:none;stroke-width:0.264583px;stroke-linecap:butt;stroke-linejoin:miter;stroke-opacity:1"
       d="m 171.26013,202.20899 c 0,0 11.11924,-0.002 11.2736,-0.001 0.15437,0.001 0.0659,53.86069 0.0659,53.86069 h -6.50978 z"
       id="path256570" />
    <path
       style="fill:#ac50b6;fill-opacity:1;stroke:none;stroke-width:0.264583px;stroke-linecap:butt;stroke-linejoin:miter;stroke-opacity:1"
       d="m 147.97396,202.20899 11.89406,-6e-5 9.00647,53.85972 h -6.58385 z"
       id="path256469" />
    <path
       style="fill:#ac50b6;fill-opacity:1;stroke:none;stroke-width:0.264583px;stroke-linecap:butt;stroke-linejoin:miter;stroke-opacity:1"
       d="m 194.11607,202.20899 11.3921,-6e-5 -9.00647,53.85972 h -7.21536 z"
       id="path256638" />
    <path
       style="fill:#ac50b6;fill-opacity:1;stroke:none;stroke-width:0.264583px;stroke-linecap:butt;stroke-linejoin:miter;stroke-opacity:1"
       d="m 217.40223,202.20899 8.17382,-6e-5 -18.01294,53.85972 h -4.47756 z"
       id="path256706" />
    <path
       style="fill:#000000;fill-opacity:0.35;stroke:none;stroke-width:0.264583px;stroke-linecap:butt;stroke-linejoin:miter;stroke-opacity:1"
       d="m 189.32053,202.20893 -3.24997,53.85972 c 0,0 21.49255,0 21.49255,0 l 18.01294,-53.85972 z"
       id="path266904" />
    <path
       id="path238544"
       style="fill:#d6f7ff;fill-opacity:1;stroke:#351a1b;stroke-width:3;stroke-linecap:round;stroke-linejoin:round;stroke-miterlimit:4;stroke-dasharray:none;stroke-opacity:1"
       d="m 225.57605,202.20893 -18.01294,53.85972 m -67.76297,-53.85972 18.01294,53.85972 m 49.75003,0 H 182.6881 157.81308 m -18.01294,-53.85972 h 42.88796 42.88795" />
    <path
       id="path238977"
       style="fill:#d08149;fill-opacity:1;stroke:#351a1b;stroke-width:3;stroke-linecap:round;stroke-linejoin:round;stroke-miterlimit:4;stroke-dasharray:none;stroke-opacity:1"
       d="m 210.78508,171.40865 c 10.74398,0 19.45369,8.3068 19.45369,18.55377 v 0 c 0,4.50732 -1.72036,8.86053 -4.83974,12.24654 l -85.73059,-0.002 c -1.69987,-2.48096 -2.52864,-5.32138 -2.52864,-8.21673 0,-8.7831 7.46547,-15.90322 16.67459,-15.90322 1.17624,0 2.34918,0.1187 3.49763,0.35759 2.36895,-12.63374 13.89446,-21.83401 27.355,-21.83401 10.6267,0 20.32308,5.77962 24.97321,14.86004 0.37658,-0.0513 0.76067,-0.0622 1.14485,-0.0622 z"
       sodipodi:nodetypes="cssccsscscc" />
    <path
       style="fill:#ba6324;fill-opacity:1;stroke:none;stroke-width:0.264583px;stroke-linecap:butt;stroke-linejoin:miter;stroke-opacity:1"
       d="m 184.66702,156.61059 c 11.78197,2.49795 21.27288,32.97813 4.65351,45.59834 l 36.0785,3e-5 4.83974,-12.24654 -2.34796,-8.84383 -9.97255,-8.42299 -7.13318,-1.28695 -5.84143,-6.42884 -11.62269,-7.05284 z"
       id="path276442"
       sodipodi:nodetypes="cccccccccc" />
    <ellipse
       style="fill:#967cff;fill-opacity:1;stroke:#351a1b;stroke-width:3;stroke-linecap:round;stroke-linejoin:round;stroke-miterlimit:4;stroke-dasharray:none;stroke-dashoffset:3779.53;stroke-opacity:1"
       id="path240021"
       cx="192.85507"
       cy="171.28996"
       rx="4.3341565"
       ry="4.3353086" />
    <ellipse
       style="fill:#967cff;fill-opacity:1;stroke:#351a1b;stroke-width:3;stroke-linecap:round;stroke-linejoin:round;stroke-miterlimit:4;stroke-dasharray:none;stroke-dashoffset:3779.53;stroke-opacity:1"
       id="circle240103"
       cx="156.15663"
       cy="189.29774"
       rx="4.3341565"
       ry="4.3353086" />
    <ellipse
       style="fill:#967cff;fill-opacity:1;stroke:#351a1b;stroke-width:3;stroke-linecap:round;stroke-linejoin:round;stroke-miterlimit:4;stroke-dasharray:none;stroke-dashoffset:3779.53;stroke-opacity:1"
       id="circle240105"
       cx="216.05125"
       cy="185.14211"
       rx="4.3341565"
       ry="4.3353086" />
    <path
       style="fill:none;stroke:#351a1b;stroke-width:2;stroke-linecap:butt;stroke-linejoin:miter;stroke-miterlimit:4;stroke-dasharray:none;stroke-opacity:1"
       d="m 182.59959,202.20899 v 53.85966"
       id="path240140" />
    <path
       style="fill:none;stroke:#351a1b;stroke-width:2;stroke-linecap:butt;stroke-linejoin:miter;stroke-miterlimit:4;stroke-dasharray:none;stroke-opacity:1"
       d="m 147.97396,202.20899 14.31668,53.85966"
       id="path240485" />
    <path
       style="fill:none;stroke:#351a1b;stroke-width:2;stroke-linecap:butt;stroke-linejoin:miter;stroke-miterlimit:4;stroke-dasharray:none;stroke-opacity:1"
       d="m 159.86802,202.20893 9.00647,53.85972"
       id="path240600" />
    <path
       style="fill:none;stroke:#351a1b;stroke-width:2;stroke-linecap:butt;stroke-linejoin:miter;stroke-miterlimit:4;stroke-dasharray:none;stroke-opacity:1"
       d="m 171.26013,202.20899 4.82972,53.85966"
       id="path240715" />
    <path
       style="fill:none;stroke:#351a1b;stroke-width:2;stroke-linecap:butt;stroke-linejoin:miter;stroke-miterlimit:4;stroke-dasharray:none;stroke-opacity:1"
       d="m 217.40223,202.20899 -14.31668,53.85966"
       id="path240797" />
    <path
       style="fill:none;stroke:#351a1b;stroke-width:2;stroke-linecap:butt;stroke-linejoin:miter;stroke-miterlimit:4;stroke-dasharray:none;stroke-opacity:1"
       d="m 205.50817,202.20893 -9.00647,53.85972"
       id="path240799" />
    <path
       style="fill:none;stroke:#351a1b;stroke-width:2;stroke-linecap:butt;stroke-linejoin:miter;stroke-miterlimit:4;stroke-dasharray:none;stroke-opacity:1"
       d="m 194.11607,202.20899 -4.82973,53.85966"
       id="path240801" />
    <rect
       style="fill:#d8dce0;stroke:#351a1b;stroke-width:3;stroke-linecap:round;stroke-linejoin:round;stroke-miterlimit:4;stroke-dasharray:none;stroke-dashoffset:3779.53;stroke-opacity:1;fill-opacity:1"
       id="rect236603"
       width="150.87308"
       height="28.395508"
       x="40.557247"
       y="68.134071"
       rx="5.0520067" />
    <path
       style="fill:#b2b0c6;fill-opacity:1;stroke:none;stroke-width:0.264583px;stroke-linecap:butt;stroke-linejoin:miter;stroke-opacity:1"
       d="m 126.83753,68.13407 c 5.0304,11.844442 2.74085,20.226703 0,28.395507 l 59.67157,-0.0016 3.61184,-1.650068 1.30938,-4.48445 -0.009,-17.507217 -1.3832,-3.189052 -3.66013,-1.563076 z"
       id="path252279"
       sodipodi:nodetypes="ccccccccc" />
    <rect
       style="fill:none;stroke:#351a1b;stroke-width:3;stroke-linecap:round;stroke-linejoin:round;stroke-miterlimit:4;stroke-dasharray:none;stroke-dashoffset:3779.53;stroke-opacity:1;fill-opacity:1"
       id="rect256261"
       width="150.87308"
       height="28.395508"
       x="40.557247"
       y="68.134071"
       rx="5.0520067" />
    <path
       id="path265578"
       style="fill:none;fill-opacity:1;stroke:#351a1b;stroke-width:3;stroke-linecap:round;stroke-linejoin:round;stroke-miterlimit:4;stroke-dasharray:none;stroke-opacity:1"
       d="m 210.78508,171.40865 c 10.74398,0 19.45369,8.3068 19.45369,18.55377 v 0 c 0,4.50732 -1.72036,8.86053 -4.83974,12.24654 l -85.73059,-0.002 c -1.69987,-2.48096 -2.52864,-5.32138 -2.52864,-8.21673 0,-8.7831 7.46547,-15.90322 16.67459,-15.90322 1.17624,0 2.34918,0.1187 3.49763,0.35759 2.36895,-12.63374 13.89446,-21.83401 27.355,-21.83401 10.6267,0 20.32308,5.77962 24.97321,14.86004 0.37658,-0.0513 0.76067,-0.0622 1.14485,-0.0622 z"
       sodipodi:nodetypes="cssccsscscc" />
  </g>
</svg>
