<svg width="368" height="368" viewBox="0 0 368 368" fill="none" xmlns="http://www.w3.org/2000/svg">
<path d="M170.215 7.44791C178.817 2.80013 189.183 2.80014 197.785 7.44792L207.052 12.4546C212.377 15.3318 218.469 16.4706 224.474 15.7115L234.924 14.3904C244.624 13.164 254.29 16.9084 260.632 24.3498L267.464 32.366C271.391 36.9726 276.66 40.2352 282.534 41.6966L292.755 44.2395C302.244 46.6002 309.904 53.5832 313.13 62.8133L316.605 72.7563C318.602 78.4702 322.337 83.416 327.286 86.9005L335.898 92.9641C343.893 98.593 348.514 107.872 348.187 117.644L347.836 128.171C347.634 134.22 349.33 140.181 352.687 145.218L358.527 153.984C363.949 162.12 364.905 172.442 361.071 181.436L356.941 191.125C354.567 196.693 353.995 202.864 355.305 208.774L357.585 219.057C359.701 228.603 356.864 238.573 350.04 245.575L342.688 253.117C338.464 257.452 335.701 263 334.788 268.983L333.199 279.396C331.724 289.061 325.477 297.333 316.584 301.397L307.004 305.775C301.499 308.291 296.919 312.466 293.906 317.716L288.663 326.851C283.796 335.331 274.983 340.788 265.222 341.365L254.708 341.986C248.666 342.343 242.887 344.582 238.181 348.389L229.992 355.013C222.39 361.162 212.201 363.067 202.891 360.079L192.862 356.86C187.099 355.011 180.901 355.011 175.138 356.86L165.109 360.079C155.799 363.067 145.61 361.162 138.008 355.013L129.819 348.389C125.113 344.582 119.334 342.343 113.292 341.986L102.778 341.365C93.0169 340.788 84.2042 335.331 79.337 326.851L74.094 317.716C71.081 312.466 66.5009 308.291 60.9956 305.775L51.4157 301.397C42.5226 297.333 36.2761 289.061 34.801 279.396L33.212 268.983C32.2989 263 29.5364 257.452 25.3117 253.117L17.9601 245.575C11.1356 238.572 8.29902 228.603 10.4152 219.057L12.6949 208.774C14.0049 202.864 13.433 196.693 11.0595 191.125L6.92913 181.436C3.09491 172.442 4.0513 162.12 9.47298 153.984L15.3134 145.218C18.6696 140.181 20.3657 134.22 20.1638 128.171L19.8125 117.644C19.4864 107.872 24.1066 98.5929 32.1016 92.9641L40.7139 86.9006C45.6632 83.416 49.3981 78.4702 51.3952 72.7563L54.8704 62.8133C58.0964 53.5832 65.7565 46.6001 75.2449 44.2395L85.4661 41.6966C91.3399 40.2352 96.6092 36.9726 100.536 32.366L107.368 24.3498C113.71 16.9083 123.376 13.164 133.076 14.3904L143.526 15.7115C149.531 16.4706 155.623 15.3318 160.948 12.4546L170.215 7.44791Z" fill="#2E2E2E"/>
<circle cx="183.345" cy="184.655" r="162.201" stroke="#414141" stroke-width="3"/>
<path d="M220.208 221.427C212.066 236.858 195.931 247.383 177.323 247.383C150.533 247.383 128.815 225.58 128.815 198.685C128.815 171.789 150.533 149.986 177.323 149.986C195.931 149.986 212.066 160.511 220.208 175.942H270.706C260.574 133.546 222.667 101.995 177.323 101.995C124.233 101.995 81.1957 145.201 81.1957 198.496C81.1957 251.793 124.233 294.995 177.323 294.995C222.53 294.995 260.343 263.631 270.61 221.427H220.208Z" fill="#FFB0C2"/>
<path d="M253.324 139.651C264.165 130.773 271.089 117.255 271.089 102.114C271.089 75.3721 249.495 53.6948 222.857 53.6948C196.218 53.6948 174.624 75.3721 174.624 102.114V102.151C175.52 102.126 176.416 102.112 177.317 102.112C208.277 102.112 235.771 116.823 253.324 139.651Z" fill="#CC91F0"/>
<path d="M222.89 150.585C234.446 150.583 245.053 146.504 253.359 139.701C235.809 116.875 208.316 102.166 177.354 102.17C176.453 102.169 175.557 102.183 174.664 102.208C174.679 128.932 196.264 150.587 222.89 150.585Z" fill="#CC66B8"/>
</svg>
